<svg width="368" height="59" viewBox="0 0 368 59" fill="none" xmlns="http://www.w3.org/2000/svg">
<g clip-path="url(#clip0_1840_12217)">
<path fill-rule="evenodd" clip-rule="evenodd" d="M48.6779 0.5H3.01367V46.9252H48.677V30.7196H41.0988C38.4865 36.6314 32.6066 40.749 25.8777 40.749C16.6011 40.749 9.08862 33.0455 9.08862 23.68C9.08862 14.3148 16.6011 6.6771 25.8777 6.6771C32.7371 6.6771 38.617 10.9281 41.2303 16.9716H48.6779V0.5ZM92.9003 30.7186C90.2223 36.6303 84.4078 40.7477 77.6144 40.7481C68.5987 40.7481 61.2168 33.4423 60.8902 24.3431H100.479V0.5H54.8142V46.9241H100.479V30.7186H92.9003ZM93.4856 18.6317H61.6058C63.6308 10.994 70.3588 6.67717 77.6105 6.67717C84.862 6.67717 91.1341 10.7278 93.4856 18.6317ZM199.085 23.6791C199.085 33.1104 191.638 40.7481 182.361 40.7481C173.15 40.7481 165.637 33.0444 165.637 23.6791C165.637 14.3138 173.085 6.67616 182.361 6.67616C191.638 6.67616 199.085 14.248 199.085 23.6791ZM205.225 0.5H159.561V46.9252H205.225V0.5ZM146.274 30.7186H153.852V46.9241H106.555V0.5H114.264V23.6791C114.264 34.0405 121.842 40.6821 130.857 40.6821C137.846 40.6821 143.987 36.829 146.274 30.7186Z" fill="black"/>
</g>
<path d="M239.148 47.298C227.235 47.298 219.369 39.261 219.369 27.348C219.369 15.264 227.292 6.942 239.547 6.942C246.501 6.942 250.149 9.279 251.346 9.279C251.973 9.279 252.315 8.766 252.6 7.455H254.31V19.824H252.6C250.89 12.015 246.843 8.88 239.604 8.88C229.344 8.88 223.245 15.435 223.245 26.835C223.245 38.292 229.572 45.36 239.433 45.36C247.641 45.36 251.574 42.054 253.455 32.934H255.165L254.766 43.707C250.434 45.987 244.791 47.298 239.148 47.298ZM285.784 40.287L286.981 40.629C286.297 44.562 285.328 47.07 282.022 47.07C279.343 47.07 277.633 45.36 277.633 41.541V41.085C275.695 45.303 272.731 47.298 269.254 47.298C265.15 47.298 262.414 45.018 262.414 41.199C262.414 37.209 265.492 35.157 270.28 33.561L277.633 31.11V28.146C277.633 23.13 275.239 21.078 271.192 21.078C268.969 21.078 266.632 21.933 264.979 23.073C265.321 25.467 267.544 25.98 267.544 28.203C267.544 29.799 266.347 30.939 264.694 30.939C262.813 30.939 261.559 29.457 261.559 27.291C261.559 22.845 267.088 18.798 272.218 18.798C277.291 18.798 280.597 21.534 280.597 27.633V41.085C280.597 43.821 281.452 44.391 282.82 44.391C284.473 44.391 285.1 43.137 285.784 40.287ZM270.109 44.676C272.731 44.676 275.638 42.738 277.633 38.634V32.991L271.591 35.1C268.057 36.354 265.72 37.722 265.72 40.686C265.72 43.251 267.259 44.676 270.109 44.676ZM328.01 27.519V41.142C328.01 44.562 328.409 44.904 332.171 45.189V46.5H320.885V45.189C324.59 44.904 325.046 44.505 325.046 41.142V27.918C325.046 23.7 323.165 21.648 319.403 21.648C316.553 21.648 314.387 23.016 312.449 25.866C312.506 26.379 312.506 26.892 312.506 27.462V41.142C312.506 44.619 312.791 44.904 316.553 45.189V46.5H305.666V45.189C309.2 44.904 309.542 44.562 309.542 41.142V27.804C309.542 23.871 307.604 21.648 304.241 21.648C301.277 21.648 298.997 23.13 297.002 26.265V41.313C297.002 44.505 297.401 44.847 301.448 45.189V46.5H289.535V45.189C293.582 44.847 294.038 44.505 294.038 41.313V25.239C294.038 21.99 293.411 21.648 289.535 21.648V20.565L295.862 19.14H297.002V24.27C298.541 20.736 301.277 18.798 304.754 18.798C308.744 18.798 311.252 20.622 312.164 24.213C313.76 20.679 316.439 18.798 319.973 18.798C325.217 18.798 328.01 21.819 328.01 27.519ZM351.407 18.798C357.62 18.798 361.781 24.042 361.781 32.307C361.781 41.826 357.107 47.298 349.925 47.298C346.391 47.298 344.51 46.329 342.515 44.676V52.941C342.515 56.19 343.427 56.817 348.728 56.931V58.242H335.048V56.931C338.981 56.817 339.551 56.247 339.551 52.941V25.239C339.551 21.99 338.924 21.648 335.048 21.648V20.565L341.375 19.14H342.515V24.27C344.795 20.508 347.702 18.798 351.407 18.798ZM350.267 45.474C355.34 45.474 358.475 41.427 358.475 33.504C358.475 26.208 355.454 21.819 350.552 21.819C347.588 21.819 345.137 23.13 342.515 26.379V36.069C342.515 42.567 345.365 45.474 350.267 45.474Z" fill="black"/>
<defs>
<clipPath id="clip0_1840_12217">
<rect width="204" height="47" fill="white" transform="translate(2.23438 0.5)"/>
</clipPath>
</defs>
</svg>
