<svg width="309" height="322" viewBox="0 0 309 322" fill="none" xmlns="http://www.w3.org/2000/svg">
<mask id="mask0_223_1900" style="mask-type:luminance" maskUnits="userSpaceOnUse" x="0" y="89" width="144" height="233">
<path d="M143.311 156.092L0.753906 89.1094V254.036L143.311 321.018V156.092Z" fill="white"/>
</mask>
<g mask="url(#mask0_223_1900)">
<path fill-rule="evenodd" clip-rule="evenodd" d="M143.311 156.093L1.4668 89.4453V254.371L143.309 321.018V263.447L119.769 252.387C111.654 269.576 93.3899 275.622 72.4881 265.8C43.6727 252.262 20.3371 213.93 20.3371 180.659C20.3371 147.389 43.6727 131.221 72.4881 144.76C93.7951 154.772 112.059 178.455 120.177 203.739L143.311 214.609V156.093Z" fill="#E7E3D4"/>
</g>
<path d="M165.736 156.095L308.296 89.1113V254.034L165.736 321.018V156.095Z" fill="#E7E3D4"/>
<path d="M285.406 178.592C285.146 178.434 284.806 178.444 284.536 178.624L277.246 183.308C276.946 183.498 276.566 183.487 276.296 183.286L271.336 179.491C271.276 179.449 271.216 179.407 271.146 179.385L267.086 177.842C266.976 177.8 266.876 177.736 266.796 177.652L260.096 170.41C260.096 170.41 260.026 170.336 259.986 170.315L256.616 167.862C256.616 167.862 256.596 167.851 256.596 167.841L251.816 164.067C251.656 163.94 251.556 163.749 251.536 163.549L251.486 163.052C251.466 162.819 251.546 162.576 251.726 162.396C251.906 162.216 252.146 162.121 252.386 162.132L252.946 162.164C253.266 162.185 253.566 162.016 253.736 161.73C253.896 161.455 253.886 161.117 253.706 160.874L252.616 159.362C252.456 159.129 252.176 159.013 251.886 159.055L245.916 159.774C245.786 159.795 245.666 159.838 245.556 159.901L241.426 162.512C241.306 162.586 241.166 162.639 241.026 162.639L236.806 162.925C236.646 162.935 236.496 162.904 236.366 162.83L235.016 162.079C234.826 161.973 234.606 161.952 234.396 162.016L231.936 162.724C231.526 162.84 231.256 163.242 231.316 163.644L231.606 165.621C231.636 165.832 231.576 166.054 231.436 166.234C231.296 166.414 231.096 166.53 230.876 166.562L225.446 167.386C225.146 167.428 224.866 167.312 224.696 167.09L223.986 166.139C223.786 165.874 223.436 165.769 223.106 165.864L218.976 167.132C218.736 167.206 218.476 167.175 218.286 167.037L216.436 165.779C216.246 165.652 216.136 165.451 216.106 165.229C216.086 165.007 216.156 164.775 216.316 164.595L216.606 164.278C216.896 163.95 216.886 163.464 216.586 163.179L214.546 161.223C214.306 160.99 213.936 160.948 213.616 161.106L199.006 168.422C198.946 168.454 198.886 168.486 198.836 168.539L194.916 171.826C194.846 171.89 194.766 171.932 194.676 171.964L191.866 173.084C191.676 173.158 191.526 173.296 191.426 173.476L187.646 180.263C187.556 180.421 187.526 180.591 187.546 180.76L187.876 183.329C187.906 183.551 187.836 183.783 187.686 183.963L183.856 188.467C183.766 188.572 183.706 188.699 183.676 188.826L181.686 197.791C181.656 197.939 181.656 198.087 181.706 198.225L184.146 204.98C184.166 205.044 184.176 205.096 184.186 205.16L184.526 208.427C184.546 208.67 184.686 208.881 184.896 208.998L200.496 218.248C200.756 218.396 201.086 218.396 201.356 218.227L206.096 215.267C206.166 215.224 206.246 215.193 206.326 215.161L213.636 213.184C213.736 213.163 213.836 213.11 213.926 213.047L218.736 209.558C218.966 209.389 219.256 209.346 219.516 209.442L223.526 210.879C223.716 210.943 223.946 210.943 224.136 210.858L227.046 209.59C227.256 209.494 227.496 209.494 227.706 209.59C227.916 209.674 228.066 209.843 228.136 210.055L228.996 212.846C228.996 212.846 229.016 212.92 229.026 212.962L229.476 216.07C229.506 216.292 229.636 216.482 229.826 216.599L234.346 219.411C234.446 219.474 234.526 219.548 234.586 219.644L240.316 228.704C240.396 228.831 240.436 228.979 240.436 229.127L240.266 237.32C240.266 237.521 240.336 237.7 240.456 237.848L247.366 245.407C247.416 245.46 247.466 245.524 247.496 245.598L250.216 251.497C250.276 251.634 250.386 251.751 250.506 251.825L255.926 255.081C256.086 255.176 256.196 255.324 256.256 255.504L257.296 258.876C257.366 259.088 257.526 259.267 257.736 259.352C257.946 259.436 258.196 259.426 258.406 259.32L265.196 256.011L270.886 253.178C271.066 253.083 271.206 252.945 271.286 252.755L277.226 239.677C277.286 239.551 277.306 239.403 277.296 239.265L277.096 237.119C277.076 236.908 277.146 236.696 277.286 236.527L278.046 235.597C278.216 235.385 278.276 235.11 278.206 234.867L276.466 228.63C276.416 228.45 276.436 228.26 276.516 228.091L277.776 225.3C277.836 225.152 277.946 225.035 278.076 224.94L281.616 222.487C281.916 222.276 282.056 221.906 281.956 221.568L279.646 214.051C279.626 213.987 279.596 213.924 279.566 213.871L275.476 207.359C275.276 207.042 275.336 206.629 275.616 206.355L276.166 205.826C276.266 205.731 276.336 205.614 276.376 205.488L279.656 195.857C279.706 195.719 279.786 195.592 279.896 195.497L283.836 191.966C283.986 191.829 284.086 191.649 284.116 191.448L285.796 179.28C285.836 178.973 285.706 178.677 285.436 178.518L285.406 178.592Z" fill="#FCF6F1"/>
<path d="M293.717 212.666C293.527 212.486 293.247 212.412 292.987 212.475C292.717 212.539 292.497 212.719 292.387 212.972L289.927 218.618C289.877 218.734 289.807 218.84 289.707 218.924L287.857 220.552C287.607 220.774 287.507 221.102 287.597 221.409L288.907 225.659C288.927 225.722 288.937 225.786 288.937 225.849L289.057 228.429C289.057 228.577 289.117 228.714 289.197 228.841L291.907 232.583C292.037 232.753 292.227 232.869 292.437 232.89C292.657 232.911 292.877 232.858 293.057 232.721L295.597 230.797C295.817 230.638 295.937 230.384 295.937 230.12L295.857 217.835V215.023C295.857 214.812 295.767 214.622 295.617 214.474L293.717 212.655V212.666Z" fill="#FCF6F1"/>
<path d="M300.81 69.3291L154.558 137.773L8.30469 69.3291L154.558 0.884766L300.81 69.3291Z" fill="#E7E3D4"/>
</svg>
