<svg width="309" height="321" viewBox="0 0 309 321" fill="none" xmlns="http://www.w3.org/2000/svg">
<mask id="mask0_137_1163" style="mask-type:luminance" maskUnits="userSpaceOnUse" x="0" y="88" width="144" height="233">
<path d="M143.081 155.325L0.523438 88.3418V253.268L143.081 320.251V155.325Z" fill="white"/>
</mask>
<g mask="url(#mask0_137_1163)">
<path fill-rule="evenodd" clip-rule="evenodd" d="M143.08 155.326L1.23633 88.6777V253.604L143.078 320.25V262.68L119.538 251.619C111.423 268.808 93.1594 274.854 72.2576 265.033C43.4422 251.494 20.1066 213.162 20.1066 179.892C20.1066 146.621 43.4422 130.453 72.2576 143.993C93.5646 154.004 111.828 177.687 119.946 202.971L143.08 213.841V155.326Z" fill="#FCF6F1"/>
</g>
<path d="M165.506 155.328L308.066 88.3438V253.267L165.506 320.251V155.328Z" fill="#FCF6F1"/>
<path d="M285.176 177.825C284.916 177.666 284.576 177.677 284.306 177.857L277.016 182.54C276.716 182.73 276.336 182.72 276.066 182.519L271.106 178.724C271.046 178.681 270.986 178.639 270.916 178.618L266.856 177.074C266.746 177.032 266.646 176.969 266.566 176.884L259.866 169.642C259.866 169.642 259.796 169.568 259.756 169.547L256.386 167.094C256.386 167.094 256.366 167.084 256.366 167.073L251.586 163.299C251.426 163.172 251.326 162.982 251.306 162.781L251.256 162.284C251.236 162.051 251.316 161.808 251.496 161.629C251.676 161.449 251.916 161.354 252.156 161.364L252.716 161.396C253.036 161.417 253.336 161.248 253.506 160.963C253.666 160.688 253.656 160.349 253.476 160.106L252.386 158.594C252.226 158.362 251.946 158.246 251.656 158.288L245.686 159.007C245.556 159.028 245.436 159.07 245.326 159.134L241.196 161.745C241.076 161.819 240.936 161.872 240.796 161.872L236.576 162.157C236.416 162.168 236.266 162.136 236.136 162.062L234.786 161.311C234.596 161.206 234.376 161.185 234.166 161.248L231.706 161.956C231.296 162.073 231.026 162.474 231.086 162.876L231.376 164.853C231.406 165.065 231.346 165.287 231.206 165.466C231.066 165.646 230.866 165.762 230.646 165.794L225.216 166.619C224.916 166.661 224.636 166.545 224.466 166.323L223.756 165.371C223.556 165.107 223.206 165.001 222.876 165.096L218.746 166.365C218.506 166.439 218.246 166.407 218.056 166.27L216.206 165.012C216.016 164.885 215.906 164.684 215.876 164.462C215.856 164.24 215.926 164.007 216.086 163.828L216.376 163.51C216.666 163.183 216.656 162.696 216.356 162.411L214.316 160.455C214.076 160.223 213.706 160.18 213.386 160.339L198.776 167.655C198.716 167.686 198.656 167.718 198.606 167.771L194.686 171.059C194.616 171.122 194.536 171.165 194.446 171.196L191.636 172.317C191.446 172.391 191.296 172.528 191.196 172.708L187.416 179.495C187.326 179.654 187.296 179.823 187.316 179.992L187.646 182.561C187.676 182.783 187.606 183.016 187.456 183.195L183.626 187.699C183.536 187.805 183.476 187.932 183.446 188.059L181.456 197.024C181.426 197.172 181.426 197.32 181.476 197.457L183.916 204.213C183.936 204.276 183.946 204.329 183.956 204.392L184.296 207.659C184.316 207.902 184.456 208.114 184.666 208.23L200.266 217.48C200.526 217.628 200.856 217.628 201.126 217.459L205.866 214.499C205.936 214.457 206.016 214.425 206.096 214.393L213.406 212.416C213.506 212.395 213.606 212.342 213.696 212.279L218.506 208.79C218.736 208.621 219.026 208.579 219.286 208.674L223.296 210.112C223.486 210.175 223.716 210.175 223.906 210.091L226.816 208.822C227.026 208.727 227.266 208.727 227.476 208.822C227.686 208.907 227.836 209.076 227.906 209.287L228.766 212.078C228.766 212.078 228.786 212.152 228.796 212.194L229.246 215.303C229.276 215.525 229.406 215.715 229.596 215.831L234.116 218.643C234.216 218.707 234.296 218.781 234.356 218.876L240.086 227.936C240.166 228.063 240.206 228.211 240.206 228.359L240.036 236.552C240.036 236.753 240.106 236.933 240.226 237.081L247.136 244.64C247.186 244.693 247.236 244.756 247.266 244.83L249.986 250.729C250.046 250.867 250.156 250.983 250.276 251.057L255.696 254.313C255.856 254.408 255.966 254.556 256.026 254.736L257.066 258.109C257.136 258.32 257.296 258.5 257.506 258.584C257.716 258.669 257.966 258.658 258.176 258.553L264.966 255.244L270.656 252.41C270.836 252.315 270.976 252.178 271.056 251.987L276.996 238.91C277.056 238.783 277.076 238.635 277.066 238.498L276.866 236.351C276.846 236.14 276.916 235.929 277.056 235.759L277.816 234.829C277.986 234.618 278.046 234.343 277.976 234.1L276.236 227.862C276.186 227.682 276.206 227.492 276.286 227.323L277.546 224.532C277.606 224.384 277.716 224.268 277.846 224.172L281.386 221.72C281.686 221.508 281.826 221.138 281.726 220.8L279.416 213.283C279.396 213.22 279.366 213.156 279.336 213.104L275.246 206.591C275.046 206.274 275.106 205.862 275.386 205.587L275.936 205.058C276.036 204.963 276.106 204.847 276.146 204.72L279.426 195.089C279.476 194.952 279.556 194.825 279.666 194.729L283.606 191.198C283.756 191.061 283.856 190.881 283.886 190.68L285.566 178.512C285.606 178.205 285.476 177.909 285.206 177.751L285.176 177.825Z" fill="black"/>
<path d="M293.487 211.898C293.297 211.718 293.017 211.644 292.757 211.708C292.487 211.771 292.267 211.951 292.157 212.205L289.697 217.85C289.647 217.967 289.577 218.072 289.477 218.157L287.627 219.785C287.377 220.007 287.277 220.335 287.367 220.641L288.677 224.891C288.697 224.955 288.707 225.018 288.707 225.081L288.827 227.661C288.827 227.809 288.887 227.946 288.967 228.073L291.677 231.816C291.807 231.985 291.997 232.101 292.207 232.122C292.427 232.144 292.647 232.091 292.827 231.953L295.367 230.029C295.587 229.871 295.707 229.617 295.707 229.353L295.627 217.068V214.256C295.627 214.044 295.537 213.854 295.387 213.706L293.487 211.888V211.898Z" fill="black"/>
<path d="M300.579 68.5615L154.327 137.005L8.07422 68.5615L154.327 0.117188L300.579 68.5615Z" fill="#FCF6F1"/>
</svg>
