<svg width="1324" height="467" viewBox="0 0 1324 467" fill="none" xmlns="http://www.w3.org/2000/svg">
<mask id="path-1-inside-1_1258_4183" fill="white">
<path d="M259 0H1030V465H259V0Z"/>
</mask>
<path d="M259 0H1030V465H259V0Z" fill="url(#paint0_linear_1258_4183)"/>
<path d="M259 0V-1H258V0H259ZM1030 0H1031V-1H1030V0ZM259 1H1030V-1H259V1ZM1029 0V465H1031V0H1029ZM260 465V0H258V465H260Z" fill="black" mask="url(#path-1-inside-1_1258_4183)"/>
<path d="M321.492 39.196L329.52 58.78C330.816 61.912 331.644 62.92 333.048 63.064V64H324.948V63.064C327.144 63.028 328.116 62.56 328.116 61.3C328.116 60.688 327.9 59.896 327.468 58.852L326.1 55.504H315.804L314.616 58.42C314.148 59.608 313.896 60.544 313.896 61.228C313.896 62.524 314.796 63.028 316.848 63.064V64H309.72V63.064C311.052 62.92 311.772 61.948 313.14 58.6L320.16 41.068L319.404 39.196H321.492ZM320.88 42.832L316.272 54.352H325.632L320.88 42.832ZM352.756 47.764V46.936H358.48V47.764C357.364 47.872 356.968 48.664 356.248 50.608L351.316 64.216H349.876L346.024 53.2L341.704 64.216H340.264L335.332 50.788C334.432 48.304 334.072 47.764 333.064 47.764V46.936H339.472V47.764C337.6 47.8 336.952 48.232 336.952 49.096C336.952 49.456 337.06 49.852 337.24 50.356L341.344 61.912L345.448 51.544L345.016 50.356C344.26 48.232 343.828 47.836 342.1 47.764V46.936H349.3V47.764C347.5 47.8 346.852 48.088 346.852 49.168C346.852 49.744 347.032 50.5 347.392 51.544L350.956 61.804L354.376 52.48C355.132 50.428 355.24 49.672 355.24 49.06C355.24 48.232 354.664 47.8 352.756 47.764ZM376.199 60.076L376.955 60.292C376.523 62.776 375.911 64.36 373.823 64.36C372.131 64.36 371.051 63.28 371.051 60.868V60.58C369.827 63.244 367.955 64.504 365.759 64.504C363.167 64.504 361.439 63.064 361.439 60.652C361.439 58.132 363.383 56.836 366.407 55.828L371.051 54.28V52.408C371.051 49.24 369.539 47.944 366.983 47.944C365.579 47.944 364.103 48.484 363.059 49.204C363.275 50.716 364.679 51.04 364.679 52.444C364.679 53.452 363.923 54.172 362.879 54.172C361.691 54.172 360.899 53.236 360.899 51.868C360.899 49.06 364.391 46.504 367.631 46.504C370.835 46.504 372.923 48.232 372.923 52.084V60.58C372.923 62.308 373.463 62.668 374.327 62.668C375.371 62.668 375.767 61.876 376.199 60.076ZM366.299 62.848C367.955 62.848 369.791 61.624 371.051 59.032V55.468L367.235 56.8C365.003 57.592 363.527 58.456 363.527 60.328C363.527 61.948 364.499 62.848 366.299 62.848ZM388.505 46.504C389.801 46.504 390.665 47.44 390.665 48.52C390.665 49.672 389.837 50.5 388.901 50.5C387.641 50.5 387.677 49.168 386.705 48.7C385.445 49.636 384.293 51.508 383.285 54.46V60.724C383.285 62.884 383.465 62.992 386.813 63.172V64H378.569V63.172C381.017 62.956 381.413 62.596 381.413 60.724V50.572C381.413 48.52 381.017 48.304 378.569 48.304V47.62L382.565 46.72H383.285V52.552C384.401 49.42 386.597 46.504 388.505 46.504ZM406.82 60.076C406.82 62.56 407.396 62.992 410.06 63.172V64H405.452L405.056 63.676L404.948 61.048C403.508 63.424 401.816 64.504 399.512 64.504C395.372 64.504 392.78 61.12 392.78 55.972C392.78 49.708 395.84 46.504 400.34 46.504C402.032 46.504 403.904 47.044 404.948 48.304V42.292C404.948 40.42 404.444 40.204 401.384 40.204V39.52L406.1 38.44H406.82V60.076ZM399.944 62.596C401.816 62.596 403.328 61.768 404.948 59.716V52.516C404.948 49.528 402.932 47.656 400.196 47.656C396.74 47.656 394.868 50.32 394.868 55.216C394.868 59.896 396.812 62.596 399.944 62.596ZM426.717 53.632H414.585C414.549 54.064 414.513 54.532 414.513 55C414.513 59.824 417.033 62.236 420.453 62.236C423.189 62.236 424.845 60.832 425.637 58.744L426.393 58.996C425.565 62.272 423.909 64.504 420.201 64.504C415.665 64.504 412.749 61.192 412.749 55.612C412.749 50.104 415.917 46.504 420.345 46.504C424.485 46.504 426.753 49.528 426.717 53.632ZM420.201 47.656C417.825 47.656 415.521 49.204 414.765 52.552H424.557C424.557 49.96 423.405 47.656 420.201 47.656ZM443.98 60.076C443.98 62.56 444.556 62.992 447.22 63.172V64H442.612L442.216 63.676L442.108 61.048C440.668 63.424 438.976 64.504 436.672 64.504C432.532 64.504 429.94 61.12 429.94 55.972C429.94 49.708 433 46.504 437.5 46.504C439.192 46.504 441.064 47.044 442.108 48.304V42.292C442.108 40.42 441.604 40.204 438.544 40.204V39.52L443.26 38.44H443.98V60.076ZM437.104 62.596C438.976 62.596 440.488 61.768 442.108 59.716V52.516C442.108 49.528 440.092 47.656 437.356 47.656C433.9 47.656 432.028 50.32 432.028 55.216C432.028 59.896 433.972 62.596 437.104 62.596ZM465.483 62.236C464.163 62.212 462.879 62.104 461.631 61.912C460.383 61.696 459.375 61.408 458.607 61.048V57.988C459.423 58.372 460.467 58.708 461.739 58.996C463.011 59.284 464.259 59.44 465.483 59.464V52.192C464.307 51.856 463.275 51.496 462.387 51.112C461.523 50.704 460.815 50.248 460.263 49.744C459.711 49.24 459.291 48.664 459.003 48.016C458.739 47.344 458.607 46.576 458.607 45.712C458.607 44.536 458.883 43.528 459.435 42.688C460.011 41.848 460.815 41.188 461.847 40.708C462.879 40.204 464.091 39.916 465.483 39.844V36.676H467.787V39.808C469.059 39.832 470.211 39.976 471.243 40.24C472.299 40.48 473.259 40.78 474.123 41.14L473.151 43.804C472.383 43.492 471.531 43.228 470.595 43.012C469.683 42.772 468.747 42.616 467.787 42.544V49.78C469.371 50.236 470.691 50.728 471.747 51.256C472.803 51.76 473.595 52.396 474.123 53.164C474.675 53.908 474.951 54.88 474.951 56.08C474.951 57.76 474.327 59.128 473.079 60.184C471.831 61.216 470.067 61.852 467.787 62.092V66.088H465.483V62.236ZM467.787 59.284C469.203 59.14 470.235 58.816 470.883 58.312C471.531 57.784 471.855 57.112 471.855 56.296C471.855 55.696 471.735 55.204 471.495 54.82C471.255 54.412 470.835 54.064 470.235 53.776C469.659 53.488 468.843 53.212 467.787 52.948V59.284ZM465.483 42.616C464.619 42.664 463.911 42.82 463.359 43.084C462.807 43.324 462.387 43.648 462.099 44.056C461.835 44.464 461.703 44.932 461.703 45.46C461.703 46.084 461.811 46.624 462.027 47.08C462.267 47.512 462.663 47.884 463.215 48.196C463.767 48.484 464.523 48.748 465.483 48.988V42.616ZM485.365 39.52V60.904C485.365 62.848 485.941 63.1 489.397 63.208V64H479.317V63.208C482.881 63.1 483.493 62.848 483.493 60.904V41.428L479.605 44.092V42.22L483.493 39.52H485.365ZM506.42 55.432H507.5V64H492.704V61.984L496.736 58.024C501.848 52.984 504.62 50.032 504.62 46.216C504.62 42.94 502.424 40.78 499.184 40.78C495.656 40.78 493.64 42.94 493.352 46.936H492.272C492.272 41.788 494.828 39.016 499.652 39.016C504.152 39.016 506.924 41.752 506.924 45.892C506.924 50.14 504.512 52.552 498.248 58.528L494.612 61.984H502.604C505.664 61.984 506.132 61.516 506.42 55.432ZM511.836 68.716V67.96C514.068 67.924 515.472 66.052 515.364 63.676C514.932 64.072 514.392 64.216 513.852 64.216C512.736 64.216 511.98 63.532 511.98 62.452C511.98 61.3 512.844 60.544 514.032 60.544C515.472 60.544 516.3 61.84 516.3 63.712C516.3 66.664 514.536 68.716 511.836 68.716ZM529.64 39.016C535.22 39.016 538.28 43.552 538.28 51.76C538.28 59.968 535.22 64.504 529.64 64.504C524.024 64.504 520.964 60.004 520.964 51.76C520.964 43.516 524.024 39.016 529.64 39.016ZM529.64 41.32C525.14 41.32 522.188 45.46 522.188 51.76C522.188 58.06 525.14 62.2 529.64 62.2C534.14 62.2 537.056 58.06 537.056 51.76C537.056 45.46 534.14 41.32 529.64 41.32ZM550.558 39.016C556.138 39.016 559.198 43.552 559.198 51.76C559.198 59.968 556.138 64.504 550.558 64.504C544.942 64.504 541.882 60.004 541.882 51.76C541.882 43.516 544.942 39.016 550.558 39.016ZM550.558 41.32C546.058 41.32 543.106 45.46 543.106 51.76C543.106 58.06 546.058 62.2 550.558 62.2C555.058 62.2 557.974 58.06 557.974 51.76C557.974 45.46 555.058 41.32 550.558 41.32ZM571.476 39.016C577.056 39.016 580.116 43.552 580.116 51.76C580.116 59.968 577.056 64.504 571.476 64.504C565.86 64.504 562.8 60.004 562.8 51.76C562.8 43.516 565.86 39.016 571.476 39.016ZM571.476 41.32C566.976 41.32 564.024 45.46 564.024 51.76C564.024 58.06 566.976 62.2 571.476 62.2C575.976 62.2 578.892 58.06 578.892 51.76C578.892 45.46 575.976 41.32 571.476 41.32ZM595.152 42.94C594.108 42.94 593.316 42.148 593.316 41.068C593.316 39.988 594.108 39.196 595.152 39.196C596.196 39.196 596.988 39.988 596.988 41.068C596.988 42.148 596.196 42.94 595.152 42.94ZM599.148 64H591.264V63.172C594 62.956 594.288 62.74 594.288 60.724V50.572C594.288 48.52 593.892 48.304 591.264 48.304V47.62L595.44 46.72H596.16V60.724C596.16 62.74 596.412 62.956 599.148 63.172V64ZM617.082 52.552V60.724C617.082 62.704 617.334 62.956 619.71 63.172V64H612.222V63.172C614.958 62.992 615.21 62.812 615.21 60.724V53.164C615.21 50.068 613.77 48.304 611.178 48.304C609.27 48.304 607.794 49.204 606.21 51.292V60.724C606.21 62.74 606.462 62.956 609.018 63.172V64H601.494V63.172C604.05 62.956 604.338 62.74 604.338 60.724V50.572C604.338 48.52 603.942 48.304 601.494 48.304V47.62L605.49 46.72H606.21V49.96C607.65 47.584 609.378 46.504 611.682 46.504C615.03 46.504 617.082 48.808 617.082 52.552ZM640.659 46.936H647.247V48.736H643.251C644.007 49.672 644.403 50.896 644.403 52.3C644.403 55.792 641.847 58.096 637.995 58.096C636.735 58.096 635.619 57.844 634.683 57.412C633.135 58.276 632.559 59.248 632.559 60.148C632.559 61.444 633.675 62.092 635.763 62.092H642.567C645.771 62.092 647.247 63.604 647.247 65.98C647.247 69.688 643.647 71.776 638.427 71.776C633.423 71.776 630.327 69.832 630.327 67.096C630.327 65.584 631.263 64.54 632.955 63.568C631.695 63.028 630.939 61.948 630.939 60.616C630.939 59.068 631.947 57.916 633.819 56.908C632.415 55.9 631.587 54.28 631.587 52.3C631.587 48.808 634.143 46.504 637.995 46.504C638.967 46.504 639.867 46.648 640.659 46.936ZM638.139 56.944C640.407 56.944 642.351 55.612 642.351 52.588C642.351 49.888 640.803 47.656 637.851 47.656C635.583 47.656 633.639 48.988 633.639 52.012C633.639 54.712 635.187 56.944 638.139 56.944ZM641.847 63.964H635.079C634.611 63.964 634.143 63.928 633.747 63.82C632.775 64.828 632.415 65.728 632.415 66.808C632.415 69.292 634.683 70.624 638.499 70.624C642.675 70.624 645.447 69.22 645.447 66.7C645.447 65.008 644.223 63.964 641.847 63.964ZM659.876 46.504C661.172 46.504 662.036 47.44 662.036 48.52C662.036 49.672 661.208 50.5 660.272 50.5C659.012 50.5 659.048 49.168 658.076 48.7C656.816 49.636 655.664 51.508 654.656 54.46V60.724C654.656 62.884 654.836 62.992 658.184 63.172V64H649.94V63.172C652.388 62.956 652.784 62.596 652.784 60.724V50.572C652.784 48.52 652.388 48.304 649.94 48.304V47.62L653.936 46.72H654.656V52.552C655.772 49.42 657.968 46.504 659.876 46.504ZM680.055 60.076L680.811 60.292C680.379 62.776 679.767 64.36 677.679 64.36C675.987 64.36 674.907 63.28 674.907 60.868V60.58C673.683 63.244 671.811 64.504 669.615 64.504C667.023 64.504 665.295 63.064 665.295 60.652C665.295 58.132 667.239 56.836 670.263 55.828L674.907 54.28V52.408C674.907 49.24 673.395 47.944 670.839 47.944C669.435 47.944 667.959 48.484 666.915 49.204C667.131 50.716 668.535 51.04 668.535 52.444C668.535 53.452 667.779 54.172 666.735 54.172C665.547 54.172 664.755 53.236 664.755 51.868C664.755 49.06 668.247 46.504 671.487 46.504C674.691 46.504 676.779 48.232 676.779 52.084V60.58C676.779 62.308 677.319 62.668 678.183 62.668C679.227 62.668 679.623 61.876 680.055 60.076ZM670.155 62.848C671.811 62.848 673.647 61.624 674.907 59.032V55.468L671.091 56.8C668.859 57.592 667.383 58.456 667.383 60.328C667.383 61.948 668.355 62.848 670.155 62.848ZM698.012 52.552V60.724C698.012 62.704 698.264 62.956 700.64 63.172V64H693.152V63.172C695.888 62.992 696.14 62.812 696.14 60.724V53.164C696.14 50.068 694.7 48.304 692.108 48.304C690.2 48.304 688.724 49.204 687.14 51.292V60.724C687.14 62.74 687.392 62.956 689.948 63.172V64H682.424V63.172C684.98 62.956 685.268 62.74 685.268 60.724V50.572C685.268 48.52 684.872 48.304 682.424 48.304V47.62L686.42 46.72H687.14V49.96C688.58 47.584 690.308 46.504 692.612 46.504C695.96 46.504 698.012 48.808 698.012 52.552ZM713.939 61.012L714.587 61.588C713.075 63.64 711.923 64.36 710.159 64.36C707.603 64.36 706.127 62.74 706.127 59.968V48.736H702.455V47.728C705.047 47.512 706.451 46.54 706.991 43.912H707.999V46.936H713.435V48.736H707.999V59.644C707.999 61.624 709.007 62.704 710.555 62.704C711.779 62.704 712.751 62.236 713.939 61.012ZM722.965 64.504C721.057 64.504 719.077 64.036 717.637 63.208L717.457 58.42H718.537C718.861 61.876 720.517 63.352 723.109 63.352C725.521 63.352 726.817 62.344 726.817 60.544C726.817 59.068 726.097 58.06 724.225 57.196L721.309 55.828C719.041 54.784 717.637 53.38 717.637 51.184C717.637 48.232 719.941 46.504 723.433 46.504C725.341 46.504 727.213 46.972 728.653 47.8L728.833 51.976H727.753C727.429 49.132 725.845 47.656 723.181 47.656C720.913 47.656 719.473 48.664 719.473 50.5C719.473 51.94 720.265 53.02 722.137 53.884L725.053 55.252C727.393 56.332 728.653 57.484 728.653 59.896C728.653 62.848 726.529 64.504 722.965 64.504ZM321.384 106.012L322.032 106.588C320.52 108.64 319.368 109.36 317.604 109.36C315.048 109.36 313.572 107.74 313.572 104.968V93.736H309.9V92.728C312.492 92.512 313.896 91.54 314.436 88.912H315.444V91.936H320.88V93.736H315.444V104.644C315.444 106.624 316.452 107.704 318 107.704C319.224 107.704 320.196 107.236 321.384 106.012ZM331.863 109.504C327.219 109.504 324.015 105.832 324.015 100.54C324.015 95.212 327.291 91.504 332.007 91.504C336.651 91.504 339.855 95.176 339.855 100.468C339.855 105.796 336.579 109.504 331.863 109.504ZM332.043 108.352C334.527 108.352 337.587 106.696 337.587 100.936C337.587 96.796 335.823 92.656 331.827 92.656C329.343 92.656 326.283 94.312 326.283 100.072C326.283 104.212 328.047 108.352 332.043 108.352ZM359.542 95.068C364.402 95.068 367.354 97.696 367.354 102.304C367.354 106.588 364.078 109.504 359.254 109.504C354.61 109.504 351.55 107.704 351.55 104.968C351.55 103.636 352.306 102.772 353.494 102.772C354.394 102.772 355.006 103.24 355.15 104.032C355.33 105.04 355.15 106.3 355.33 107.56C356.41 108.1 357.562 108.352 359.038 108.352C362.89 108.352 365.374 106.156 365.374 102.736C365.374 99.028 363.25 97.192 358.858 97.192C357.85 97.192 356.77 97.3 355.546 97.48V95.356L364.258 86.536H356.554C353.71 86.536 353.422 87.004 353.242 91.936H352.162V84.52H366.202V86.536L357.49 95.212C358.21 95.104 358.894 95.068 359.542 95.068ZM387.833 91.504C391.757 91.504 394.385 94.816 394.385 100.036C394.385 106.048 391.433 109.504 386.897 109.504C384.665 109.504 383.477 108.892 382.217 107.848V113.068C382.217 115.12 382.793 115.516 386.141 115.588V116.416H377.501V115.588C379.985 115.516 380.345 115.156 380.345 113.068V95.572C380.345 93.52 379.949 93.304 377.501 93.304V92.62L381.497 91.72H382.217V94.96C383.657 92.584 385.493 91.504 387.833 91.504ZM387.113 108.352C390.317 108.352 392.297 105.796 392.297 100.792C392.297 96.184 390.389 93.412 387.293 93.412C385.421 93.412 383.873 94.24 382.217 96.292V102.412C382.217 106.516 384.017 108.352 387.113 108.352ZM407.208 91.504C408.504 91.504 409.368 92.44 409.368 93.52C409.368 94.672 408.54 95.5 407.604 95.5C406.344 95.5 406.38 94.168 405.408 93.7C404.148 94.636 402.996 96.508 401.988 99.46V105.724C401.988 107.884 402.168 107.992 405.516 108.172V109H397.272V108.172C399.72 107.956 400.116 107.596 400.116 105.724V95.572C400.116 93.52 399.72 93.304 397.272 93.304V92.62L401.268 91.72H401.988V97.552C403.104 94.42 405.3 91.504 407.208 91.504ZM419.331 109.504C414.687 109.504 411.483 105.832 411.483 100.54C411.483 95.212 414.759 91.504 419.475 91.504C424.119 91.504 427.323 95.176 427.323 100.468C427.323 105.796 424.047 109.504 419.331 109.504ZM419.511 108.352C421.995 108.352 425.055 106.696 425.055 100.936C425.055 96.796 423.291 92.656 419.295 92.656C416.811 92.656 413.751 94.312 413.751 100.072C413.751 104.212 415.515 108.352 419.511 108.352ZM434.785 87.94C433.741 87.94 432.949 87.148 432.949 86.068C432.949 84.988 433.741 84.196 434.785 84.196C435.829 84.196 436.621 84.988 436.621 86.068C436.621 87.148 435.829 87.94 434.785 87.94ZM430.897 116.776C428.593 116.776 427.333 115.84 427.333 114.292C427.333 113.212 428.017 112.636 429.025 112.636C430.681 112.636 430.393 114.4 431.581 115.804C433.345 115.444 434.065 112.384 434.065 107.596V95.176C434.065 93.52 433.597 93.304 429.997 93.304V92.62L435.217 91.72H435.937V107.164C435.937 112.996 434.209 116.776 430.897 116.776ZM455.123 98.632H442.991C442.955 99.064 442.919 99.532 442.919 100C442.919 104.824 445.439 107.236 448.859 107.236C451.595 107.236 453.251 105.832 454.043 103.744L454.799 103.996C453.971 107.272 452.315 109.504 448.607 109.504C444.071 109.504 441.155 106.192 441.155 100.612C441.155 95.104 444.323 91.504 448.751 91.504C452.891 91.504 455.159 94.528 455.123 98.632ZM448.607 92.656C446.231 92.656 443.927 94.204 443.171 97.552H452.963C452.963 94.96 451.811 92.656 448.607 92.656ZM465.727 109.504C461.263 109.504 458.347 106.192 458.347 100.9C458.347 95.212 461.443 91.504 466.303 91.504C469.471 91.504 471.919 93.34 471.919 95.896C471.919 97.336 471.163 98.308 469.975 98.308C468.967 98.308 468.211 97.624 468.211 96.508C468.211 95.284 469.147 94.78 469.507 93.664C468.535 92.908 467.599 92.62 466.231 92.62C462.847 92.62 460.111 95.464 460.111 100C460.111 104.824 462.631 107.236 466.051 107.236C468.751 107.236 470.443 105.832 471.235 103.744L471.991 103.996C471.163 107.272 469.471 109.504 465.727 109.504ZM485.986 106.012L486.634 106.588C485.122 108.64 483.97 109.36 482.206 109.36C479.65 109.36 478.174 107.74 478.174 104.968V93.736H474.502V92.728C477.094 92.512 478.498 91.54 479.038 88.912H480.046V91.936H485.482V93.736H480.046V104.644C480.046 106.624 481.054 107.704 482.602 107.704C483.826 107.704 484.798 107.236 485.986 106.012ZM495.011 109.504C493.103 109.504 491.123 109.036 489.683 108.208L489.503 103.42H490.583C490.907 106.876 492.563 108.352 495.155 108.352C497.567 108.352 498.863 107.344 498.863 105.544C498.863 104.068 498.143 103.06 496.271 102.196L493.355 100.828C491.087 99.784 489.683 98.38 489.683 96.184C489.683 93.232 491.987 91.504 495.479 91.504C497.387 91.504 499.259 91.972 500.699 92.8L500.879 96.976H499.799C499.475 94.132 497.891 92.656 495.227 92.656C492.959 92.656 491.519 93.664 491.519 95.5C491.519 96.94 492.311 98.02 494.183 98.884L497.099 100.252C499.439 101.332 500.699 102.484 500.699 104.896C500.699 107.848 498.575 109.504 495.011 109.504Z" fill="black"/>
<mask id="path-4-inside-2_1258_4183" fill="white">
<path d="M95 156H692V464H95V156Z"/>
</mask>
<path d="M95 156H692V464H95V156Z" fill="url(#paint1_linear_1258_4183)"/>
<path d="M95 156V155H94V156H95ZM692 156H693V155H692V156ZM95 157H692V155H95V157ZM691 156V464H693V156H691ZM96 464V156H94V464H96Z" fill="black" mask="url(#path-4-inside-2_1258_4183)"/>
<path d="M159.472 240.504C151.948 240.504 146.98 235.428 146.98 227.904C146.98 220.272 151.984 215.016 159.724 215.016C164.116 215.016 166.42 216.492 167.176 216.492C167.572 216.492 167.788 216.168 167.968 215.34H169.048V223.152H167.968C166.888 218.22 164.332 216.24 159.76 216.24C153.28 216.24 149.428 220.38 149.428 227.58C149.428 234.816 153.424 239.28 159.652 239.28C164.836 239.28 167.32 237.192 168.508 231.432H169.588L169.336 238.236C166.6 239.676 163.036 240.504 159.472 240.504ZM187.342 229.632H175.21C175.174 230.064 175.138 230.532 175.138 231C175.138 235.824 177.658 238.236 181.078 238.236C183.814 238.236 185.47 236.832 186.262 234.744L187.018 234.996C186.19 238.272 184.534 240.504 180.826 240.504C176.29 240.504 173.374 237.192 173.374 231.612C173.374 226.104 176.542 222.504 180.97 222.504C185.11 222.504 187.378 225.528 187.342 229.632ZM180.826 223.656C178.45 223.656 176.146 225.204 175.39 228.552H185.182C185.182 225.96 184.03 223.656 180.826 223.656ZM195.029 237.012C195.029 238.884 195.317 238.992 198.017 239.172V240H190.205V239.172C192.401 238.992 193.157 238.884 193.157 237.012V218.292C193.157 216.42 192.761 216.204 190.313 216.204V215.52L194.309 214.44H195.029V237.012ZM208.749 240.504C204.105 240.504 200.901 236.832 200.901 231.54C200.901 226.212 204.177 222.504 208.893 222.504C213.537 222.504 216.741 226.176 216.741 231.468C216.741 236.796 213.465 240.504 208.749 240.504ZM208.929 239.352C211.413 239.352 214.473 237.696 214.473 231.936C214.473 227.796 212.709 223.656 208.713 223.656C206.229 223.656 203.169 225.312 203.169 231.072C203.169 235.212 204.933 239.352 208.929 239.352ZM240.929 240.504C233.405 240.504 228.437 235.428 228.437 227.904C228.437 220.272 233.441 215.016 241.181 215.016C245.573 215.016 247.877 216.492 248.633 216.492C249.029 216.492 249.245 216.168 249.425 215.34H250.505V223.152H249.425C248.345 218.22 245.789 216.24 241.217 216.24C234.737 216.24 230.885 220.38 230.885 227.58C230.885 234.816 234.881 239.28 241.109 239.28C246.293 239.28 248.777 237.192 249.965 231.432H251.045L250.793 238.236C248.057 239.676 244.493 240.504 240.929 240.504ZM270.383 236.076L271.139 236.292C270.707 238.776 270.095 240.36 268.007 240.36C266.315 240.36 265.235 239.28 265.235 236.868V236.58C264.011 239.244 262.139 240.504 259.943 240.504C257.351 240.504 255.623 239.064 255.623 236.652C255.623 234.132 257.567 232.836 260.591 231.828L265.235 230.28V228.408C265.235 225.24 263.723 223.944 261.167 223.944C259.763 223.944 258.287 224.484 257.243 225.204C257.459 226.716 258.863 227.04 258.863 228.444C258.863 229.452 258.107 230.172 257.063 230.172C255.875 230.172 255.083 229.236 255.083 227.868C255.083 225.06 258.575 222.504 261.815 222.504C265.019 222.504 267.107 224.232 267.107 228.084V236.58C267.107 238.308 267.647 238.668 268.511 238.668C269.555 238.668 269.951 237.876 270.383 236.076ZM260.483 238.848C262.139 238.848 263.975 237.624 265.235 235.032V231.468L261.419 232.8C259.187 233.592 257.711 234.456 257.711 236.328C257.711 237.948 258.683 238.848 260.483 238.848ZM297.052 228.012V236.616C297.052 238.776 297.304 238.992 299.68 239.172V240H292.552V239.172C294.892 238.992 295.18 238.74 295.18 236.616V228.264C295.18 225.6 293.992 224.304 291.616 224.304C289.816 224.304 288.448 225.168 287.224 226.968C287.26 227.292 287.26 227.616 287.26 227.976V236.616C287.26 238.812 287.44 238.992 289.816 239.172V240H282.94V239.172C285.172 238.992 285.388 238.776 285.388 236.616V228.192C285.388 225.708 284.164 224.304 282.04 224.304C280.168 224.304 278.728 225.24 277.468 227.22V236.724C277.468 238.74 277.72 238.956 280.276 239.172V240H272.752V239.172C275.308 238.956 275.596 238.74 275.596 236.724V226.572C275.596 224.52 275.2 224.304 272.752 224.304V223.62L276.748 222.72H277.468V225.96C278.44 223.728 280.168 222.504 282.364 222.504C284.884 222.504 286.468 223.656 287.044 225.924C288.052 223.692 289.744 222.504 291.976 222.504C295.288 222.504 297.052 224.412 297.052 228.012ZM311.829 222.504C315.753 222.504 318.381 225.816 318.381 231.036C318.381 237.048 315.429 240.504 310.893 240.504C308.661 240.504 307.473 239.892 306.213 238.848V244.068C306.213 246.12 306.789 246.516 310.137 246.588V247.416H301.497V246.588C303.981 246.516 304.341 246.156 304.341 244.068V226.572C304.341 224.52 303.945 224.304 301.497 224.304V223.62L305.493 222.72H306.213V225.96C307.653 223.584 309.489 222.504 311.829 222.504ZM311.109 239.352C314.313 239.352 316.293 236.796 316.293 231.792C316.293 227.184 314.385 224.412 311.289 224.412C309.417 224.412 307.869 225.24 306.213 227.292V233.412C306.213 237.516 308.013 239.352 311.109 239.352ZM340.586 215.196L348.614 234.78C349.91 237.912 350.738 238.92 352.142 239.064V240H344.042V239.064C346.238 239.028 347.21 238.56 347.21 237.3C347.21 236.688 346.994 235.896 346.562 234.852L345.194 231.504H334.898L333.71 234.42C333.242 235.608 332.99 236.544 332.99 237.228C332.99 238.524 333.89 239.028 335.942 239.064V240H328.814V239.064C330.146 238.92 330.866 237.948 332.234 234.6L339.254 217.068L338.498 215.196H340.586ZM339.974 218.832L335.366 230.352H344.726L339.974 218.832ZM361.527 240.504C357.063 240.504 354.147 237.192 354.147 231.9C354.147 226.212 357.243 222.504 362.103 222.504C365.271 222.504 367.719 224.34 367.719 226.896C367.719 228.336 366.963 229.308 365.775 229.308C364.767 229.308 364.011 228.624 364.011 227.508C364.011 226.284 364.947 225.78 365.307 224.664C364.335 223.908 363.399 223.62 362.031 223.62C358.647 223.62 355.911 226.464 355.911 231C355.911 235.824 358.431 238.236 361.851 238.236C364.551 238.236 366.243 236.832 367.035 234.744L367.791 234.996C366.963 238.272 365.271 240.504 361.527 240.504ZM378.402 240.504C373.938 240.504 371.022 237.192 371.022 231.9C371.022 226.212 374.118 222.504 378.978 222.504C382.146 222.504 384.594 224.34 384.594 226.896C384.594 228.336 383.838 229.308 382.65 229.308C381.642 229.308 380.886 228.624 380.886 227.508C380.886 226.284 381.822 225.78 382.182 224.664C381.21 223.908 380.274 223.62 378.906 223.62C375.522 223.62 372.786 226.464 372.786 231C372.786 235.824 375.306 238.236 378.726 238.236C381.426 238.236 383.118 236.832 383.91 234.744L384.666 234.996C383.838 238.272 382.146 240.504 378.402 240.504ZM401.865 229.632H389.733C389.697 230.064 389.661 230.532 389.661 231C389.661 235.824 392.181 238.236 395.601 238.236C398.337 238.236 399.993 236.832 400.785 234.744L401.541 234.996C400.713 238.272 399.057 240.504 395.349 240.504C390.813 240.504 387.897 237.192 387.897 231.612C387.897 226.104 391.065 222.504 395.493 222.504C399.633 222.504 401.901 225.528 401.865 229.632ZM395.349 223.656C392.973 223.656 390.669 225.204 389.913 228.552H399.705C399.705 225.96 398.553 223.656 395.349 223.656ZM409.553 237.012C409.553 238.884 409.841 238.992 412.541 239.172V240H404.729V239.172C406.925 238.992 407.681 238.884 407.681 237.012V218.292C407.681 216.42 407.285 216.204 404.837 216.204V215.52L408.833 214.44H409.553V237.012ZM429.393 229.632H417.261C417.225 230.064 417.189 230.532 417.189 231C417.189 235.824 419.709 238.236 423.129 238.236C425.865 238.236 427.521 236.832 428.313 234.744L429.069 234.996C428.241 238.272 426.585 240.504 422.877 240.504C418.341 240.504 415.425 237.192 415.425 231.612C415.425 226.104 418.593 222.504 423.021 222.504C427.161 222.504 429.429 225.528 429.393 229.632ZM422.877 223.656C420.501 223.656 418.197 225.204 417.441 228.552H427.233C427.233 225.96 426.081 223.656 422.877 223.656ZM442.192 222.504C443.488 222.504 444.352 223.44 444.352 224.52C444.352 225.672 443.524 226.5 442.588 226.5C441.328 226.5 441.364 225.168 440.392 224.7C439.132 225.636 437.98 227.508 436.972 230.46V236.724C436.972 238.884 437.152 238.992 440.5 239.172V240H432.256V239.172C434.704 238.956 435.1 238.596 435.1 236.724V226.572C435.1 224.52 434.704 224.304 432.256 224.304V223.62L436.252 222.72H436.972V228.552C438.088 225.42 440.284 222.504 442.192 222.504ZM462.371 236.076L463.127 236.292C462.695 238.776 462.083 240.36 459.995 240.36C458.303 240.36 457.223 239.28 457.223 236.868V236.58C455.999 239.244 454.127 240.504 451.931 240.504C449.339 240.504 447.611 239.064 447.611 236.652C447.611 234.132 449.555 232.836 452.579 231.828L457.223 230.28V228.408C457.223 225.24 455.711 223.944 453.155 223.944C451.751 223.944 450.275 224.484 449.231 225.204C449.447 226.716 450.851 227.04 450.851 228.444C450.851 229.452 450.095 230.172 449.051 230.172C447.863 230.172 447.071 229.236 447.071 227.868C447.071 225.06 450.563 222.504 453.803 222.504C457.007 222.504 459.095 224.232 459.095 228.084V236.58C459.095 238.308 459.635 238.668 460.499 238.668C461.543 238.668 461.939 237.876 462.371 236.076ZM452.471 238.848C454.127 238.848 455.963 237.624 457.223 235.032V231.468L453.407 232.8C451.175 233.592 449.699 234.456 449.699 236.328C449.699 237.948 450.671 238.848 452.471 238.848ZM475.689 237.012L476.337 237.588C474.825 239.64 473.673 240.36 471.909 240.36C469.353 240.36 467.877 238.74 467.877 235.968V224.736H464.205V223.728C466.797 223.512 468.201 222.54 468.741 219.912H469.749V222.936H475.185V224.736H469.749V235.644C469.749 237.624 470.757 238.704 472.305 238.704C473.529 238.704 474.501 238.236 475.689 237.012ZM486.167 240.504C481.523 240.504 478.319 236.832 478.319 231.54C478.319 226.212 481.595 222.504 486.311 222.504C490.955 222.504 494.159 226.176 494.159 231.468C494.159 236.796 490.883 240.504 486.167 240.504ZM486.347 239.352C488.831 239.352 491.891 237.696 491.891 231.936C491.891 227.796 490.127 223.656 486.131 223.656C483.647 223.656 480.587 225.312 480.587 231.072C480.587 235.212 482.351 239.352 486.347 239.352ZM506.985 222.504C508.281 222.504 509.145 223.44 509.145 224.52C509.145 225.672 508.317 226.5 507.381 226.5C506.121 226.5 506.157 225.168 505.185 224.7C503.925 225.636 502.773 227.508 501.765 230.46V236.724C501.765 238.884 501.945 238.992 505.293 239.172V240H497.049V239.172C499.497 238.956 499.893 238.596 499.893 236.724V226.572C499.893 224.52 499.497 224.304 497.049 224.304V223.62L501.045 222.72H501.765V228.552C502.881 225.42 505.077 222.504 506.985 222.504ZM146.8 260.52H157.852C163.216 260.52 165.808 262.464 165.808 266.712C165.808 270.852 162.496 273.264 156.952 273.264H152.2V280.5C152.2 283.344 152.992 283.956 156.952 284.064V285H146.8V284.064C149.788 284.028 150.256 283.56 150.256 280.932V264.588C150.256 261.96 149.788 261.492 146.8 261.456V260.52ZM152.2 272.256H156.592C160.948 272.256 163.504 270.276 163.504 266.712C163.504 263.04 161.668 261.528 157.492 261.528H152.2V272.256ZM177.887 267.504C179.183 267.504 180.047 268.44 180.047 269.52C180.047 270.672 179.219 271.5 178.283 271.5C177.023 271.5 177.059 270.168 176.087 269.7C174.827 270.636 173.675 272.508 172.667 275.46V281.724C172.667 283.884 172.847 283.992 176.195 284.172V285H167.951V284.172C170.399 283.956 170.795 283.596 170.795 281.724V271.572C170.795 269.52 170.399 269.304 167.951 269.304V268.62L171.947 267.72H172.667V273.552C173.783 270.42 175.979 267.504 177.887 267.504ZM190.011 285.504C185.367 285.504 182.163 281.832 182.163 276.54C182.163 271.212 185.439 267.504 190.155 267.504C194.799 267.504 198.003 271.176 198.003 276.468C198.003 281.796 194.727 285.504 190.011 285.504ZM190.191 284.352C192.675 284.352 195.735 282.696 195.735 276.936C195.735 272.796 193.971 268.656 189.975 268.656C187.491 268.656 184.431 270.312 184.431 276.072C184.431 280.212 186.195 284.352 190.191 284.352ZM211.405 267.936H217.993V269.736H213.997C214.753 270.672 215.149 271.896 215.149 273.3C215.149 276.792 212.593 279.096 208.741 279.096C207.481 279.096 206.365 278.844 205.429 278.412C203.881 279.276 203.305 280.248 203.305 281.148C203.305 282.444 204.421 283.092 206.509 283.092H213.313C216.517 283.092 217.993 284.604 217.993 286.98C217.993 290.688 214.393 292.776 209.173 292.776C204.169 292.776 201.073 290.832 201.073 288.096C201.073 286.584 202.009 285.54 203.701 284.568C202.441 284.028 201.685 282.948 201.685 281.616C201.685 280.068 202.693 278.916 204.565 277.908C203.161 276.9 202.333 275.28 202.333 273.3C202.333 269.808 204.889 267.504 208.741 267.504C209.713 267.504 210.613 267.648 211.405 267.936ZM208.885 277.944C211.153 277.944 213.097 276.612 213.097 273.588C213.097 270.888 211.549 268.656 208.597 268.656C206.329 268.656 204.385 269.988 204.385 273.012C204.385 275.712 205.933 277.944 208.885 277.944ZM212.593 284.964H205.825C205.357 284.964 204.889 284.928 204.493 284.82C203.521 285.828 203.161 286.728 203.161 287.808C203.161 290.292 205.429 291.624 209.245 291.624C213.421 291.624 216.193 290.22 216.193 287.7C216.193 286.008 214.969 284.964 212.593 284.964ZM230.622 267.504C231.918 267.504 232.782 268.44 232.782 269.52C232.782 270.672 231.954 271.5 231.018 271.5C229.758 271.5 229.794 270.168 228.822 269.7C227.562 270.636 226.41 272.508 225.402 275.46V281.724C225.402 283.884 225.582 283.992 228.93 284.172V285H220.686V284.172C223.134 283.956 223.53 283.596 223.53 281.724V271.572C223.53 269.52 223.134 269.304 220.686 269.304V268.62L224.682 267.72H225.402V273.552C226.518 270.42 228.714 267.504 230.622 267.504ZM250.801 281.076L251.557 281.292C251.125 283.776 250.513 285.36 248.425 285.36C246.733 285.36 245.653 284.28 245.653 281.868V281.58C244.429 284.244 242.557 285.504 240.361 285.504C237.769 285.504 236.041 284.064 236.041 281.652C236.041 279.132 237.985 277.836 241.009 276.828L245.653 275.28V273.408C245.653 270.24 244.141 268.944 241.585 268.944C240.181 268.944 238.705 269.484 237.661 270.204C237.877 271.716 239.281 272.04 239.281 273.444C239.281 274.452 238.525 275.172 237.481 275.172C236.293 275.172 235.501 274.236 235.501 272.868C235.501 270.06 238.993 267.504 242.233 267.504C245.437 267.504 247.525 269.232 247.525 273.084V281.58C247.525 283.308 248.065 283.668 248.929 283.668C249.973 283.668 250.369 282.876 250.801 281.076ZM240.901 283.848C242.557 283.848 244.393 282.624 245.653 280.032V276.468L241.837 277.8C239.605 278.592 238.129 279.456 238.129 281.328C238.129 282.948 239.101 283.848 240.901 283.848ZM277.47 273.012V281.616C277.47 283.776 277.722 283.992 280.098 284.172V285H272.97V284.172C275.31 283.992 275.598 283.74 275.598 281.616V273.264C275.598 270.6 274.41 269.304 272.034 269.304C270.234 269.304 268.866 270.168 267.642 271.968C267.678 272.292 267.678 272.616 267.678 272.976V281.616C267.678 283.812 267.858 283.992 270.234 284.172V285H263.358V284.172C265.59 283.992 265.806 283.776 265.806 281.616V273.192C265.806 270.708 264.582 269.304 262.458 269.304C260.586 269.304 259.146 270.24 257.886 272.22V281.724C257.886 283.74 258.138 283.956 260.694 284.172V285H253.17V284.172C255.726 283.956 256.014 283.74 256.014 281.724V271.572C256.014 269.52 255.618 269.304 253.17 269.304V268.62L257.166 267.72H257.886V270.96C258.858 268.728 260.586 267.504 262.782 267.504C265.302 267.504 266.886 268.656 267.462 270.924C268.47 268.692 270.162 267.504 272.394 267.504C275.706 267.504 277.47 269.412 277.47 273.012Z" fill="black"/>
<mask id="path-7-inside-3_1258_4183" fill="white">
<path d="M0 311H504V463H0V311Z"/>
</mask>
<path d="M0 311H504V463H0V311Z" fill="url(#paint2_linear_1258_4183)"/>
<path d="M0 311V310H-1V311H0ZM504 311H505V310H504V311ZM0 312H504V310H0V312ZM503 311V463H505V311H503ZM1 463V311H-1V463H1Z" fill="black" mask="url(#path-7-inside-3_1258_4183)"/>
<path d="M64.492 350.196L72.52 369.78C73.816 372.912 74.644 373.92 76.048 374.064V375H67.948V374.064C70.144 374.028 71.116 373.56 71.116 372.3C71.116 371.688 70.9 370.896 70.468 369.852L69.1 366.504H58.804L57.616 369.42C57.148 370.608 56.896 371.544 56.896 372.228C56.896 373.524 57.796 374.028 59.848 374.064V375H52.72V374.064C54.052 373.92 54.772 372.948 56.14 369.6L63.16 352.068L62.404 350.196H64.492ZM63.88 353.832L59.272 365.352H68.632L63.88 353.832ZM88.2551 372.012L88.9031 372.588C87.3911 374.64 86.2391 375.36 84.4751 375.36C81.9191 375.36 80.4431 373.74 80.4431 370.968V359.736H76.7711V358.728C79.3631 358.512 80.7671 357.54 81.3071 354.912H82.3151V357.936H87.7511V359.736H82.3151V370.644C82.3151 372.624 83.3231 373.704 84.8711 373.704C86.0951 373.704 87.0671 373.236 88.2551 372.012ZM102.177 372.012L102.825 372.588C101.313 374.64 100.161 375.36 98.397 375.36C95.841 375.36 94.365 373.74 94.365 370.968V359.736H90.693V358.728C93.285 358.512 94.689 357.54 95.229 354.912H96.237V357.936H101.673V359.736H96.237V370.644C96.237 372.624 97.245 373.704 98.793 373.704C100.017 373.704 100.989 373.236 102.177 372.012ZM114.911 357.504C116.207 357.504 117.071 358.44 117.071 359.52C117.071 360.672 116.243 361.5 115.307 361.5C114.047 361.5 114.083 360.168 113.111 359.7C111.851 360.636 110.699 362.508 109.691 365.46V371.724C109.691 373.884 109.871 373.992 113.219 374.172V375H104.975V374.172C107.423 373.956 107.819 373.596 107.819 371.724V361.572C107.819 359.52 107.423 359.304 104.975 359.304V358.62L108.971 357.72H109.691V363.552C110.807 360.42 113.003 357.504 114.911 357.504ZM135.09 371.076L135.846 371.292C135.414 373.776 134.802 375.36 132.714 375.36C131.022 375.36 129.942 374.28 129.942 371.868V371.58C128.718 374.244 126.846 375.504 124.65 375.504C122.058 375.504 120.33 374.064 120.33 371.652C120.33 369.132 122.274 367.836 125.298 366.828L129.942 365.28V363.408C129.942 360.24 128.43 358.944 125.874 358.944C124.47 358.944 122.994 359.484 121.95 360.204C122.166 361.716 123.57 362.04 123.57 363.444C123.57 364.452 122.814 365.172 121.77 365.172C120.582 365.172 119.79 364.236 119.79 362.868C119.79 360.06 123.282 357.504 126.522 357.504C129.726 357.504 131.814 359.232 131.814 363.084V371.58C131.814 373.308 132.354 373.668 133.218 373.668C134.262 373.668 134.658 372.876 135.09 371.076ZM125.19 373.848C126.846 373.848 128.682 372.624 129.942 370.032V366.468L126.126 367.8C123.894 368.592 122.418 369.456 122.418 371.328C122.418 372.948 123.39 373.848 125.19 373.848ZM145.199 375.504C140.735 375.504 137.819 372.192 137.819 366.9C137.819 361.212 140.915 357.504 145.775 357.504C148.943 357.504 151.391 359.34 151.391 361.896C151.391 363.336 150.635 364.308 149.447 364.308C148.439 364.308 147.683 363.624 147.683 362.508C147.683 361.284 148.619 360.78 148.979 359.664C148.007 358.908 147.071 358.62 145.703 358.62C142.319 358.62 139.583 361.464 139.583 366C139.583 370.824 142.103 373.236 145.523 373.236C148.223 373.236 149.915 371.832 150.707 369.744L151.463 369.996C150.635 373.272 148.943 375.504 145.199 375.504ZM165.458 372.012L166.106 372.588C164.594 374.64 163.442 375.36 161.678 375.36C159.122 375.36 157.646 373.74 157.646 370.968V359.736H153.974V358.728C156.566 358.512 157.97 357.54 158.51 354.912H159.518V357.936H164.954V359.736H159.518V370.644C159.518 372.624 160.526 373.704 162.074 373.704C163.298 373.704 164.27 373.236 165.458 372.012ZM182.057 364.632H169.925C169.889 365.064 169.853 365.532 169.853 366C169.853 370.824 172.373 373.236 175.793 373.236C178.529 373.236 180.185 371.832 180.977 369.744L181.733 369.996C180.905 373.272 179.249 375.504 175.541 375.504C171.005 375.504 168.089 372.192 168.089 366.612C168.089 361.104 171.257 357.504 175.685 357.504C179.825 357.504 182.093 360.528 182.057 364.632ZM175.541 358.656C173.165 358.656 170.861 360.204 170.105 363.552H179.897C179.897 360.96 178.745 358.656 175.541 358.656ZM199.32 371.076C199.32 373.56 199.896 373.992 202.56 374.172V375H197.952L197.556 374.676L197.448 372.048C196.008 374.424 194.316 375.504 192.012 375.504C187.872 375.504 185.28 372.12 185.28 366.972C185.28 360.708 188.34 357.504 192.84 357.504C194.532 357.504 196.404 358.044 197.448 359.304V353.292C197.448 351.42 196.944 351.204 193.884 351.204V350.52L198.6 349.44H199.32V371.076ZM192.444 373.596C194.316 373.596 195.828 372.768 197.448 370.716V363.516C197.448 360.528 195.432 358.656 192.696 358.656C189.24 358.656 187.368 361.32 187.368 366.216C187.368 370.896 189.312 373.596 192.444 373.596ZM226.007 375.504C219.131 375.504 213.695 370.536 213.695 362.76C213.695 354.984 219.131 350.016 226.007 350.016C232.883 350.016 238.319 354.984 238.319 362.76C238.319 370.536 232.883 375.504 226.007 375.504ZM226.007 374.28C231.911 374.28 235.871 369.636 235.871 362.76C235.871 355.884 231.911 351.24 226.007 351.24C220.103 351.24 216.143 355.884 216.143 362.76C216.143 369.636 220.103 374.28 226.007 374.28ZM252.285 358.764V357.936H257.685V358.764C256.785 358.872 256.569 359.052 255.813 360.924L250.197 375.216H248.757L243.033 361.248C242.133 359.088 241.845 358.836 241.017 358.764V357.936H247.353V358.764C245.445 358.8 244.869 359.124 244.869 359.916C244.869 360.276 245.013 360.924 245.517 362.184L249.801 372.948L254.121 361.896C254.517 360.924 254.733 360.276 254.733 359.808C254.733 358.98 254.013 358.8 252.285 358.764ZM273.639 364.632H261.507C261.471 365.064 261.435 365.532 261.435 366C261.435 370.824 263.955 373.236 267.375 373.236C270.111 373.236 271.767 371.832 272.559 369.744L273.315 369.996C272.487 373.272 270.831 375.504 267.123 375.504C262.587 375.504 259.671 372.192 259.671 366.612C259.671 361.104 262.839 357.504 267.267 357.504C271.407 357.504 273.675 360.528 273.639 364.632ZM267.123 358.656C264.747 358.656 262.443 360.204 261.687 363.552H271.479C271.479 360.96 270.327 358.656 267.123 358.656ZM286.438 357.504C287.734 357.504 288.598 358.44 288.598 359.52C288.598 360.672 287.77 361.5 286.834 361.5C285.574 361.5 285.61 360.168 284.638 359.7C283.378 360.636 282.226 362.508 281.218 365.46V371.724C281.218 373.884 281.398 373.992 284.746 374.172V375H276.502V374.172C278.95 373.956 279.346 373.596 279.346 371.724V361.572C279.346 359.52 278.95 359.304 276.502 359.304V358.62L280.498 357.72H281.218V363.552C282.334 360.42 284.53 357.504 286.438 357.504ZM60.388 395.52V416.904C60.388 418.848 60.964 419.1 64.42 419.208V420H54.34V419.208C57.904 419.1 58.516 418.848 58.516 416.904V397.428L54.628 400.092V398.22L58.516 395.52H60.388ZM76.5385 395.016C82.1185 395.016 85.1785 399.552 85.1785 407.76C85.1785 415.968 82.1185 420.504 76.5385 420.504C70.9225 420.504 67.8625 416.004 67.8625 407.76C67.8625 399.516 70.9225 395.016 76.5385 395.016ZM76.5385 397.32C72.0385 397.32 69.0865 401.46 69.0865 407.76C69.0865 414.06 72.0385 418.2 76.5385 418.2C81.0385 418.2 83.9545 414.06 83.9545 407.76C83.9545 401.46 81.0385 397.32 76.5385 397.32ZM105.074 420.504C101.618 420.504 99.7104 419.028 99.0984 419.028C98.8104 419.028 98.5944 419.424 98.4864 420.18H97.4064V411.432H98.4864C98.7384 416.724 100.898 419.28 105.146 419.28C108.638 419.28 110.546 417.696 110.546 414.996C110.546 412.476 109.466 410.964 106.406 409.452L102.878 407.688C99.2424 405.888 97.7664 403.8 97.7664 400.812C97.7664 397.176 100.61 395.016 105.074 395.016C108.602 395.016 110.15 396.492 110.762 396.492C111.05 396.492 111.266 396.096 111.374 395.34H112.454V403.152H111.374C111.086 398.328 109.25 396.24 105.002 396.24C101.762 396.24 99.7104 397.752 99.7104 400.38C99.7104 402.576 100.682 404.124 103.886 405.744L107.558 407.58C110.942 409.272 112.454 411.18 112.454 414.24C112.454 418.164 109.754 420.504 105.074 420.504ZM127.173 417.012L127.821 417.588C126.309 419.64 125.157 420.36 123.393 420.36C120.837 420.36 119.361 418.74 119.361 415.968V404.736H115.689V403.728C118.281 403.512 119.685 402.54 120.225 399.912H121.233V402.936H126.669V404.736H121.233V415.644C121.233 417.624 122.241 418.704 123.789 418.704C125.013 418.704 125.985 418.236 127.173 417.012ZM139.907 402.504C141.203 402.504 142.067 403.44 142.067 404.52C142.067 405.672 141.239 406.5 140.303 406.5C139.043 406.5 139.079 405.168 138.107 404.7C136.847 405.636 135.695 407.508 134.687 410.46V416.724C134.687 418.884 134.867 418.992 138.215 419.172V420H129.971V419.172C132.419 418.956 132.815 418.596 132.815 416.724V406.572C132.815 404.52 132.419 404.304 129.971 404.304V403.62L133.967 402.72H134.687V408.552C135.803 405.42 137.999 402.504 139.907 402.504ZM152.031 420.504C147.387 420.504 144.183 416.832 144.183 411.54C144.183 406.212 147.459 402.504 152.175 402.504C156.819 402.504 160.023 406.176 160.023 411.468C160.023 416.796 156.747 420.504 152.031 420.504ZM152.211 419.352C154.695 419.352 157.755 417.696 157.755 411.936C157.755 407.796 155.991 403.656 151.995 403.656C149.511 403.656 146.451 405.312 146.451 411.072C146.451 415.212 148.215 419.352 152.211 419.352ZM178.5 408.552V416.724C178.5 418.704 178.752 418.956 181.128 419.172V420H173.64V419.172C176.376 418.992 176.628 418.812 176.628 416.724V409.164C176.628 406.068 175.188 404.304 172.596 404.304C170.688 404.304 169.212 405.204 167.628 407.292V416.724C167.628 418.74 167.88 418.956 170.436 419.172V420H162.912V419.172C165.468 418.956 165.756 418.74 165.756 416.724V406.572C165.756 404.52 165.36 404.304 162.912 404.304V403.62L166.908 402.72H167.628V405.96C169.068 403.584 170.796 402.504 173.1 402.504C176.448 402.504 178.5 404.808 178.5 408.552ZM193.991 402.936H200.579V404.736H196.583C197.339 405.672 197.735 406.896 197.735 408.3C197.735 411.792 195.179 414.096 191.327 414.096C190.067 414.096 188.951 413.844 188.015 413.412C186.467 414.276 185.891 415.248 185.891 416.148C185.891 417.444 187.007 418.092 189.095 418.092H195.899C199.103 418.092 200.579 419.604 200.579 421.98C200.579 425.688 196.979 427.776 191.759 427.776C186.755 427.776 183.659 425.832 183.659 423.096C183.659 421.584 184.595 420.54 186.287 419.568C185.027 419.028 184.271 417.948 184.271 416.616C184.271 415.068 185.279 413.916 187.151 412.908C185.747 411.9 184.919 410.28 184.919 408.3C184.919 404.808 187.475 402.504 191.327 402.504C192.299 402.504 193.199 402.648 193.991 402.936ZM191.471 412.944C193.739 412.944 195.683 411.612 195.683 408.588C195.683 405.888 194.135 403.656 191.183 403.656C188.915 403.656 186.971 404.988 186.971 408.012C186.971 410.712 188.519 412.944 191.471 412.944ZM195.179 419.964H188.411C187.943 419.964 187.475 419.928 187.079 419.82C186.107 420.828 185.747 421.728 185.747 422.808C185.747 425.292 188.015 426.624 191.831 426.624C196.007 426.624 198.779 425.22 198.779 422.7C198.779 421.008 197.555 419.964 195.179 419.964ZM211.898 395.52H222.95C228.314 395.52 230.906 397.464 230.906 401.712C230.906 405.852 227.594 408.264 222.05 408.264H217.298V415.5C217.298 418.344 218.09 418.956 222.05 419.064V420H211.898V419.064C214.886 419.028 215.354 418.56 215.354 415.932V399.588C215.354 396.96 214.886 396.492 211.898 396.456V395.52ZM217.298 407.256H221.69C226.046 407.256 228.602 405.276 228.602 401.712C228.602 398.04 226.766 396.528 222.59 396.528H217.298V407.256ZM242.985 402.504C244.281 402.504 245.145 403.44 245.145 404.52C245.145 405.672 244.317 406.5 243.381 406.5C242.121 406.5 242.157 405.168 241.185 404.7C239.925 405.636 238.773 407.508 237.765 410.46V416.724C237.765 418.884 237.945 418.992 241.293 419.172V420H233.049V419.172C235.497 418.956 235.893 418.596 235.893 416.724V406.572C235.893 404.52 235.497 404.304 233.049 404.304V403.62L237.045 402.72H237.765V408.552C238.881 405.42 241.077 402.504 242.985 402.504ZM255.109 420.504C250.465 420.504 247.261 416.832 247.261 411.54C247.261 406.212 250.537 402.504 255.253 402.504C259.897 402.504 263.101 406.176 263.101 411.468C263.101 416.796 259.825 420.504 255.109 420.504ZM255.289 419.352C257.773 419.352 260.833 417.696 260.833 411.936C260.833 407.796 259.069 403.656 255.073 403.656C252.589 403.656 249.529 405.312 249.529 411.072C249.529 415.212 251.293 419.352 255.289 419.352ZM270.562 398.94C269.518 398.94 268.726 398.148 268.726 397.068C268.726 395.988 269.518 395.196 270.562 395.196C271.606 395.196 272.398 395.988 272.398 397.068C272.398 398.148 271.606 398.94 270.562 398.94ZM266.674 427.776C264.37 427.776 263.11 426.84 263.11 425.292C263.11 424.212 263.794 423.636 264.802 423.636C266.458 423.636 266.17 425.4 267.358 426.804C269.122 426.444 269.842 423.384 269.842 418.596V406.176C269.842 404.52 269.374 404.304 265.774 404.304V403.62L270.994 402.72H271.714V418.164C271.714 423.996 269.986 427.776 266.674 427.776ZM290.901 409.632H278.769C278.733 410.064 278.697 410.532 278.697 411C278.697 415.824 281.217 418.236 284.637 418.236C287.373 418.236 289.029 416.832 289.821 414.744L290.577 414.996C289.749 418.272 288.093 420.504 284.385 420.504C279.849 420.504 276.933 417.192 276.933 411.612C276.933 406.104 280.101 402.504 284.529 402.504C288.669 402.504 290.937 405.528 290.901 409.632ZM284.385 403.656C282.009 403.656 279.705 405.204 278.949 408.552H288.741C288.741 405.96 287.589 403.656 284.385 403.656ZM301.504 420.504C297.04 420.504 294.124 417.192 294.124 411.9C294.124 406.212 297.22 402.504 302.08 402.504C305.248 402.504 307.696 404.34 307.696 406.896C307.696 408.336 306.94 409.308 305.752 409.308C304.744 409.308 303.988 408.624 303.988 407.508C303.988 406.284 304.924 405.78 305.284 404.664C304.312 403.908 303.376 403.62 302.008 403.62C298.624 403.62 295.888 406.464 295.888 411C295.888 415.824 298.408 418.236 301.828 418.236C304.528 418.236 306.22 416.832 307.012 414.744L307.768 414.996C306.94 418.272 305.248 420.504 301.504 420.504ZM321.763 417.012L322.411 417.588C320.899 419.64 319.747 420.36 317.983 420.36C315.427 420.36 313.951 418.74 313.951 415.968V404.736H310.279V403.728C312.871 403.512 314.275 402.54 314.815 399.912H315.823V402.936H321.259V404.736H315.823V415.644C315.823 417.624 316.831 418.704 318.379 418.704C319.603 418.704 320.575 418.236 321.763 417.012ZM330.789 420.504C328.881 420.504 326.901 420.036 325.461 419.208L325.281 414.42H326.361C326.685 417.876 328.341 419.352 330.933 419.352C333.345 419.352 334.641 418.344 334.641 416.544C334.641 415.068 333.921 414.06 332.049 413.196L329.133 411.828C326.865 410.784 325.461 409.38 325.461 407.184C325.461 404.232 327.765 402.504 331.257 402.504C333.165 402.504 335.037 402.972 336.477 403.8L336.657 407.976H335.577C335.253 405.132 333.669 403.656 331.005 403.656C328.737 403.656 327.297 404.664 327.297 406.5C327.297 407.94 328.089 409.02 329.961 409.884L332.877 411.252C335.217 412.332 336.477 413.484 336.477 415.896C336.477 418.848 334.353 420.504 330.789 420.504Z" fill="black"/>
<mask id="path-10-inside-4_1258_4183" fill="white">
<path d="M821 240H1324V467H821V240Z"/>
</mask>
<path d="M821 240H1324V467H821V240Z" fill="url(#paint3_linear_1258_4183)"/>
<path d="M821 240V239H820V240H821ZM1324 240H1325V239H1324V240ZM821 241H1324V239H821V241ZM1323 240V467H1325V240H1323ZM822 467V240H820V467H822Z" fill="black" mask="url(#path-10-inside-4_1258_4183)"/>
<path d="M881.008 304.504C877.552 304.504 875.644 303.028 875.032 303.028C874.744 303.028 874.528 303.424 874.42 304.18H873.34V295.432H874.42C874.672 300.724 876.832 303.28 881.08 303.28C884.572 303.28 886.48 301.696 886.48 298.996C886.48 296.476 885.4 294.964 882.34 293.452L878.812 291.688C875.176 289.888 873.7 287.8 873.7 284.812C873.7 281.176 876.544 279.016 881.008 279.016C884.536 279.016 886.084 280.492 886.696 280.492C886.984 280.492 887.2 280.096 887.308 279.34H888.388V287.152H887.308C887.02 282.328 885.184 280.24 880.936 280.24C877.696 280.24 875.644 281.752 875.644 284.38C875.644 286.576 876.616 288.124 879.82 289.744L883.492 291.58C886.876 293.272 888.388 295.18 888.388 298.24C888.388 302.164 885.688 304.504 881.008 304.504ZM906.311 286.936V300.328C906.311 302.56 906.887 302.956 909.083 302.956V303.712L904.943 304.216L904.439 303.82V301.048C902.999 303.424 901.343 304.504 899.039 304.504C895.979 304.504 893.891 302.344 893.891 298.456V290.068C893.891 288.232 893.279 287.836 891.803 287.692V286.936H895.763V298.132C895.763 301.156 897.383 302.704 899.543 302.704C901.451 302.704 902.855 301.804 904.439 299.716V290.392C904.439 288.124 903.683 287.908 901.775 287.692V286.936H906.311ZM918.988 304.504C914.524 304.504 911.608 301.192 911.608 295.9C911.608 290.212 914.704 286.504 919.564 286.504C922.732 286.504 925.18 288.34 925.18 290.896C925.18 292.336 924.424 293.308 923.236 293.308C922.228 293.308 921.472 292.624 921.472 291.508C921.472 290.284 922.408 289.78 922.768 288.664C921.796 287.908 920.86 287.62 919.492 287.62C916.108 287.62 913.372 290.464 913.372 295C913.372 299.824 915.892 302.236 919.312 302.236C922.012 302.236 923.704 300.832 924.496 298.744L925.252 298.996C924.424 302.272 922.732 304.504 918.988 304.504ZM935.863 304.504C931.399 304.504 928.483 301.192 928.483 295.9C928.483 290.212 931.579 286.504 936.439 286.504C939.607 286.504 942.055 288.34 942.055 290.896C942.055 292.336 941.299 293.308 940.111 293.308C939.103 293.308 938.347 292.624 938.347 291.508C938.347 290.284 939.283 289.78 939.643 288.664C938.671 287.908 937.735 287.62 936.367 287.62C932.983 287.62 930.247 290.464 930.247 295C930.247 299.824 932.767 302.236 936.187 302.236C938.887 302.236 940.579 300.832 941.371 298.744L942.127 298.996C941.299 302.272 939.607 304.504 935.863 304.504ZM959.326 293.632H947.194C947.158 294.064 947.122 294.532 947.122 295C947.122 299.824 949.642 302.236 953.062 302.236C955.798 302.236 957.454 300.832 958.246 298.744L959.002 298.996C958.174 302.272 956.518 304.504 952.81 304.504C948.274 304.504 945.358 301.192 945.358 295.612C945.358 290.104 948.526 286.504 952.954 286.504C957.094 286.504 959.362 289.528 959.326 293.632ZM952.81 287.656C950.434 287.656 948.13 289.204 947.374 292.552H957.166C957.166 289.96 956.014 287.656 952.81 287.656ZM968.418 304.504C966.51 304.504 964.53 304.036 963.09 303.208L962.91 298.42H963.99C964.314 301.876 965.97 303.352 968.562 303.352C970.974 303.352 972.27 302.344 972.27 300.544C972.27 299.068 971.55 298.06 969.678 297.196L966.762 295.828C964.494 294.784 963.09 293.38 963.09 291.184C963.09 288.232 965.394 286.504 968.886 286.504C970.794 286.504 972.666 286.972 974.106 287.8L974.286 291.976H973.206C972.882 289.132 971.298 287.656 968.634 287.656C966.366 287.656 964.926 288.664 964.926 290.5C964.926 291.94 965.718 293.02 967.59 293.884L970.506 295.252C972.846 296.332 974.106 297.484 974.106 299.896C974.106 302.848 971.982 304.504 968.418 304.504ZM983.746 304.504C981.838 304.504 979.858 304.036 978.418 303.208L978.238 298.42H979.318C979.642 301.876 981.298 303.352 983.89 303.352C986.302 303.352 987.598 302.344 987.598 300.544C987.598 299.068 986.878 298.06 985.006 297.196L982.09 295.828C979.822 294.784 978.418 293.38 978.418 291.184C978.418 288.232 980.722 286.504 984.214 286.504C986.122 286.504 987.994 286.972 989.434 287.8L989.614 291.976H988.534C988.21 289.132 986.626 287.656 983.962 287.656C981.694 287.656 980.254 288.664 980.254 290.5C980.254 291.94 981.046 293.02 982.918 293.884L985.834 295.252C988.174 296.332 989.434 297.484 989.434 299.896C989.434 302.848 987.31 304.504 983.746 304.504ZM1004.15 278.08C1007.1 278.08 1008.87 279.196 1008.87 281.032C1008.87 282.076 1008.15 282.796 1007.1 282.796C1006.38 282.796 1005.88 282.436 1005.52 281.644C1005.19 280.924 1005.16 279.952 1004.69 279.304C1004.51 279.196 1004.15 279.16 1003.54 279.16C1000.41 279.16 998.21 282.076 998.21 286.216V286.936H1003.11V288.736H998.246V300.112C998.246 302.56 998.894 302.992 1003.11 303.172V304H992.846V303.172C995.906 303.028 996.374 302.596 996.374 300.112V288.736H992.846V287.944L996.374 287.044C996.554 281.356 999.398 278.08 1004.15 278.08ZM1020.32 286.936V300.328C1020.32 302.56 1020.9 302.956 1023.09 302.956V303.712L1018.95 304.216L1018.45 303.82V301.048C1017.01 303.424 1015.35 304.504 1013.05 304.504C1009.99 304.504 1007.9 302.344 1007.9 298.456V290.068C1007.9 288.232 1007.29 287.836 1005.81 287.692V286.936H1009.77V298.132C1009.77 301.156 1011.39 302.704 1013.55 302.704C1015.46 302.704 1016.87 301.804 1018.45 299.716V290.392C1018.45 288.124 1017.69 287.908 1015.79 287.692V286.936H1020.32ZM1030.08 301.012C1030.08 302.884 1030.37 302.992 1033.07 303.172V304H1025.26V303.172C1027.46 302.992 1028.21 302.884 1028.21 301.012V282.292C1028.21 280.42 1027.82 280.204 1025.37 280.204V279.52L1029.36 278.44H1030.08V301.012ZM1040.42 301.012C1040.42 302.884 1040.71 302.992 1043.41 303.172V304H1035.6V303.172C1037.79 302.992 1038.55 302.884 1038.55 301.012V282.292C1038.55 280.42 1038.15 280.204 1035.7 280.204V279.52L1039.7 278.44H1040.42V301.012ZM1056.12 287.764V286.936H1061.81V287.764C1060.94 287.836 1060.51 288.412 1059.5 290.86L1053.82 304.54C1051.48 310.192 1050 311.74 1047.37 311.74C1045.39 311.74 1044.13 310.696 1044.13 309.184C1044.13 308.068 1044.82 307.42 1045.93 307.42C1047.59 307.42 1047.44 309.256 1048.7 310.3C1049.82 309.868 1051.12 307.852 1052.7 304.108L1053.06 303.244L1047.84 290.572C1046.98 288.448 1046.47 287.836 1045.5 287.764V286.936H1052.12V287.764C1050.43 287.836 1049.82 288.196 1049.82 289.168C1049.82 289.852 1049.93 290.284 1050.43 291.508L1054.1 300.724L1058.28 290.68C1058.6 289.852 1058.75 289.384 1058.75 289.024C1058.75 288.196 1057.92 287.8 1056.12 287.764ZM1076.7 301.012C1076.7 302.884 1076.99 302.992 1079.69 303.172V304H1071.88V303.172C1074.07 302.992 1074.83 302.884 1074.83 301.012V282.292C1074.83 280.42 1074.43 280.204 1071.99 280.204V279.52L1075.98 278.44H1076.7V301.012ZM1097.95 300.076L1098.71 300.292C1098.27 302.776 1097.66 304.36 1095.57 304.36C1093.88 304.36 1092.8 303.28 1092.8 300.868V300.58C1091.58 303.244 1089.71 304.504 1087.51 304.504C1084.92 304.504 1083.19 303.064 1083.19 300.652C1083.19 298.132 1085.13 296.836 1088.16 295.828L1092.8 294.28V292.408C1092.8 289.24 1091.29 287.944 1088.73 287.944C1087.33 287.944 1085.85 288.484 1084.81 289.204C1085.03 290.716 1086.43 291.04 1086.43 292.444C1086.43 293.452 1085.67 294.172 1084.63 294.172C1083.44 294.172 1082.65 293.236 1082.65 291.868C1082.65 289.06 1086.14 286.504 1089.38 286.504C1092.59 286.504 1094.67 288.232 1094.67 292.084V300.58C1094.67 302.308 1095.21 302.668 1096.08 302.668C1097.12 302.668 1097.52 301.876 1097.95 300.076ZM1088.05 302.848C1089.71 302.848 1091.54 301.624 1092.8 299.032V295.468L1088.99 296.8C1086.75 297.592 1085.28 298.456 1085.28 300.328C1085.28 301.948 1086.25 302.848 1088.05 302.848ZM1114.65 286.936V300.328C1114.65 302.56 1115.22 302.956 1117.42 302.956V303.712L1113.28 304.216L1112.77 303.82V301.048C1111.33 303.424 1109.68 304.504 1107.37 304.504C1104.31 304.504 1102.23 302.344 1102.23 298.456V290.068C1102.23 288.232 1101.61 287.836 1100.14 287.692V286.936H1104.1V298.132C1104.1 301.156 1105.72 302.704 1107.88 302.704C1109.79 302.704 1111.19 301.804 1112.77 299.716V290.392C1112.77 288.124 1112.02 287.908 1110.11 287.692V286.936H1114.65ZM1135.17 292.552V300.724C1135.17 302.704 1135.42 302.956 1137.8 303.172V304H1130.31V303.172C1133.05 302.992 1133.3 302.812 1133.3 300.724V293.164C1133.3 290.068 1131.86 288.304 1129.27 288.304C1127.36 288.304 1125.88 289.204 1124.3 291.292V300.724C1124.3 302.74 1124.55 302.956 1127.11 303.172V304H1119.58V303.172C1122.14 302.956 1122.43 302.74 1122.43 300.724V290.572C1122.43 288.52 1122.03 288.304 1119.58 288.304V287.62L1123.58 286.72H1124.3V289.96C1125.74 287.584 1127.47 286.504 1129.77 286.504C1133.12 286.504 1135.17 288.808 1135.17 292.552ZM1147.89 304.504C1143.43 304.504 1140.51 301.192 1140.51 295.9C1140.51 290.212 1143.61 286.504 1148.47 286.504C1151.63 286.504 1154.08 288.34 1154.08 290.896C1154.08 292.336 1153.33 293.308 1152.14 293.308C1151.13 293.308 1150.37 292.624 1150.37 291.508C1150.37 290.284 1151.31 289.78 1151.67 288.664C1150.7 287.908 1149.76 287.62 1148.39 287.62C1145.01 287.62 1142.27 290.464 1142.27 295C1142.27 299.824 1144.79 302.236 1148.21 302.236C1150.91 302.236 1152.61 300.832 1153.4 298.744L1154.15 298.996C1153.33 302.272 1151.63 304.504 1147.89 304.504ZM1172.61 292.552V300.724C1172.61 302.704 1172.87 302.956 1175.24 303.172V304H1167.75V303.172C1170.49 302.992 1170.74 302.812 1170.74 300.724V293.164C1170.74 290.068 1169.3 288.304 1166.71 288.304C1164.8 288.304 1163.33 289.204 1161.74 291.292V300.868C1161.74 302.92 1161.96 302.992 1164.41 303.172V304H1157.03V303.172C1159.04 302.992 1159.87 302.884 1159.87 300.868V282.292C1159.87 280.42 1159.47 280.204 1157.03 280.204V279.52L1161.02 278.44H1161.74V289.96C1163.18 287.584 1164.91 286.504 1167.21 286.504C1170.56 286.504 1172.61 288.808 1172.61 292.552ZM1191.92 293.632H1179.79C1179.75 294.064 1179.72 294.532 1179.72 295C1179.72 299.824 1182.24 302.236 1185.66 302.236C1188.39 302.236 1190.05 300.832 1190.84 298.744L1191.6 298.996C1190.77 302.272 1189.11 304.504 1185.4 304.504C1180.87 304.504 1177.95 301.192 1177.95 295.612C1177.95 290.104 1181.12 286.504 1185.55 286.504C1189.69 286.504 1191.96 289.528 1191.92 293.632ZM1185.4 287.656C1183.03 287.656 1180.72 289.204 1179.97 292.552H1189.76C1189.76 289.96 1188.61 287.656 1185.4 287.656ZM1209.18 300.076C1209.18 302.56 1209.76 302.992 1212.42 303.172V304H1207.82L1207.42 303.676L1207.31 301.048C1205.87 303.424 1204.18 304.504 1201.88 304.504C1197.74 304.504 1195.14 301.12 1195.14 295.972C1195.14 289.708 1198.2 286.504 1202.7 286.504C1204.4 286.504 1206.27 287.044 1207.31 288.304V282.292C1207.31 280.42 1206.81 280.204 1203.75 280.204V279.52L1208.46 278.44H1209.18V300.076ZM1202.31 302.596C1204.18 302.596 1205.69 301.768 1207.31 299.716V292.516C1207.31 289.528 1205.3 287.656 1202.56 287.656C1199.1 287.656 1197.23 290.32 1197.23 295.216C1197.23 299.896 1199.18 302.596 1202.31 302.596ZM1238.75 300.076L1239.51 300.292C1239.07 302.776 1238.46 304.36 1236.37 304.36C1234.68 304.36 1233.6 303.28 1233.6 300.868V300.58C1232.38 303.244 1230.51 304.504 1228.31 304.504C1225.72 304.504 1223.99 303.064 1223.99 300.652C1223.99 298.132 1225.93 296.836 1228.96 295.828L1233.6 294.28V292.408C1233.6 289.24 1232.09 287.944 1229.53 287.944C1228.13 287.944 1226.65 288.484 1225.61 289.204C1225.83 290.716 1227.23 291.04 1227.23 292.444C1227.23 293.452 1226.47 294.172 1225.43 294.172C1224.24 294.172 1223.45 293.236 1223.45 291.868C1223.45 289.06 1226.94 286.504 1230.18 286.504C1233.39 286.504 1235.47 288.232 1235.47 292.084V300.58C1235.47 302.308 1236.01 302.668 1236.88 302.668C1237.92 302.668 1238.32 301.876 1238.75 300.076ZM1228.85 302.848C1230.51 302.848 1232.34 301.624 1233.6 299.032V295.468L1229.79 296.8C1227.55 297.592 1226.08 298.456 1226.08 300.328C1226.08 301.948 1227.05 302.848 1228.85 302.848ZM872.8 324.52H883.852C889.216 324.52 891.808 326.464 891.808 330.712C891.808 334.852 888.496 337.264 882.952 337.264H878.2V344.5C878.2 347.344 878.992 347.956 882.952 348.064V349H872.8V348.064C875.788 348.028 876.256 347.56 876.256 344.932V328.588C876.256 325.96 875.788 325.492 872.8 325.456V324.52ZM878.2 336.256H882.592C886.948 336.256 889.504 334.276 889.504 330.712C889.504 327.04 887.668 325.528 883.492 325.528H878.2V336.256ZM903.887 331.504C905.183 331.504 906.047 332.44 906.047 333.52C906.047 334.672 905.219 335.5 904.283 335.5C903.023 335.5 903.059 334.168 902.087 333.7C900.827 334.636 899.675 336.508 898.667 339.46V345.724C898.667 347.884 898.847 347.992 902.195 348.172V349H893.951V348.172C896.399 347.956 896.795 347.596 896.795 345.724V335.572C896.795 333.52 896.399 333.304 893.951 333.304V332.62L897.947 331.72H898.667V337.552C899.783 334.42 901.979 331.504 903.887 331.504ZM916.011 349.504C911.367 349.504 908.163 345.832 908.163 340.54C908.163 335.212 911.439 331.504 916.155 331.504C920.799 331.504 924.003 335.176 924.003 340.468C924.003 345.796 920.727 349.504 916.011 349.504ZM916.191 348.352C918.675 348.352 921.735 346.696 921.735 340.936C921.735 336.796 919.971 332.656 915.975 332.656C913.491 332.656 910.431 334.312 910.431 340.072C910.431 344.212 912.195 348.352 916.191 348.352ZM931.465 327.94C930.421 327.94 929.629 327.148 929.629 326.068C929.629 324.988 930.421 324.196 931.465 324.196C932.509 324.196 933.301 324.988 933.301 326.068C933.301 327.148 932.509 327.94 931.465 327.94ZM927.577 356.776C925.273 356.776 924.013 355.84 924.013 354.292C924.013 353.212 924.697 352.636 925.705 352.636C927.361 352.636 927.073 354.4 928.261 355.804C930.025 355.444 930.745 352.384 930.745 347.596V335.176C930.745 333.52 930.277 333.304 926.677 333.304V332.62L931.897 331.72H932.617V347.164C932.617 352.996 930.889 356.776 927.577 356.776ZM951.803 338.632H939.671C939.635 339.064 939.599 339.532 939.599 340C939.599 344.824 942.119 347.236 945.539 347.236C948.275 347.236 949.931 345.832 950.723 343.744L951.479 343.996C950.651 347.272 948.995 349.504 945.287 349.504C940.751 349.504 937.835 346.192 937.835 340.612C937.835 335.104 941.003 331.504 945.431 331.504C949.571 331.504 951.839 334.528 951.803 338.632ZM945.287 332.656C942.911 332.656 940.607 334.204 939.851 337.552H949.643C949.643 334.96 948.491 332.656 945.287 332.656ZM962.406 349.504C957.942 349.504 955.026 346.192 955.026 340.9C955.026 335.212 958.122 331.504 962.982 331.504C966.15 331.504 968.598 333.34 968.598 335.896C968.598 337.336 967.842 338.308 966.654 338.308C965.646 338.308 964.89 337.624 964.89 336.508C964.89 335.284 965.826 334.78 966.186 333.664C965.214 332.908 964.278 332.62 962.91 332.62C959.526 332.62 956.79 335.464 956.79 340C956.79 344.824 959.31 347.236 962.73 347.236C965.43 347.236 967.122 345.832 967.914 343.744L968.67 343.996C967.842 347.272 966.15 349.504 962.406 349.504ZM982.665 346.012L983.313 346.588C981.801 348.64 980.649 349.36 978.885 349.36C976.329 349.36 974.853 347.74 974.853 344.968V333.736H971.181V332.728C973.773 332.512 975.177 331.54 975.717 328.912H976.725V331.936H982.161V333.736H976.725V344.644C976.725 346.624 977.733 347.704 979.281 347.704C980.505 347.704 981.477 347.236 982.665 346.012ZM1001.76 349.504C997.113 349.504 993.909 345.832 993.909 340.54C993.909 335.212 997.185 331.504 1001.9 331.504C1006.55 331.504 1009.75 335.176 1009.75 340.468C1009.75 345.796 1006.47 349.504 1001.76 349.504ZM1001.94 348.352C1004.42 348.352 1007.48 346.696 1007.48 340.936C1007.48 336.796 1005.72 332.656 1001.72 332.656C999.237 332.656 996.177 334.312 996.177 340.072C996.177 344.212 997.941 348.352 1001.94 348.352ZM1028.23 337.552V345.724C1028.23 347.704 1028.48 347.956 1030.85 348.172V349H1023.37V348.172C1026.1 347.992 1026.35 347.812 1026.35 345.724V338.164C1026.35 335.068 1024.91 333.304 1022.32 333.304C1020.41 333.304 1018.94 334.204 1017.35 336.292V345.724C1017.35 347.74 1017.61 347.956 1020.16 348.172V349H1012.64V348.172C1015.19 347.956 1015.48 347.74 1015.48 345.724V335.572C1015.48 333.52 1015.09 333.304 1012.64 333.304V332.62L1016.63 331.72H1017.35V334.96C1018.79 332.584 1020.52 331.504 1022.83 331.504C1026.17 331.504 1028.23 333.808 1028.23 337.552ZM1067.46 329.02L1068.9 344.392C1069.19 347.488 1069.8 347.992 1072.25 348.064V349H1062.96V348.064C1066.6 347.992 1067.21 347.452 1066.92 344.212L1065.38 327.688L1057.46 349.072H1055.73L1047.63 327.76L1046.12 344.32C1045.83 347.524 1046.3 347.992 1050.04 348.064V349H1041.29V348.064C1043.88 347.992 1044.42 347.488 1044.71 344.32L1046.15 329.02C1046.44 325.852 1046.08 325.528 1043.2 325.456V324.52H1048.6L1056.88 346.624L1065.05 324.52H1070.52V325.456C1067.57 325.528 1067.18 325.924 1067.46 329.02ZM1078.65 327.94C1077.6 327.94 1076.81 327.148 1076.81 326.068C1076.81 324.988 1077.6 324.196 1078.65 324.196C1079.69 324.196 1080.48 324.988 1080.48 326.068C1080.48 327.148 1079.69 327.94 1078.65 327.94ZM1082.64 349H1074.76V348.172C1077.5 347.956 1077.78 347.74 1077.78 345.724V335.572C1077.78 333.52 1077.39 333.304 1074.76 333.304V332.62L1078.94 331.72H1079.66V345.724C1079.66 347.74 1079.91 347.956 1082.64 348.172V349ZM1100.58 337.552V345.724C1100.58 347.704 1100.83 347.956 1103.21 348.172V349H1095.72V348.172C1098.45 347.992 1098.71 347.812 1098.71 345.724V338.164C1098.71 335.068 1097.27 333.304 1094.67 333.304C1092.77 333.304 1091.29 334.204 1089.71 336.292V345.724C1089.71 347.74 1089.96 347.956 1092.51 348.172V349H1084.99V348.172C1087.55 347.956 1087.83 347.74 1087.83 345.724V335.572C1087.83 333.52 1087.44 333.304 1084.99 333.304V332.62L1088.99 331.72H1089.71V334.96C1091.15 332.584 1092.87 331.504 1095.18 331.504C1098.53 331.504 1100.58 333.808 1100.58 337.552ZM1109.44 327.94C1108.4 327.94 1107.61 327.148 1107.61 326.068C1107.61 324.988 1108.4 324.196 1109.44 324.196C1110.49 324.196 1111.28 324.988 1111.28 326.068C1111.28 327.148 1110.49 327.94 1109.44 327.94ZM1113.44 349H1105.56V348.172C1108.29 347.956 1108.58 347.74 1108.58 345.724V335.572C1108.58 333.52 1108.18 333.304 1105.56 333.304V332.62L1109.73 331.72H1110.45V345.724C1110.45 347.74 1110.7 347.956 1113.44 348.172V349ZM1125.58 331.504C1129.5 331.504 1132.13 334.816 1132.13 340.036C1132.13 346.048 1129.18 349.504 1124.64 349.504C1122.41 349.504 1121.22 348.892 1119.96 347.848V353.068C1119.96 355.12 1120.54 355.516 1123.89 355.588V356.416H1115.25V355.588C1117.73 355.516 1118.09 355.156 1118.09 353.068V335.572C1118.09 333.52 1117.7 333.304 1115.25 333.304V332.62L1119.24 331.72H1119.96V334.96C1121.4 332.584 1123.24 331.504 1125.58 331.504ZM1124.86 348.352C1128.06 348.352 1130.04 345.796 1130.04 340.792C1130.04 336.184 1128.14 333.412 1125.04 333.412C1123.17 333.412 1121.62 334.24 1119.96 336.292V342.412C1119.96 346.516 1121.76 348.352 1124.86 348.352ZM1150.93 345.076L1151.69 345.292C1151.25 347.776 1150.64 349.36 1148.55 349.36C1146.86 349.36 1145.78 348.28 1145.78 345.868V345.58C1144.56 348.244 1142.69 349.504 1140.49 349.504C1137.9 349.504 1136.17 348.064 1136.17 345.652C1136.17 343.132 1138.11 341.836 1141.14 340.828L1145.78 339.28V337.408C1145.78 334.24 1144.27 332.944 1141.71 332.944C1140.31 332.944 1138.83 333.484 1137.79 334.204C1138.01 335.716 1139.41 336.04 1139.41 337.444C1139.41 338.452 1138.65 339.172 1137.61 339.172C1136.42 339.172 1135.63 338.236 1135.63 336.868C1135.63 334.06 1139.12 331.504 1142.36 331.504C1145.57 331.504 1147.65 333.232 1147.65 337.084V345.58C1147.65 347.308 1148.19 347.668 1149.06 347.668C1150.1 347.668 1150.5 346.876 1150.93 345.076ZM1141.03 347.848C1142.69 347.848 1144.52 346.624 1145.78 344.032V340.468L1141.97 341.8C1139.73 342.592 1138.26 343.456 1138.26 345.328C1138.26 346.948 1139.23 347.848 1141.03 347.848ZM1162.57 332.764V331.936H1168.26V332.764C1167.4 332.836 1166.97 333.412 1165.96 335.86L1160.27 349.54C1157.93 355.192 1156.45 356.74 1153.83 356.74C1151.85 356.74 1150.58 355.696 1150.58 354.184C1150.58 353.068 1151.27 352.42 1152.39 352.42C1154.04 352.42 1153.9 354.256 1155.16 355.3C1156.27 354.868 1157.57 352.852 1159.15 349.108L1159.51 348.244L1154.29 335.572C1153.43 333.448 1152.93 332.836 1151.95 332.764V331.936H1158.58V332.764C1156.89 332.836 1156.27 333.196 1156.27 334.168C1156.27 334.852 1156.38 335.284 1156.89 336.508L1160.56 345.724L1164.73 335.68C1165.06 334.852 1165.2 334.384 1165.2 334.024C1165.2 333.196 1164.37 332.8 1162.57 332.764Z" fill="black"/>
<defs>
<linearGradient id="paint0_linear_1258_4183" x1="259" y1="232.5" x2="1022.06" y2="282.472" gradientUnits="userSpaceOnUse">
<stop stop-color="#FCF6F1"/>
<stop offset="1" stop-color="#E7E3D4"/>
</linearGradient>
<linearGradient id="paint1_linear_1258_4183" x1="95" y1="310" x2="684.926" y2="355.164" gradientUnits="userSpaceOnUse">
<stop stop-color="#FCF6F1"/>
<stop offset="1" stop-color="#E7E3D4"/>
</linearGradient>
<linearGradient id="paint2_linear_1258_4183" x1="5.75197e-07" y1="387" x2="492.5" y2="451.5" gradientUnits="userSpaceOnUse">
<stop stop-color="#FCF6F1"/>
<stop offset="1" stop-color="#E7E3D4"/>
</linearGradient>
<linearGradient id="paint3_linear_1258_4183" x1="821" y1="353.5" x2="1317.15" y2="396.923" gradientUnits="userSpaceOnUse">
<stop stop-color="#FCF6F1"/>
<stop offset="1" stop-color="#E7E3D4"/>
</linearGradient>
</defs>
</svg>
