<svg width="270" height="67" viewBox="0 0 270 67" fill="none" xmlns="http://www.w3.org/2000/svg">
<path d="M97.0306 15.0755C95.1995 14.0069 93.1735 13.4648 91.009 13.4648H80.4609V49.547H85.5465V37.0341H91.0116C93.1735 37.0341 95.1995 36.5024 97.028 35.4517C98.854 34.4036 100.326 32.9599 101.406 31.1591C102.488 29.3532 103.039 27.3752 103.039 25.2739C103.039 23.1726 102.491 21.1945 101.406 19.3886C100.326 17.5904 98.854 16.139 97.0306 15.073V15.0755ZM91.0064 32.1276H85.5413V18.4741H91.0064C92.2451 18.4741 93.412 18.7849 94.4737 19.3938C95.5406 20.0077 96.3972 20.8426 97.0178 21.8779C97.6359 22.9105 97.9487 24.0511 97.9487 25.2739C97.9487 26.4967 97.6333 27.6501 97.0152 28.6982C96.3946 29.7488 95.5406 30.594 94.4737 31.2054C93.4094 31.8168 92.2426 32.125 91.0064 32.125V32.1276Z" fill="#112122"/>
<path d="M123.951 24.039C122.068 22.5902 119.891 21.8555 117.483 21.8555C115.942 21.8555 114.451 22.1766 113.038 22.8162L112.944 22.8625C111.21 23.6819 109.784 24.933 108.712 26.5873C107.637 28.2417 107.094 30.0964 107.094 32.1026V49.5452H112.125V32.1026C112.125 30.6512 112.643 29.431 113.713 28.3778C114.78 27.3246 116.013 26.8134 117.483 26.8134C118.188 26.8134 118.909 26.9701 119.627 27.2758L119.96 27.417L124.792 24.6838L123.953 24.039H123.951Z" fill="#112122"/>
<path d="M144.591 23.9854C142.445 22.7446 140.08 22.1152 137.567 22.1152C135.054 22.1152 132.689 22.7446 130.543 23.9854C128.401 25.2236 126.681 26.9113 125.426 29.0049C124.167 31.1037 123.531 33.4439 123.531 35.9588C123.531 38.4737 124.17 40.7677 125.426 42.8845C126.681 44.9961 128.404 46.6966 130.545 47.9348C132.689 49.1756 135.054 49.805 137.57 49.805C140.086 49.805 142.376 49.1936 144.484 47.9888C146.587 46.7891 148.29 45.163 149.544 43.1619L149.931 42.5428L145.571 40.0638L145.204 40.6444C144.391 41.9263 143.304 42.9512 141.973 43.6859C140.645 44.4206 139.162 44.7931 137.57 44.7931C135.398 44.7931 133.525 44.1226 131.848 42.7406C130.399 41.5486 129.45 40.1358 128.963 38.4352H151.439L151.498 37.793C151.57 36.9992 151.606 36.3981 151.606 35.9562C151.606 33.4439 150.967 31.1037 149.71 29.0023C148.456 26.9087 146.733 25.221 144.594 23.9828L144.591 23.9854ZM128.814 33.6366C128.937 32.6244 129.332 31.6817 130.007 30.7697C130.851 29.6343 131.969 28.7275 133.336 28.0673C136.118 26.7289 139.134 26.7597 141.814 28.0673C143.163 28.7249 144.276 29.6343 145.12 30.7697C145.797 31.6817 146.189 32.6244 146.312 33.6366H128.809H128.814Z" fill="#112122"/>
<path d="M155.662 27.2808H171.344L155.662 45.029V49.5425H178.502V44.5846H162.869L178.502 26.8389V22.2715H155.662V27.2808Z" fill="#112122"/>
<path d="M202.562 23.9854C200.416 22.7446 198.051 22.1152 195.538 22.1152C193.025 22.1152 190.66 22.7446 188.513 23.9854C186.372 25.2236 184.651 26.9113 183.397 29.0049C182.138 31.1037 181.502 33.4439 181.502 35.9588C181.502 38.4737 182.141 40.7677 183.397 42.8845C184.651 44.9961 186.375 46.6966 188.516 47.9348C190.66 49.1756 193.025 49.805 195.54 49.805C198.056 49.805 200.346 49.1936 202.454 47.9888C204.557 46.7891 206.26 45.163 207.514 43.1619L207.902 42.5428L203.542 40.0638L203.175 40.6444C202.362 41.9263 201.275 42.9512 199.944 43.6859C198.615 44.4206 197.133 44.7931 195.54 44.7931C193.368 44.7931 191.496 44.1226 189.819 42.7406C188.37 41.5486 187.421 40.1358 186.934 38.4352H209.41L209.469 37.793C209.54 36.9992 209.576 36.3981 209.576 35.9562C209.576 33.4439 208.938 31.1037 207.681 29.0023C206.427 26.9087 204.704 25.221 202.565 23.9828L202.562 23.9854ZM186.788 33.6366C186.911 32.6244 187.306 31.6817 187.98 30.7697C188.824 29.6343 189.942 28.7275 191.309 28.0673C194.091 26.7289 197.107 26.7597 199.787 28.0673C201.136 28.7249 202.249 29.6343 203.093 30.7697C203.77 31.6817 204.162 32.6244 204.286 33.6366H186.782H186.788Z" fill="#112122"/>
<path d="M230.967 23.5415C229.259 22.5602 227.366 22.0645 225.346 22.0645C223.915 22.0645 222.548 22.3393 221.281 22.8788C220.532 23.1973 219.834 23.6083 219.196 24.1067V22.7426H214.164V49.5461H219.196V33.0951C219.196 32.0111 219.473 31.0015 220.022 30.0921C220.573 29.1776 221.332 28.4352 222.276 27.8932C223.232 27.3435 224.235 27.0763 225.348 27.0763C226.461 27.0763 227.479 27.3512 228.421 27.8932C229.364 28.4378 230.123 29.1776 230.675 30.0921C231.221 31.0041 231.501 32.0136 231.501 33.0951V49.5461H236.586V33.0951C236.586 31.0991 236.073 29.2341 235.06 27.549C234.05 25.8715 232.675 24.5228 230.972 23.5441L230.967 23.5415Z" fill="#112122"/>
<path d="M250.112 13.4609H245.027V22.064H240.639V27.0219H245.027V49.5431H250.112V27.0219H254.498V22.064H250.112V13.4609Z" fill="#112122"/>
<path d="M264.697 24.7832H259.611V49.5419H264.697V24.7832Z" fill="#112122"/>
<path d="M262.182 20.8686C263.01 20.8686 263.734 20.5706 264.329 19.9824C264.924 19.3941 265.226 18.6671 265.226 17.8168C265.226 16.9665 264.924 16.2909 264.329 15.7027C263.734 15.1144 263.01 14.8164 262.182 14.8164C261.354 14.8164 260.577 15.1144 259.982 15.7027C259.387 16.2884 259.084 16.9999 259.084 17.8168C259.084 18.6337 259.387 19.3967 259.979 19.9824C260.574 20.5706 261.315 20.8686 262.179 20.8686H262.182Z" fill="#112122"/>
<path d="M13.6562 27.0703V38.1241H28.6487L39.902 27.0703H13.6562Z" fill="#112122"/>
<path d="M13.6152 52.887L22.6605 44.0039H13.6563L13.6152 52.887Z" fill="#112122"/>
<path d="M45.3995 44.004V29.9883L31.0918 44.004H45.3995Z" fill="#112122"/>
<path d="M44.1721 10.1309H17.4057C15.336 10.1309 13.6562 11.7801 13.6562 13.8146V21.1872H45.8775L54.1123 13.1107C51.2554 11.2457 47.8368 10.1488 44.1721 10.1309Z" fill="#112122"/>
<path d="M51.3887 23.7302V44.0036C57.7898 41.2241 62.2881 34.9253 62.2881 27.6374C62.2881 23.5196 60.8955 19.7767 58.4951 16.748L51.3887 23.7276V23.7302Z" fill="#112122"/>
</svg>
