<svg width="21" height="23" viewBox="0 0 21 23" fill="none" xmlns="http://www.w3.org/2000/svg">
<path d="M20.3735 20.9828L13.2821 9.83816L20.2795 2.1407C20.4378 1.96231 20.5193 1.72873 20.5065 1.49061C20.4937 1.25248 20.3875 1.029 20.2111 0.868618C20.0346 0.708235 19.802 0.623876 19.5637 0.633831C19.3255 0.643786 19.1007 0.747252 18.9382 0.921797L12.2728 8.25336L7.68602 1.04527C7.60423 0.916534 7.49127 0.810521 7.3576 0.737055C7.22394 0.663589 7.07389 0.625047 6.92137 0.625H1.48387C1.32138 0.624921 1.16186 0.668531 1.02201 0.751263C0.882158 0.833995 0.767123 0.952806 0.68895 1.09526C0.610777 1.2377 0.572341 1.39855 0.577667 1.56095C0.582992 1.72336 0.631884 1.88134 0.719222 2.01836L7.81063 13.1618L0.813246 20.865C0.731532 20.9527 0.668053 21.0559 0.626487 21.1684C0.584922 21.2808 0.566096 21.4005 0.571102 21.5203C0.576109 21.6401 0.604847 21.7577 0.655651 21.8664C0.706455 21.975 0.778315 22.0725 0.867066 22.1531C0.955816 22.2338 1.05969 22.296 1.17267 22.3362C1.28566 22.3764 1.4055 22.3938 1.52525 22.3874C1.645 22.381 1.76228 22.3508 1.8703 22.2987C1.97831 22.2466 2.07491 22.1736 2.1545 22.0839L8.81996 14.7523L13.4067 21.9604C13.4892 22.0881 13.6024 22.193 13.7361 22.2654C13.8697 22.3379 14.0194 22.3756 14.1714 22.375H19.6089C19.7712 22.375 19.9305 22.3313 20.0702 22.2486C20.2099 22.166 20.3248 22.0473 20.4029 21.905C20.4811 21.7627 20.5196 21.6021 20.5144 21.4399C20.5092 21.2776 20.4606 21.1198 20.3735 20.9828ZM14.6687 20.5625L3.13438 2.4375H6.41953L17.9584 20.5625H14.6687Z" fill="#655947"/>
</svg>
