<svg width="299" height="68" viewBox="0 0 299 68" fill="none" xmlns="http://www.w3.org/2000/svg">
<path d="M287.901 64.7799C283.904 64.7799 279.982 63.4352 277.891 61.4928L279.273 58.5793C281.215 60.3349 284.539 61.6049 287.901 61.6049C292.421 61.6049 294.363 59.8493 294.363 57.5708C294.363 51.1834 278.526 55.2175 278.526 45.5058C278.526 41.4716 281.663 38.0352 288.536 38.0352C291.599 38.0352 294.774 38.8569 296.941 40.351L295.708 43.3393C293.429 41.8825 290.852 41.2102 288.536 41.2102C284.091 41.2102 282.186 43.0778 282.186 45.3563C282.186 51.7437 298.024 47.7469 298.024 57.3467C298.024 61.3434 294.812 64.7799 287.901 64.7799Z" fill="#696868"/>
<path d="M260.114 61.2314H275.354V64.4811H256.379V38.334H274.831V41.5837H260.114V49.6146H273.225V52.7896H260.114V61.2314Z" fill="#696868"/>
<path d="M251.912 64.4811H247.841L242.2 56.4502C241.677 56.4876 241.117 56.5249 240.557 56.5249H234.095V64.4811H230.359V38.334H240.557C247.355 38.334 251.464 41.7705 251.464 47.4481C251.464 51.4822 249.372 54.3958 245.711 55.7031L251.912 64.4811ZM240.445 53.3499C245.226 53.3499 247.729 51.1834 247.729 47.4481C247.729 43.7128 245.226 41.5837 240.445 41.5837H234.095V53.3499H240.445Z" fill="#696868"/>
<path d="M212.764 64.7799C205.891 64.7799 201.707 60.7831 201.707 53.2005V38.334H205.442V53.0511C205.442 58.8408 208.094 61.4555 212.801 61.4555C217.507 61.4555 220.197 58.8408 220.197 53.0511V38.334H223.82V53.2005C223.82 60.7831 219.674 64.7799 212.764 64.7799Z" fill="#696868"/>
<path d="M186.797 64.4811V41.5837H177.832V38.334H199.459V41.5837H190.495V64.4811H186.797Z" fill="#696868"/>
<path d="M171.165 38.334H174.901V64.4811H171.838L156.149 44.9828V64.4811H152.414V38.334H155.477L171.165 57.8323V38.334Z" fill="#696868"/>
<path d="M132.243 61.2314H147.483V64.4811H128.508V38.334H146.96V41.5837H132.243V49.6146H145.354V52.7896H132.243V61.2314Z" fill="#696868"/>
<path d="M122.56 38.334H126.295L114.828 64.4811H111.13L99.625 38.334H103.659L113.072 59.812L122.56 38.334Z" fill="#696868"/>
<path d="M227.339 28.8268L224.463 22.29H210.567L207.691 28.8268H203.844L215.685 2.67969H219.383L231.261 28.8268H227.339ZM211.875 19.3018H223.155L217.515 6.48969L211.875 19.3018Z" fill="#696868"/>
<path d="M178.43 28.8268V2.67969H189.449C197.853 2.67969 203.568 7.98382 203.568 15.7532C203.568 23.5227 197.853 28.8268 189.449 28.8268H178.43ZM182.165 25.5771H189.225C195.687 25.5771 199.833 21.6177 199.833 15.7532C199.833 9.88882 195.687 5.9294 189.225 5.9294H182.165V25.5771Z" fill="#696868"/>
<path d="M173.967 28.8268H169.895L164.255 20.7959C163.732 20.8333 163.172 20.8706 162.611 20.8706H156.149V28.8268H152.414V2.67969H162.611C169.41 2.67969 173.519 6.11616 173.519 11.7938C173.519 15.8279 171.427 18.7415 167.766 20.0488L173.967 28.8268ZM162.499 17.6956C167.281 17.6956 169.783 15.5291 169.783 11.7938C169.783 8.05852 167.281 5.9294 162.499 5.9294H156.149V17.6956H162.499Z" fill="#696868"/>
<path d="M132.243 25.5771H147.483V28.8268H128.508V2.67969H146.96V5.9294H132.243V13.9603H145.354V17.1353H132.243V25.5771Z" fill="#696868"/>
<path d="M122.56 2.67969H126.295L114.828 28.8268H111.13L99.625 2.67969H103.659L113.072 24.1577L122.56 2.67969Z" fill="#696868"/>
<path d="M60.3701 0.0585938H70.4763L43.4378 67.0582H32.0117L60.3701 0.0585938Z" fill="#696868"/>
<path d="M29.3232 67.0586L34.7891 54.6723L12.3909 0.0590363H0.964844L29.3232 67.0586Z" fill="#696868"/>
<path d="M35.7607 53.1719L41.1582 41.3367L23.3907 0.0594292H13.7852L35.7607 53.1719Z" fill="#696868"/>
<path d="M73.4571 0.0585938H84.2419L57.2034 67.0582H45.7773L73.4571 0.0585938Z" fill="#696868"/>
</svg>
