<?xml version="1.0" encoding="UTF-8"?><svg id="Layer_2" xmlns="http://www.w3.org/2000/svg" xmlns:xlink="http://www.w3.org/1999/xlink" viewBox="0 0 109.74 17.03"><defs><style>.cls-1{fill:url(#linear-gradient);}.cls-2{fill:url(#linear-gradient-8);}.cls-3{fill:url(#linear-gradient-9);}.cls-4{fill:url(#linear-gradient-3);}.cls-5{fill:url(#linear-gradient-4);}.cls-6{fill:url(#linear-gradient-2);}.cls-7{fill:url(#linear-gradient-6);}.cls-8{fill:url(#linear-gradient-7);}.cls-9{fill:url(#linear-gradient-5);}.cls-10{fill:url(#linear-gradient-14);}.cls-11{fill:url(#linear-gradient-18);}.cls-12{fill:url(#linear-gradient-22);}.cls-13{fill:url(#linear-gradient-20);}.cls-14{fill:url(#linear-gradient-21);}.cls-15{fill:url(#linear-gradient-23);}.cls-16{fill:url(#linear-gradient-15);}.cls-17{fill:url(#linear-gradient-19);}.cls-18{fill:url(#linear-gradient-16);}.cls-19{fill:url(#linear-gradient-17);}.cls-20{fill:url(#linear-gradient-13);}.cls-21{fill:url(#linear-gradient-12);}.cls-22{fill:url(#linear-gradient-10);}.cls-23{fill:url(#linear-gradient-11);}.cls-24{fill:url(#linear-gradient-27);}.cls-25{fill:url(#linear-gradient-24);}.cls-26{fill:url(#linear-gradient-26);}.cls-27{fill:url(#linear-gradient-34);}.cls-28{fill:url(#linear-gradient-25);}.cls-29{fill:url(#linear-gradient-28);}.cls-30{fill:url(#linear-gradient-29);}.cls-31{fill:url(#linear-gradient-33);}.cls-32{fill:url(#linear-gradient-30);}.cls-33{fill:url(#linear-gradient-32);}.cls-34{fill:url(#linear-gradient-31);}</style><linearGradient id="linear-gradient" x1="47.77" y1="4.27" x2="47.96" y2="4.27" gradientUnits="userSpaceOnUse"><stop offset="0" stop-color="#1bb4df"/><stop offset="0" stop-color="#238bb3"/><stop offset="1" stop-color="#111143"/></linearGradient><linearGradient id="linear-gradient-2" x1="109.52" y1="4.8" x2="109.74" y2="4.8" xlink:href="#linear-gradient"/><linearGradient id="linear-gradient-3" x1="99.84" y1="8.83" x2="103.49" y2="8.83" xlink:href="#linear-gradient"/><linearGradient id="linear-gradient-4" x1="43.82" y1="5.04" x2="44.38" y2="5.04" xlink:href="#linear-gradient"/><linearGradient id="linear-gradient-5" x1="36.91" y1="4.44" x2="37.11" y2="4.44" xlink:href="#linear-gradient"/><linearGradient id="linear-gradient-6" x1="40.83" y1="5.04" x2="41.37" y2="5.04" xlink:href="#linear-gradient"/><linearGradient id="linear-gradient-7" x1="36.98" y1="8.64" x2="41.72" y2="8.64" xlink:href="#linear-gradient"/><linearGradient id="linear-gradient-8" x1="41.71" y1="8" x2="45.35" y2="8" xlink:href="#linear-gradient"/><linearGradient id="linear-gradient-9" x1="104.74" y1="15.83" x2="105.09" y2="15.83" xlink:href="#linear-gradient"/><linearGradient id="linear-gradient-10" x1="98.75" y1="5.04" x2="99.28" y2="5.04" xlink:href="#linear-gradient"/><linearGradient id="linear-gradient-11" x1="98.69" x2="98.89" xlink:href="#linear-gradient"/><linearGradient id="linear-gradient-12" x1="109.54" x2="109.74" xlink:href="#linear-gradient"/><linearGradient id="linear-gradient-13" x1="101.67" y1="8" x2="107.12" y2="8" xlink:href="#linear-gradient"/><linearGradient id="linear-gradient-14" x1="105.58" y1="4.04" x2="106" y2="4.04" xlink:href="#linear-gradient"/><linearGradient id="linear-gradient-15" x1="102.6" y1="5.04" x2="103.14" y2="5.04" xlink:href="#linear-gradient"/><linearGradient id="linear-gradient-16" x1="105.59" y1="5.04" x2="106.15" y2="5.04" xlink:href="#linear-gradient"/><linearGradient id="linear-gradient-17" x1="47.74" y1="4.8" y2="4.8" xlink:href="#linear-gradient"/><linearGradient id="linear-gradient-18" x1="99" y1="11.19" x2="99" y2="21.09" xlink:href="#linear-gradient"/><linearGradient id="linear-gradient-19" x1="30.67" y1="-.11" x2="30.67" y2="32.95" xlink:href="#linear-gradient"/><linearGradient id="linear-gradient-20" x1="71.16" y1="-.11" x2="71.16" y2="32.95" xlink:href="#linear-gradient"/><linearGradient id="linear-gradient-21" x1="5.7" y1="-.12" x2="5.7" y2="32.95" xlink:href="#linear-gradient"/><linearGradient id="linear-gradient-22" x1="17.9" y1="-.12" x2="17.9" y2="32.95" xlink:href="#linear-gradient"/><linearGradient id="linear-gradient-23" x1="30.3" y1="-.12" x2="30.3" y2="32.95" xlink:href="#linear-gradient"/><linearGradient id="linear-gradient-24" x1="55.17" y1="-.12" x2="55.17" y2="32.95" xlink:href="#linear-gradient"/><linearGradient id="linear-gradient-25" x1="67.82" y1="-.12" x2="67.82" y2="32.95" xlink:href="#linear-gradient"/><linearGradient id="linear-gradient-26" x1="79.82" y1="-.12" x2="79.82" y2="32.95" xlink:href="#linear-gradient"/><linearGradient id="linear-gradient-27" x1="92.2" y1="-.12" x2="92.2" y2="32.95" xlink:href="#linear-gradient"/><linearGradient id="linear-gradient-28" x1="107.17" y1="-.12" x2="107.17" y2="32.95" xlink:href="#linear-gradient"/><linearGradient id="linear-gradient-29" x1="42.44" y1="-.11" x2="42.44" y2="32.94" xlink:href="#linear-gradient"/><linearGradient id="linear-gradient-30" x1="40.8" y1="4.14" x2="40.8" y2="13.39" xlink:href="#linear-gradient"/><linearGradient id="linear-gradient-31" x1="41.34" y1="3.73" x2="41.34" y2="5.93" xlink:href="#linear-gradient"/><linearGradient id="linear-gradient-32" x1="105.09" y1="15.74" x2="105.09" y2="17.7" xlink:href="#linear-gradient"/><linearGradient id="linear-gradient-33" x1="99.03" y1="16.15" x2="99.03" y2="17.53" xlink:href="#linear-gradient"/><linearGradient id="linear-gradient-34" x1="104.21" y1="-.12" x2="104.21" y2="32.95" xlink:href="#linear-gradient"/></defs><g id="Ebene_1"><g><path class="cls-1" d="M47.77,4.01c.13,.12,.19,.29,.19,.52,0-.23-.06-.4-.19-.52Z"/><path class="cls-6" d="M109.74,4.53c0,.25-.07,.43-.22,.53,.15-.11,.22-.28,.22-.53Z"/><polygon class="cls-4" points="99.84 5.24 103.49 12.42 103.49 12.42 99.84 5.24"/><path class="cls-5" d="M43.82,4.87c.04,.09,.11,.16,.19,.22,.09,.05,.21,.09,.37,.12-.16-.03-.28-.07-.37-.12-.09-.05-.15-.13-.19-.22Z"/><path class="cls-9" d="M37.11,4.01c-.13,.12-.2,.29-.2,.52,0,.13,.02,.24,.06,.34-.04-.09-.06-.2-.06-.34,0-.23,.07-.4,.2-.52Z"/><path class="cls-7" d="M40.83,5.2c.15-.03,.27-.07,.35-.12,.08-.05,.15-.13,.19-.22-.04,.09-.1,.16-.19,.22-.08,.05-.2,.09-.35,.12Z"/><path class="cls-8" d="M38.06,5.24c-.44,0-.74-.05-.9-.16-.08-.05-.14-.13-.18-.22,.04,.09,.1,.16,.18,.22,.16,.11,.46,.16,.9,.16l3.66,7.17h0l-3.66-7.17Z"/><polygon class="cls-2" points="45.35 5.24 42.6 10.75 41.71 8.93 42.6 10.75 45.35 5.24"/><path class="cls-3" d="M105.09,15.97c-.04-.09-.11-.17-.19-.22-.04-.03-.1-.05-.16-.07,.06,.02,.12,.04,.16,.07,.09,.05,.15,.12,.19,.22Z"/><path class="cls-22" d="M98.75,4.87c.04,.09,.1,.16,.18,.22,.08,.05,.2,.09,.35,.12-.15-.03-.27-.07-.35-.12-.08-.05-.14-.13-.18-.22Z"/><path class="cls-23" d="M98.69,4.53c0-.23,.07-.4,.2-.52-.13,.12-.2,.29-.2,.52Z"/><path class="cls-21" d="M109.54,4.01c.13,.12,.2,.29,.2,.52,0-.23-.07-.4-.2-.52Z"/><polygon class="cls-20" points="107.12 5.24 104.37 10.75 101.67 5.24 104.37 10.75 107.12 5.24"/><path class="cls-10" d="M106,3.88c-.13,.03-.22,.06-.28,.12-.06,.05-.11,.12-.14,.21,.03-.09,.08-.16,.14-.21,.06-.05,.16-.09,.28-.12Z"/><path class="cls-16" d="M102.6,5.2c.15-.03,.27-.07,.35-.12,.08-.05,.15-.13,.19-.22-.04,.09-.1,.16-.19,.22-.08,.05-.2,.09-.35,.12Z"/><path class="cls-18" d="M105.59,4.87c.04,.09,.11,.16,.19,.22,.09,.05,.21,.09,.37,.12-.16-.03-.28-.07-.37-.12-.09-.05-.15-.13-.19-.22Z"/><path class="cls-19" d="M47.96,4.53c0,.25-.07,.43-.22,.53,.15-.11,.22-.28,.22-.53Z"/><path class="cls-11" d="M98.94,16.32h0c0-.18,.05-.31,.12-.43-.07,.11-.12,.25-.12,.43Z"/><path class="cls-17" d="M36.17,15.6h-10.27c-.39,0-.71,.32-.71,.71s.32,.71,.71,.71h10.26c-.07-.2-.12-.42-.12-.7s.06-.52,.14-.72Z"/><path class="cls-13" d="M97.94,15.6H44.39c.08,.2,.14,.43,.14,.72s-.06,.5-.13,.7h53.53c-.07-.2-.12-.42-.12-.7s.06-.52,.14-.72Z"/><path class="cls-14" d="M10.6,3.84h-3.08c-.38,0-.63,.05-.76,.15-.13,.1-.19,.28-.19,.54,0,.27,.09,.46,.27,.56,.18,.1,.53,.15,1.04,.15h.6l-2.88,6.46L3,5.24h.37c.45,0,.75-.05,.92-.16,.17-.11,.25-.29,.25-.55s-.06-.44-.19-.54c-.13-.1-.38-.15-.76-.15H.8c-.27,0-.46,.06-.6,.17-.13,.12-.2,.29-.2,.52,0,.26,.08,.45,.24,.55,.16,.11,.46,.16,.9,.16l3.28,7.28c.17,.37,.33,.61,.48,.72,.16,.11,.38,.16,.66,.16,.31,0,.55-.05,.71-.16,.16-.11,.33-.35,.49-.71l3.29-7.28h.18c.44,0,.74-.05,.9-.16,.16-.11,.24-.29,.24-.55,0-.23-.07-.4-.2-.52-.13-.12-.33-.17-.6-.17Z"/><path class="cls-12" d="M21.44,8.88c.69,0,1.12-.06,1.27-.19,.16-.13,.23-.38,.23-.75,0-1.21-.46-2.24-1.39-3.09-.92-.85-2.09-1.28-3.49-1.28-1.55,0-2.8,.46-3.77,1.37-.96,.91-1.45,2.1-1.45,3.57s.46,2.6,1.37,3.47c.91,.87,2.12,1.31,3.64,1.31,.7,0,1.4-.09,2.11-.26,.71-.17,1.39-.42,2.06-.74,.31-.15,.53-.31,.67-.47,.14-.16,.21-.33,.21-.53s-.07-.34-.2-.47c-.13-.13-.3-.19-.5-.19s-.75,.21-1.66,.62c-.92,.42-1.76,.62-2.54,.62-1.03,0-1.84-.26-2.44-.79-.59-.52-.92-1.27-.97-2.23h6.85Zm-6.8-1.31c.19-.82,.59-1.47,1.2-1.93,.61-.47,1.35-.7,2.23-.7,.82,0,1.51,.24,2.07,.72,.56,.48,.89,1.12,.99,1.91h-6.49Z"/><path class="cls-15" d="M25.97,13.05h6.52c.31,0,.53-.05,.64-.15,.12-.1,.17-.29,.17-.56,0-.24-.06-.41-.18-.52-.12-.11-.31-.16-.57-.16h-3.31V7.51c.7-.8,1.33-1.38,1.91-1.75,.58-.37,1.12-.55,1.64-.55,.29,0,.61,.1,.97,.3,.36,.2,.62,.3,.77,.3,.22,0,.42-.09,.6-.28,.18-.19,.27-.41,.27-.65,0-.38-.18-.68-.55-.92-.36-.24-.84-.36-1.44-.36-.79,0-1.53,.19-2.21,.58-.68,.39-1.34,.97-1.97,1.76v-1.69c0-.13-.05-.23-.14-.3-.09-.07-.23-.1-.41-.1h-2.27c-.27,0-.46,.06-.59,.17-.13,.12-.19,.29-.19,.52,0,.27,.08,.46,.24,.56,.16,.1,.56,.15,1.21,.15h.68v6.4h-1.73c-.29,0-.5,.06-.63,.17-.14,.11-.2,.29-.2,.52s.07,.42,.2,.54c.13,.12,.33,.18,.59,.18Z"/><path class="cls-25" d="M55.13,13.3c.7,0,1.4-.09,2.11-.26,.71-.17,1.39-.42,2.06-.74,.31-.15,.53-.31,.67-.47s.21-.33,.21-.53-.07-.34-.2-.47c-.13-.13-.3-.19-.5-.19s-.75,.21-1.66,.62c-.92,.42-1.76,.62-2.54,.62-1.03,0-1.84-.26-2.44-.79-.59-.52-.92-1.27-.97-2.23h6.85c.69,0,1.12-.06,1.27-.19,.16-.13,.23-.38,.23-.75,0-1.21-.46-2.24-1.39-3.09-.92-.85-2.09-1.28-3.49-1.28-1.55,0-2.8,.46-3.77,1.37-.96,.91-1.45,2.1-1.45,3.57s.46,2.6,1.37,3.47c.91,.87,2.12,1.31,3.64,1.31Zm-2.02-7.66c.61-.47,1.35-.7,2.23-.7,.82,0,1.51,.24,2.07,.72,.56,.48,.89,1.12,.99,1.91h-6.49c.19-.82,.59-1.47,1.2-1.93Z"/><path class="cls-28" d="M66.02,13.3c.68,0,1.34-.13,1.98-.39,.64-.26,1.24-.63,1.78-1.13l.08,.61c.04,.21,.12,.38,.24,.49s.27,.17,.46,.17h1.57c.27,0,.47-.06,.6-.18,.13-.12,.2-.3,.2-.54,0-.26-.08-.44-.24-.54-.16-.1-.47-.15-.95-.15h-.49V7.13c0-1.16-.3-2.04-.9-2.64-.6-.59-1.48-.89-2.65-.89s-2.08,.14-2.82,.41c-.73,.27-1.1,.6-1.1,1,0,.25,.06,.45,.19,.6,.13,.16,.29,.23,.48,.23,.21,0,.63-.14,1.27-.42s1.22-.42,1.73-.42c.77,0,1.34,.18,1.7,.55,.37,.37,.55,.93,.55,1.69v.07c-.41-.11-.81-.18-1.21-.23-.39-.05-.78-.07-1.17-.07-1.46,0-2.6,.29-3.4,.87-.81,.58-1.21,1.39-1.21,2.44,0,.88,.3,1.6,.91,2.15s1.41,.83,2.4,.83Zm-.83-4.49c.59-.35,1.4-.52,2.42-.52,.34,0,.68,.03,1.02,.08,.34,.06,.7,.14,1.06,.26v1.08c0,.48-.36,.94-1.08,1.38-.72,.44-1.5,.66-2.35,.66-.57,0-1.04-.15-1.41-.44s-.55-.66-.55-1.12c0-.58,.3-1.05,.89-1.4Z"/><path class="cls-26" d="M75.49,13.05h6.52c.31,0,.53-.05,.64-.15,.12-.1,.17-.29,.17-.56,0-.24-.06-.41-.18-.52-.12-.11-.31-.16-.57-.16h-3.31V7.51c.7-.8,1.33-1.38,1.91-1.75,.58-.37,1.12-.55,1.64-.55,.29,0,.61,.1,.97,.3,.36,.2,.62,.3,.77,.3,.22,0,.42-.09,.6-.28,.18-.19,.27-.41,.27-.65,0-.38-.18-.68-.55-.92-.36-.24-.84-.36-1.44-.36-.79,0-1.53,.19-2.21,.58-.68,.39-1.34,.97-1.97,1.76v-1.69c0-.13-.05-.23-.14-.3-.09-.07-.23-.1-.41-.1h-2.27c-.27,0-.46,.06-.59,.17-.13,.12-.19,.29-.19,.52,0,.27,.08,.46,.24,.56,.16,.1,.56,.15,1.21,.15h.68v6.4h-1.73c-.29,0-.5,.06-.63,.17-.14,.11-.2,.29-.2,.52s.07,.42,.2,.54c.13,.12,.33,.18,.59,.18Z"/><path class="cls-24" d="M88.52,13.05h7.36c.31,0,.53-.05,.64-.15,.11-.1,.17-.29,.17-.56,0-.24-.06-.41-.17-.52-.12-.11-.3-.16-.55-.16h-3.13V.41c0-.13-.05-.23-.15-.3-.1-.07-.24-.11-.42-.11h-3.29c-.26,0-.46,.06-.59,.18-.14,.12-.2,.3-.2,.54,0,.27,.08,.46,.24,.56,.16,.1,.57,.15,1.21,.15h1.69V11.64h-2.76c-.28,0-.49,.06-.63,.17-.14,.11-.21,.29-.21,.52s.07,.42,.2,.54c.14,.12,.33,.18,.59,.18Z"/><path class="cls-29" d="M107.17,15.59c-.39,0-.71,.32-.71,.71s.32,.71,.71,.71,.71-.32,.71-.71-.32-.71-.71-.71Z"/><path class="cls-30" d="M47.77,4.01c-.13-.12-.33-.17-.6-.17h-2.46c-.38,0-.63,.05-.76,.15-.13,.1-.19,.28-.19,.54,0,.13,.02,.24,.06,.34,.04,.09,.11,.16,.19,.22,.09,.05,.21,.09,.37,.12,.16,.03,.35,.04,.58,.04h.39l-2.75,5.5-.89-1.81-1.81-3.69h.37c.22,0,.41-.01,.56-.04,.15-.03,.27-.07,.35-.12,.08-.05,.15-.13,.19-.22s.06-.2,.06-.34c0-.26-.06-.44-.19-.54-.13-.1-.37-.15-.75-.15h-2.78c-.27,0-.46,.06-.6,.17-.13,.12-.2,.29-.2,.52,0,.13,.02,.24,.06,.34,.04,.09,.1,.16,.18,.22,.16,.11,.46,.16,.9,.16l3.66,7.17-1.61,3.18h0s-2.16,0-2.16,0c-.26,0-.45,.06-.58,.18-.03,.03-.05,.07-.07,.11-.07,.11-.12,.25-.12,.43,0,.26,.06,.44,.18,.55,.06,.05,.15,.09,.26,.12,.09,.02,.21,.03,.34,.03h4.71c.23,0,.42-.06,.55-.17,.07-.06,.12-.13,.15-.22,.03-.09,.05-.19,.05-.31,0-.14-.02-.25-.06-.35-.04-.09-.11-.17-.19-.22-.04-.03-.1-.05-.16-.07-.19-.06-.46-.09-.83-.09h-.43s5.24-10.36,5.24-10.36c.37-.01,.63-.07,.78-.18,.15-.11,.22-.28,.22-.53,0-.23-.06-.4-.19-.52Z"/><polygon class="cls-32" points="41.71 8.93 39.9 5.24 39.9 5.24 41.71 8.93"/><path class="cls-34" d="M41.37,4.87c.04-.09,.06-.2,.06-.34,0-.26-.06-.44-.19-.54,.13,.1,.19,.28,.19,.54,0,.13-.02,.24-.06,.34Z"/><path class="cls-33" d="M105.02,16.76c.09-.11,.14-.25,.14-.44,0-.14-.02-.25-.06-.35,.04,.09,.06,.21,.06,.35,0,.19-.06,.32-.14,.44Z"/><path class="cls-31" d="M98.94,16.32c0,.26,.06,.44,.18,.55-.12-.11-.18-.29-.18-.55h0Z"/><path class="cls-27" d="M109.54,4.01c-.13-.12-.33-.17-.6-.17h-2.46c-.19,0-.35,.01-.47,.04s-.22,.06-.28,.12c-.06,.05-.11,.12-.14,.21-.03,.09-.05,.2-.05,.33s.02,.24,.06,.34c.04,.09,.11,.16,.19,.22,.09,.05,.21,.09,.37,.12,.16,.03,.35,.04,.58,.04h.39l-2.75,5.5-2.7-5.5h.37c.22,0,.41-.01,.56-.04,.15-.03,.27-.07,.35-.12,.08-.05,.15-.13,.19-.22,.04-.09,.06-.2,.06-.34,0-.26-.06-.44-.19-.54-.13-.1-.37-.15-.75-.15h-2.78c-.27,0-.46,.06-.6,.17-.13,.12-.2,.29-.2,.52,0,.13,.02,.24,.06,.34s.1,.16,.18,.22c.08,.05,.2,.09,.35,.12,.15,.03,.33,.04,.55,.04l3.66,7.17-1.61,3.18h0s-2.16,0-2.16,0c-.26,0-.45,.06-.58,.18-.03,.03-.05,.07-.07,.11-.07,.11-.12,.25-.12,.43,0,.26,.06,.44,.18,.55,.06,.05,.15,.09,.26,.12,.09,.02,.21,.03,.33,.03,.02,0,.04,0,.06,0h4.58c.26,0,.46-.06,.59-.18,.03-.02,.04-.06,.06-.09,.09-.11,.14-.25,.14-.44,0-.14-.02-.25-.06-.35-.04-.09-.11-.17-.19-.22-.04-.03-.1-.05-.16-.07-.06-.02-.14-.04-.22-.05-.16-.03-.37-.04-.61-.04h-.42l5.24-10.36c.37-.01,.63-.07,.78-.18,.15-.11,.22-.28,.22-.53,0-.23-.07-.4-.2-.52Z"/></g></g></svg>