<?xml version="1.0" encoding="UTF-8"?>
<svg id="Layer_1" data-name="Layer 1" xmlns="http://www.w3.org/2000/svg" xmlns:xlink="http://www.w3.org/1999/xlink" viewBox="0 0 268.54 198.82">
  <defs>
    <style>
      .cls-1 {
        fill: url(#linear-gradient-12);
      }

      .cls-1, .cls-2, .cls-3, .cls-4, .cls-5, .cls-6, .cls-7, .cls-8, .cls-9, .cls-10, .cls-11, .cls-12, .cls-13, .cls-14, .cls-15, .cls-16, .cls-17, .cls-18, .cls-19 {
        stroke-width: 0px;
      }

      .cls-2 {
        fill: url(#linear-gradient);
      }

      .cls-20 {
        opacity: .5;
      }

      .cls-3 {
        fill: url(#linear-gradient-6);
      }

      .cls-21 {
        mask: url(#mask-2);
      }

      .cls-22 {
        clip-path: url(#clippath-2);
      }

      .cls-4 {
        fill: rgba(0, 21, 6, .4);
      }

      .cls-23 {
        opacity: .2;
      }

      .cls-24 {
        clip-path: url(#clippath-6);
      }

      .cls-5 {
        fill: url(#linear-gradient-11);
      }

      .cls-6 {
        fill: url(#linear-gradient-5);
      }

      .cls-7 {
        fill: none;
      }

      .cls-25 {
        clip-path: url(#clippath-7);
      }

      .cls-26 {
        clip-path: url(#clippath-1);
      }

      .cls-27 {
        clip-path: url(#clippath-4);
      }

      .cls-8 {
        fill: url(#linear-gradient-13);
      }

      .cls-9, .cls-28 {
        fill: #fff;
      }

      .cls-10 {
        fill: url(#linear-gradient-14);
      }

      .cls-11 {
        fill: url(#linear-gradient-2);
      }

      .cls-12 {
        fill: url(#linear-gradient-7);
      }

      .cls-13 {
        fill: url(#linear-gradient-3);
      }

      .cls-29 {
        clip-path: url(#clippath);
      }

      .cls-14 {
        fill: url(#linear-gradient-9);
      }

      .cls-15 {
        fill: url(#radial-gradient);
      }

      .cls-30 {
        clip-path: url(#clippath-3);
      }

      .cls-16 {
        fill: url(#linear-gradient-8);
      }

      .cls-31 {
        mask: url(#mask-1);
      }

      .cls-32 {
        mask: url(#mask);
      }

      .cls-33 {
        clip-path: url(#clippath-5);
      }

      .cls-17 {
        fill: url(#linear-gradient-10);
      }

      .cls-18 {
        fill: url(#linear-gradient-4);
      }

      .cls-28 {
        stroke: #2f8066;
        stroke-linecap: round;
        stroke-linejoin: round;
        stroke-width: .5px;
      }

      .cls-19 {
        fill: #001506;
      }
    </style>
    <clipPath id="clippath">
      <rect class="cls-7" x="-273.7" y="395.46" width="885.8" height="885.8"/>
    </clipPath>
    <clipPath id="clippath-1">
      <rect class="cls-7" x="-273.7" y="398.58" width="1562.92" height="880.52"/>
    </clipPath>
    <clipPath id="clippath-2">
      <rect class="cls-7" x="-230.26" y="396.54" width="1572.61" height="884.59"/>
    </clipPath>
    <clipPath id="clippath-3">
      <rect class="cls-7" x="-283.36" y="355.39" width="1657.12" height="934.59"/>
    </clipPath>
    <radialGradient id="radial-gradient" cx="-1282.08" cy="1457.83" fx="-1282.08" fy="1457.83" r="904.08" gradientTransform="translate(2051.91 -51.75) scale(1.21 .6)" gradientUnits="userSpaceOnUse">
      <stop offset=".73" stop-color="#fff"/>
      <stop offset="1" stop-color="#000" stop-opacity="0"/>
    </radialGradient>
    <mask id="mask" x="-777.13" y="102.37" width="2630.12" height="1490.44" maskUnits="userSpaceOnUse">
      <rect class="cls-15" x="-764.54" y="139.96" width="2526.27" height="1360.97"/>
    </mask>
    <linearGradient id="linear-gradient" x1="-12542.14" y1="12170.84" x2="-12542.14" y2="11538.35" gradientTransform="translate(-12004.22 12289.89) rotate(-180)" gradientUnits="userSpaceOnUse">
      <stop offset=".14" stop-color="#666"/>
      <stop offset=".17" stop-color="#747474"/>
      <stop offset=".25" stop-color="#999"/>
      <stop offset=".33" stop-color="#b9b9b9"/>
      <stop offset=".41" stop-color="#d2d2d2"/>
      <stop offset=".51" stop-color="#e6e6e6"/>
      <stop offset=".62" stop-color="#f4f4f4"/>
      <stop offset=".76" stop-color="#fcfcfc"/>
      <stop offset="1" stop-color="#fff"/>
    </linearGradient>
    <linearGradient id="linear-gradient-2" x1="-14004.6" y1="26790.05" x2="-14004.6" y2="26161.95" gradientTransform="translate(-13706.86 26909.11) rotate(-180)" xlink:href="#linear-gradient"/>
    <linearGradient id="linear-gradient-3" x1="-13884.56" y1="26790.08" x2="-13884.56" y2="26162.12" gradientTransform="translate(-13706.86 26909.11) rotate(-180)" xlink:href="#linear-gradient"/>
    <linearGradient id="linear-gradient-4" x1="-13764.53" y1="26790.11" x2="-13764.53" y2="26162.24" gradientTransform="translate(-13706.86 26909.11) rotate(-180)" xlink:href="#linear-gradient"/>
    <linearGradient id="linear-gradient-5" x1="-13644.51" y1="26790.13" x2="-13644.51" y2="26162.33" gradientTransform="translate(-13706.86 26909.11) rotate(-180)" xlink:href="#linear-gradient"/>
    <linearGradient id="linear-gradient-6" x1="-13524.5" y1="26790.15" x2="-13524.5" y2="26162.39" gradientTransform="translate(-13706.86 26909.11) rotate(-180)" xlink:href="#linear-gradient"/>
    <linearGradient id="linear-gradient-7" x1="-13404.48" y1="26790.15" x2="-13404.48" y2="26162.44" gradientTransform="translate(-13706.86 26909.11) rotate(-180)" xlink:href="#linear-gradient"/>
    <mask id="mask-1" x="-711.25" y="191.17" width="2323.57" height="1314.64" maskUnits="userSpaceOnUse"/>
    <linearGradient id="linear-gradient-8" x1="-14371.86" y1="24162.93" x2="-14371.86" y2="23605.04" gradientTransform="translate(-13921.32 24368.81) rotate(-180)" xlink:href="#linear-gradient"/>
    <linearGradient id="linear-gradient-9" x1="-14159.67" y1="24162.92" x2="-14159.67" y2="23608.91" gradientTransform="translate(-13921.32 24368.81) rotate(-180)" xlink:href="#linear-gradient"/>
    <linearGradient id="linear-gradient-10" x1="-14053.62" y1="24162.95" x2="-14053.62" y2="23609.06" gradientTransform="translate(-13921.32 24368.81) rotate(-180)" xlink:href="#linear-gradient"/>
    <linearGradient id="linear-gradient-11" x1="-13947.58" y1="24162.97" x2="-13947.58" y2="23609.16" gradientTransform="translate(-13921.32 24368.81) rotate(-180)" xlink:href="#linear-gradient"/>
    <linearGradient id="linear-gradient-12" x1="-13841.55" y1="24162.99" x2="-13841.55" y2="23609.24" gradientTransform="translate(-13921.32 24368.81) rotate(-180)" xlink:href="#linear-gradient"/>
    <linearGradient id="linear-gradient-13" x1="-13735.53" y1="24163.01" x2="-13735.53" y2="23609.29" gradientTransform="translate(-13921.32 24368.81) rotate(-180)" xlink:href="#linear-gradient"/>
    <clipPath id="clippath-4">
      <rect class="cls-7" x="769.72" y="411.98" width="885.8" height="885.8"/>
    </clipPath>
    <clipPath id="clippath-5">
      <rect class="cls-7" x="769.72" y="415.1" width="1562.92" height="880.52"/>
    </clipPath>
    <clipPath id="clippath-6">
      <rect class="cls-7" x="813.16" y="413.06" width="1572.61" height="884.59"/>
    </clipPath>
    <clipPath id="clippath-7">
      <rect class="cls-7" x="760.06" y="371.91" width="1657.12" height="934.59"/>
    </clipPath>
    <mask id="mask-2" x="266.28" y="118.89" width="2630.12" height="1490.44" maskUnits="userSpaceOnUse"/>
    <linearGradient id="linear-gradient-14" x1="-13585.56" y1="12154.32" x2="-13585.56" y2="11521.83" xlink:href="#linear-gradient"/>
  </defs>
  <g class="cls-29">
    <g class="cls-26">
      <g class="cls-22">
        <g class="cls-30">
          <rect class="cls-28" x="-402.93" y="165.36" width="1837.93" height="1380.42"/>
          <g class="cls-32">
            <g class="cls-20">
              <path class="cls-2" d="M-750.17,117.53l1.95,1.09,138.94,78.13,1.95,1.11,111.37,62.63,1.94,1.08,91.18,51.29,1.94,1.08,75.93,42.7,1.95,1.11,64.14,36.06,1.95,1.1,54.84,30.84,1.95,1.11,47.39,26.64,1.94,1.1,41.3,23.22,1.95,1.1,32.71,18.4,3.58,2.02,1.94,1.08v-1.74s-1.94,0-1.94,0v.58s-3.44-1.94-3.44-1.94h3.83s-5.55-3.11-5.55-3.11l-3.44-1.94-56.28-31.65-3.45-1.94-69.06-38.83-3.45-1.94-86.41-48.59-3.44-1.94-110.87-62.35-3.45-1.94-146.89-82.61-3.44-1.94-183.57-103.23-19.53-10.98H1845.55s-19.53,10.98-19.53,10.98l-183.57,103.23-3.44,1.94-146.89,82.61-3.45,1.94-110.87,62.35-3.44,1.94-86.41,48.59-3.45,1.94-69.06,38.83-3.45,1.94-56.28,31.65-3.44,1.94-7.09,3.99v2.22s1.94-1.08,1.94-1.08l36.29-20.42,1.94-1.08,41.32-23.23,1.94-1.1,47.39-26.64,1.95-1.11,54.84-30.84,1.94-1.08,64.15-36.08,1.95-1.11,75.93-42.7,1.94-1.08,91.18-51.28,1.94-1.08,111.37-62.64,1.95-1.09,138.94-78.13,1.95-1.09,23.73-13.34,3.23-1.82H-777.13s26.96,15.16,26.96,15.16Z"/>
              <polygon class="cls-11" points="209.2 103.75 210.97 102.95 211.58 104.31 262.34 218.52 263.22 220.46 299.94 303.06 300.8 305.01 328.51 367.35 329.39 369.29 350.99 417.88 351.85 419.82 369.11 458.66 369.97 460.59 384.04 492.24 384.9 494.19 386.29 497.3 384.17 497.3 382.78 494.19 381.92 492.24 367.84 460.59 366.98 458.66 349.72 419.82 348.85 417.88 327.25 369.29 326.39 367.35 298.68 305.01 297.82 303.06 261.09 220.46 260.22 218.52 209.45 104.31 209.2 103.75"/>
              <polygon class="cls-13" points="45.36 103.89 46.97 102.81 47.97 104.31 124.14 218.52 125.43 220.46 180.51 303.06 181.81 305.01 223.39 367.35 224.67 369.29 257.08 417.88 258.38 419.82 284.27 458.66 285.56 460.59 306.67 492.24 307.95 494.19 310.03 497.3 307.7 497.3 305.63 494.19 304.33 492.24 283.23 460.59 281.93 458.66 256.05 419.82 254.75 417.88 222.34 369.29 221.06 367.35 179.48 305.01 178.18 303.06 123.11 220.46 121.81 218.52 45.64 104.31 45.36 103.89"/>
              <polygon class="cls-18" points="-118.48 103.98 -117.02 102.7 -115.59 104.31 -14.04 218.52 -12.32 220.46 61.12 303.06 62.84 305.01 118.28 367.35 120 369.29 163.2 417.88 164.94 419.82 199.46 458.66 201.19 460.59 229.32 492.24 231.06 494.19 233.82 497.3 231.23 497.3 228.46 494.19 226.73 492.24 198.6 460.59 196.86 458.66 162.34 419.82 160.61 417.88 117.42 369.29 115.69 367.35 60.25 305.01 58.53 303.06 -14.92 220.46 -16.63 218.52 -118.18 104.31 -118.48 103.98"/>
              <polygon class="cls-6" points="-282.32 104.06 -281.02 102.62 -279.15 104.31 -152.22 218.52 -150.06 220.46 -58.25 303.06 -56.09 305.01 13.2 367.35 15.36 369.29 69.36 417.88 71.51 419.82 114.67 458.66 116.83 460.59 152 492.24 154.16 494.19 157.63 497.3 154.72 497.3 151.25 494.19 149.1 492.24 113.92 460.59 111.76 458.66 68.61 419.82 66.45 417.88 12.45 369.29 10.3 367.35 -59 305.01 -61.15 303.06 -152.95 220.46 -155.11 218.52 -282.04 104.31 -282.32 104.06"/>
              <polygon class="cls-3" points="-446.16 104.12 -445 102.56 -442.66 104.31 -290.35 218.52 -287.77 220.46 -177.6 303.06 -175.01 305 -91.86 367.35 -89.27 369.29 -24.46 417.88 -21.88 419.82 29.91 458.66 32.49 460.59 74.71 492.24 77.29 494.19 81.45 497.3 78.21 497.3 74.06 494.19 71.46 492.24 29.26 460.59 26.67 458.66 -25.12 419.82 -27.71 417.88 -92.52 369.29 -95.09 367.35 -178.26 305 -180.83 303.06 -291 220.46 -293.6 218.52 -445.91 104.31 -446.16 104.12"/>
              <polygon class="cls-12" points="-610.03 104.17 -608.98 102.53 -606.2 104.31 -428.51 218.52 -425.49 220.46 -296.95 303.06 -293.94 305 -196.92 367.35 -193.91 369.29 -118.31 417.88 -115.29 419.82 -54.86 458.66 -51.84 460.59 -2.61 492.24 .42 494.19 5.27 497.3 1.66 497.3 -3.18 494.19 -6.2 492.24 -55.45 460.59 -58.46 458.66 -118.88 419.82 -121.9 417.88 -197.52 369.29 -200.53 367.35 -297.53 305 -300.56 303.06 -429.09 220.46 -432.1 218.52 -609.81 104.31 -610.03 104.17"/>
            </g>
          </g>
        </g>
        <rect class="cls-9" x="-40.61" y="151.09" width="600.95" height="1293.79"/>
        <image width="1920" height="1080" transform="translate(-768.77 -99.29) scale(1.49)" xlink:href="../../../Pictures/Screenshots/Screenshot (2346).png"/>
      </g>
      <g class="cls-31">
        <g class="cls-23">
          <path class="cls-16" d="M-687.43,204.54l1.72.97,122.75,68.92,1.72.98,98.39,55.24,1.71.95,80.55,45.24,1.71.95,67.08,37.66,1.72.98,56.66,31.81,1.72.97,48.45,27.2,1.72.98,41.87,23.5,1.71.97,36.49,20.48,1.72.97,28.9,16.23,3.16,1.78,1.71.95v-1.53h-1.71v.51l-3.04-1.71h3.38l-4.9-2.75-3.04-1.71-49.72-27.92-3.05-1.71-61.01-34.25-3.05-1.71-76.34-42.86-3.04-1.71-97.95-54.99-3.05-1.71-129.77-72.86-3.04-1.71-162.17-91.05-17.25-9.69H1605.76l-17.25,9.69-162.17,91.05-3.04,1.71-129.77,72.86-3.05,1.71-97.95,54.99-3.04,1.71-76.34,42.86-3.05,1.71-61.01,34.25-3.05,1.71-49.72,27.92-3.04,1.71-6.27,3.52v1.96l1.71-.95,32.06-18.01,1.71-.95,36.5-20.49,1.71-.97,41.87-23.5,1.72-.98,48.45-27.2,1.71-.95,56.67-31.82,1.72-.98,67.08-37.66,1.71-.95,80.55-45.24,1.71-.95,98.39-55.25,1.72-.97,122.75-68.92,1.72-.97,20.96-11.77,2.86-1.6H-711.25l23.82,13.37Z"/>
          <polygon class="cls-14" points="160.13 192.38 161.69 191.68 162.23 192.88 207.08 293.61 207.85 295.33 240.29 368.19 241.05 369.9 265.53 424.89 266.31 426.6 285.39 469.46 286.15 471.18 301.4 505.43 302.16 507.14 314.59 535.05 315.35 536.76 316.58 539.51 314.7 539.51 313.47 536.76 312.71 535.05 300.28 507.14 299.52 505.43 284.27 471.18 283.5 469.46 264.41 426.6 263.66 424.89 239.18 369.9 238.42 368.19 205.97 295.33 205.2 293.61 160.35 192.88 160.13 192.38"/>
          <polygon class="cls-17" points="15.39 192.5 16.81 191.55 17.69 192.88 84.98 293.61 86.12 295.33 134.78 368.19 135.93 369.9 172.66 424.89 173.79 426.6 202.43 469.46 203.57 471.18 226.45 505.43 227.58 507.14 246.24 535.05 247.37 536.76 249.21 539.51 247.15 539.51 245.32 536.76 244.17 535.05 225.53 507.14 224.38 505.43 201.52 471.18 200.37 469.46 171.74 426.6 170.6 424.89 133.87 369.9 132.72 368.19 84.07 295.33 82.92 293.61 15.63 192.88 15.39 192.5"/>
          <polygon class="cls-5" points="-129.36 192.59 -128.08 191.46 -126.81 192.88 -37.09 293.61 -35.58 295.33 29.31 368.19 30.83 369.9 79.8 424.89 81.32 426.6 119.49 469.46 121.02 471.18 151.52 505.43 153.05 507.14 177.9 535.05 179.44 536.76 181.88 539.51 179.59 539.51 177.15 536.76 175.61 535.05 150.76 507.14 149.23 505.43 118.73 471.18 117.2 469.46 79.04 426.6 77.51 424.89 28.54 369.9 27.02 368.19 -37.87 295.33 -39.38 293.61 -129.1 192.88 -129.36 192.59"/>
          <polygon class="cls-1" points="-274.1 192.66 -272.96 191.39 -271.3 192.88 -159.17 293.61 -157.26 295.33 -76.15 368.19 -74.24 369.9 -13.03 424.89 -11.12 426.6 36.58 469.46 38.49 471.18 76.62 505.43 78.52 507.14 109.6 535.05 111.5 536.76 114.56 539.51 112 539.51 108.93 536.76 107.03 535.05 75.95 507.14 74.05 505.43 35.92 471.18 34.02 469.46 -13.69 426.6 -15.59 424.89 -76.81 369.9 -78.71 368.19 -159.81 295.33 -161.72 293.61 -273.85 192.88 -274.1 192.66"/>
          <polygon class="cls-8" points="-418.85 192.71 -417.83 191.33 -415.76 192.88 -281.2 293.61 -278.92 295.33 -181.59 368.19 -179.3 369.9 -105.84 424.89 -103.55 426.6 -46.3 469.46 -44.02 471.18 1.74 505.43 4.01 507.14 41.32 535.05 43.59 536.76 47.26 539.51 44.41 539.51 40.74 536.76 38.45 535.05 1.16 507.14 -1.13 505.43 -46.88 471.18 -49.17 469.46 -106.42 426.6 -108.7 424.89 -182.17 369.9 -184.45 368.19 -281.78 295.33 -284.07 293.61 -418.63 192.88 -418.85 192.71"/>
        </g>
      </g>
      <rect class="cls-9" x="-377.17" y="45.31" width="1805.15" height="1471.96"/>
    </g>
  </g>
  <g class="cls-27">
    <g class="cls-33">
      <g class="cls-24">
        <g class="cls-25">
          <g class="cls-21">
            <g class="cls-20">
              <path class="cls-10" d="M293.24,134.05l1.95,1.09,138.94,78.13,1.95,1.11,111.37,62.63,1.94,1.08,91.18,51.29,1.94,1.08,75.93,42.7,1.95,1.11,64.14,36.06,1.95,1.1,54.84,30.84,1.95,1.11,47.39,26.64,1.94,1.1,41.3,23.22,1.95,1.1,32.71,18.4,3.58,2.02,1.94,1.08v-1.74s-1.94,0-1.94,0v.58s-3.44-1.94-3.44-1.94h3.83s-5.55-3.11-5.55-3.11l-3.44-1.94-56.28-31.65-3.45-1.94-69.06-38.83-3.45-1.94-86.41-48.59-3.44-1.94-110.87-62.35-3.45-1.94-146.89-82.61-3.44-1.94-183.57-103.23-19.53-10.98h2615.25s-19.53,10.98-19.53,10.98l-183.57,103.23-3.44,1.94-146.89,82.61-3.45,1.94-110.87,62.35-3.44,1.94-86.41,48.59-3.45,1.94-69.06,38.83-3.45,1.94-56.28,31.65-3.44,1.94-7.09,3.99v2.22s1.94-1.08,1.94-1.08l36.29-20.42,1.94-1.08,41.32-23.23,1.94-1.1,47.39-26.64,1.95-1.11,54.84-30.84,1.94-1.08,64.15-36.08,1.95-1.11,75.93-42.7,1.94-1.08,91.18-51.28,1.94-1.08,111.37-62.64,1.95-1.09,138.94-78.13,1.95-1.09,23.73-13.34,3.23-1.82H266.28s26.96,15.16,26.96,15.16Z"/>
            </g>
          </g>
        </g>
      </g>
    </g>
  </g>
  <path class="cls-19" d="M64.07,54c7.14-3.44,15.7-.4,19.12,6.79,3.42,7.19.4,15.81-6.75,19.25-24.64,11.92-35.21,27.33-36.02,40.73-.34,5.64,1.05,10.91,3.81,15.27,2.8,4.42,7.06,8.01,12.41,10.21,12.89,5.33,31.85,2.63,53.06-14.54,6.18-5,15.22-4.01,20.19,2.21,4.97,6.22,3.99,15.32-2.19,20.32-30.6,24.76-60.37,27.65-81.97,18.73-10.9-4.5-19.73-12.04-25.68-21.42-6-9.45-9.03-20.67-8.31-32.47,1.4-22.86,16.8-47.87,52.33-65.06h0ZM100.46,33.93c-.28-7.97,5.91-14.66,13.83-14.94,7.92-.28,14.57,5.95,14.85,13.93l2.35,60.88c.2,5.72-2.93,10.78-7.64,13.29l-45.23,25.26c-6.93,3.88-15.66,1.37-19.51-5.6-3.85-6.97-1.36-15.76,5.57-19.64l37.8-21.11-2.01-52.05h0Z"/>
  <path class="cls-4" d="M216.1,142.55c-7.14,3.44-15.7.4-19.12-6.79-3.42-7.19-.4-15.81,6.75-19.25,24.64-11.92,35.21-27.33,36.02-40.73.34-5.64-1.05-10.91-3.81-15.27-2.8-4.42-7.06-8-12.41-10.21-12.89-5.33-31.85-2.63-53.06,14.54-6.18,5-15.22,4.01-20.19-2.21s-3.99-15.32,2.19-20.32c30.6-24.76,60.37-27.65,81.97-18.73,10.9,4.5,19.73,12.04,25.68,21.42,6,9.45,9.03,20.67,8.31,32.47-1.4,22.86-16.8,47.87-52.33,65.06h0ZM179.72,162.62c.28,7.97-5.91,14.66-13.83,14.94-7.92.28-14.57-5.95-14.84-13.93l-2.35-60.88c-.2-5.72,2.93-10.78,7.64-13.29l45.23-25.26c6.93-3.88,15.66-1.37,19.51,5.6,3.85,6.97,1.36,15.76-5.57,19.64l-37.8,21.11,2.01,52.05h0Z"/>
</svg>