<?xml version="1.0" encoding="UTF-8"?>
<svg id="Layer_1" data-name="Layer 1" xmlns="http://www.w3.org/2000/svg" xmlns:xlink="http://www.w3.org/1999/xlink" viewBox="0 0 186.72 180.46">
  <defs>
    <style>
      .cls-1 {
        fill: url(#linear-gradient);
      }

      .cls-1, .cls-2, .cls-3, .cls-4, .cls-5, .cls-6, .cls-7, .cls-8, .cls-9, .cls-10, .cls-11, .cls-12 {
        stroke-width: 0px;
      }

      .cls-13 {
        opacity: .5;
      }

      .cls-2 {
        fill: url(#linear-gradient-6);
      }

      .cls-14 {
        clip-path: url(#clippath-2);
      }

      .cls-15 {
        opacity: .2;
      }

      .cls-3 {
        fill: url(#linear-gradient-5);
      }

      .cls-4 {
        fill: none;
      }

      .cls-5 {
        fill: #ff5e37;
      }

      .cls-16 {
        clip-path: url(#clippath-1);
      }

      .cls-6, .cls-17 {
        fill: #fff;
      }

      .cls-7 {
        fill: url(#linear-gradient-2);
      }

      .cls-8 {
        fill: url(#linear-gradient-7);
      }

      .cls-9 {
        fill: url(#linear-gradient-3);
      }

      .cls-18 {
        clip-path: url(#clippath);
      }

      .cls-10 {
        fill: url(#radial-gradient);
      }

      .cls-19 {
        clip-path: url(#clippath-3);
      }

      .cls-11 {
        fill: url(#linear-gradient-8);
      }

      .cls-20 {
        mask: url(#mask-1);
      }

      .cls-21 {
        mask: url(#mask);
      }

      .cls-12 {
        fill: url(#linear-gradient-4);
      }

      .cls-17 {
        stroke: #2f8066;
        stroke-linecap: round;
        stroke-linejoin: round;
        stroke-width: .5px;
      }
    </style>
    <clipPath id="clippath">
      <rect class="cls-4" x="80.06" y="376.48" width="885.8" height="885.8"/>
    </clipPath>
    <clipPath id="clippath-1">
      <rect class="cls-4" x="80.06" y="379.6" width="1562.92" height="880.52"/>
    </clipPath>
    <clipPath id="clippath-2">
      <rect class="cls-4" x="123.51" y="377.57" width="1572.61" height="884.59"/>
    </clipPath>
    <clipPath id="clippath-3">
      <rect class="cls-4" x="70.41" y="336.41" width="1657.12" height="934.59"/>
    </clipPath>
    <radialGradient id="radial-gradient" cx="-928.31" cy="1438.85" fx="-928.31" fy="1438.85" r="904.08" gradientTransform="translate(1977.06 -59.38) scale(1.21 .6)" gradientUnits="userSpaceOnUse">
      <stop offset=".73" stop-color="#fff"/>
      <stop offset="1" stop-color="#000" stop-opacity="0"/>
    </radialGradient>
    <mask id="mask" x="-423.37" y="83.39" width="2630.12" height="1490.44" maskUnits="userSpaceOnUse">
      <rect class="cls-10" x="-410.78" y="120.98" width="2526.27" height="1360.97"/>
    </mask>
    <linearGradient id="linear-gradient" x1="-12188.38" y1="12151.86" x2="-12188.38" y2="11519.37" gradientTransform="translate(-11296.69 12251.94) rotate(-180)" gradientUnits="userSpaceOnUse">
      <stop offset=".14" stop-color="#666"/>
      <stop offset=".17" stop-color="#747474"/>
      <stop offset=".25" stop-color="#999"/>
      <stop offset=".33" stop-color="#b9b9b9"/>
      <stop offset=".41" stop-color="#d2d2d2"/>
      <stop offset=".51" stop-color="#e6e6e6"/>
      <stop offset=".62" stop-color="#f4f4f4"/>
      <stop offset=".76" stop-color="#fcfcfc"/>
      <stop offset="1" stop-color="#fff"/>
    </linearGradient>
    <linearGradient id="linear-gradient-2" x1="-13290.75" y1="26771.15" x2="-13290.75" y2="26143.35" gradientTransform="translate(-12999.33 26871.16) rotate(-180)" xlink:href="#linear-gradient"/>
    <linearGradient id="linear-gradient-3" x1="-13170.74" y1="26771.17" x2="-13170.74" y2="26143.41" gradientTransform="translate(-12999.33 26871.16) rotate(-180)" xlink:href="#linear-gradient"/>
    <linearGradient id="linear-gradient-4" x1="-13050.71" y1="26771.17" x2="-13050.71" y2="26143.46" gradientTransform="translate(-12999.33 26871.16) rotate(-180)" xlink:href="#linear-gradient"/>
    <mask id="mask-1" x="-357.49" y="172.19" width="2323.57" height="1314.64" maskUnits="userSpaceOnUse"/>
    <linearGradient id="linear-gradient-5" x1="-14018.09" y1="24143.95" x2="-14018.09" y2="23586.07" gradientTransform="translate(-13213.79 24330.86) rotate(-180)" xlink:href="#linear-gradient"/>
    <linearGradient id="linear-gradient-6" x1="-13487.79" y1="24144.01" x2="-13487.79" y2="23590.27" gradientTransform="translate(-13213.79 24330.86) rotate(-180)" xlink:href="#linear-gradient"/>
    <linearGradient id="linear-gradient-7" x1="-13381.76" y1="24144.03" x2="-13381.76" y2="23590.32" gradientTransform="translate(-13213.79 24330.86) rotate(-180)" xlink:href="#linear-gradient"/>
    <linearGradient id="linear-gradient-8" x1="-13275.73" y1="24144.03" x2="-13275.73" y2="23590.37" gradientTransform="translate(-13213.79 24330.86) rotate(-180)" xlink:href="#linear-gradient"/>
  </defs>
  <g class="cls-18">
    <g class="cls-16">
      <g class="cls-14">
        <g class="cls-19">
          <rect class="cls-17" x="-49.17" y="146.38" width="1837.93" height="1380.42"/>
          <g class="cls-21">
            <g class="cls-13">
              <path class="cls-1" d="M-396.41,98.55l1.95,1.09,138.94,78.13,1.95,1.11,111.37,62.63,1.94,1.08,91.18,51.29,1.94,1.08,75.93,42.7,1.95,1.11,64.14,36.06,1.95,1.1,54.84,30.84,1.95,1.11,47.39,26.64,1.94,1.1,41.3,23.22,1.95,1.1,32.71,18.4,3.58,2.02,1.94,1.08v-1.74s-1.94,0-1.94,0v.58s-3.44-1.94-3.44-1.94h3.83s-5.55-3.11-5.55-3.11l-3.44-1.94-56.28-31.65-3.45-1.94-69.06-38.83-3.45-1.94-86.41-48.59-3.44-1.94-110.87-62.35-3.45-1.94-146.89-82.61-3.44-1.94-183.57-103.23-19.53-10.98h2615.25s-19.53,10.98-19.53,10.98l-183.57,103.23-3.44,1.94-146.89,82.61-3.45,1.94-110.87,62.35-3.44,1.94-86.41,48.59-3.45,1.94-69.06,38.83-3.45,1.94-56.28,31.65-3.44,1.94-7.09,3.99v2.22s1.94-1.08,1.94-1.08l36.29-20.42,1.94-1.08,41.32-23.23,1.94-1.1,47.39-26.64,1.95-1.11,54.84-30.84,1.94-1.08,64.15-36.08,1.95-1.11,75.93-42.7,1.94-1.08,91.18-51.28,1.94-1.08,111.37-62.64,1.95-1.09,138.94-78.13,1.95-1.09,23.73-13.34,3.23-1.82H-423.37s26.96,15.16,26.96,15.16Z"/>
              <polygon class="cls-7" points="71.45 85.08 72.74 83.64 74.62 85.33 201.55 199.54 203.7 201.48 295.52 284.09 297.67 286.03 366.97 348.37 369.12 350.31 423.12 398.91 425.28 400.85 468.43 439.68 470.59 441.62 505.77 473.27 507.92 475.21 511.39 478.32 508.48 478.32 505.02 475.21 502.86 473.27 467.68 441.62 465.53 439.68 422.37 400.85 420.21 398.91 366.22 350.31 364.06 348.37 294.77 286.03 292.61 284.09 200.81 201.48 198.66 199.54 71.73 85.33 71.45 85.08"/>
              <polygon class="cls-9" points="-92.39 85.15 -91.24 83.58 -88.9 85.33 63.42 199.54 65.99 201.48 176.16 284.09 178.76 286.03 261.9 348.37 264.5 350.31 329.3 398.91 331.88 400.85 383.68 439.68 386.26 441.62 428.48 473.27 431.05 475.21 435.21 478.32 431.98 478.32 427.82 475.21 425.23 473.27 383.02 441.62 380.43 439.68 328.65 400.85 326.06 398.91 261.25 350.31 258.67 348.37 175.51 286.03 172.93 284.09 62.76 201.48 60.17 199.54 -92.14 85.33 -92.39 85.15"/>
              <polygon class="cls-12" points="-256.27 85.19 -255.22 83.55 -252.44 85.33 -74.74 199.54 -71.73 201.48 56.81 284.09 59.82 286.03 156.84 348.37 159.86 350.31 235.46 398.91 238.47 400.85 298.91 439.68 301.92 441.62 351.16 473.27 354.19 475.21 359.03 478.32 355.42 478.32 350.58 475.21 347.56 473.27 298.31 441.62 295.3 439.68 234.88 400.85 231.87 398.91 156.25 350.31 153.23 348.37 56.23 286.03 53.2 284.09 -75.32 201.48 -78.34 199.54 -256.05 85.33 -256.27 85.19"/>
            </g>
          </g>
        </g>
        <image width="1920" height="1080" transform="translate(-415 -118.26) scale(1.49)" xlink:href="../../../Pictures/Screenshots/Screenshot (2346).png"/>
      </g>
      <g class="cls-20">
        <g class="cls-15">
          <path class="cls-3" d="M-333.67,185.56l1.72.97,122.75,68.92,1.72.98,98.39,55.24,1.71.95,80.55,45.24,1.71.95,67.08,37.66,1.72.98,56.66,31.81,1.72.97,48.45,27.2,1.72.98,41.87,23.5,1.71.97,36.49,20.48,1.72.97,28.9,16.23,3.16,1.78,1.71.95v-1.53h-1.71v.51l-3.04-1.71h3.38l-4.9-2.75-3.04-1.71-49.72-27.92-3.05-1.71-61.01-34.25-3.05-1.71-76.34-42.86-3.04-1.71-97.95-54.99-3.05-1.71-129.77-72.86-3.04-1.71-162.17-91.05-17.25-9.69H1959.52l-17.25,9.69-162.17,91.05-3.04,1.71-129.77,72.86-3.05,1.71-97.95,54.99-3.04,1.71-76.34,42.86-3.05,1.71-61.01,34.25-3.05,1.71-49.72,27.92-3.04,1.71-6.27,3.52v1.96l1.71-.95,32.06-18.01,1.71-.95,36.5-20.49,1.71-.97,41.87-23.5,1.72-.98,48.45-27.2,1.71-.95,56.67-31.82,1.72-.98,67.08-37.66,1.71-.95,80.55-45.24,1.71-.95,98.39-55.25,1.72-.97,122.75-68.92,1.72-.97,20.96-11.77,2.86-1.6H-357.49l23.82,13.37Z"/>
          <polygon class="cls-2" points="79.66 173.68 80.81 172.41 82.46 173.9 194.6 274.64 196.5 276.35 277.62 349.21 279.52 350.92 340.74 405.92 342.64 407.63 390.35 450.49 392.25 452.2 430.38 486.45 432.28 488.16 463.36 516.08 465.26 517.79 468.33 520.53 465.76 520.53 462.7 517.79 460.79 516.08 429.72 488.16 427.81 486.45 389.68 452.2 387.78 450.49 340.07 407.63 338.17 405.92 276.95 350.92 275.05 349.21 193.95 276.35 192.05 274.64 79.91 173.9 79.66 173.68"/>
          <polygon class="cls-8" points="-65.08 173.74 -64.06 172.36 -61.99 173.9 72.57 274.64 74.84 276.35 172.17 349.21 174.46 350.92 247.92 405.92 250.21 407.63 307.47 450.49 309.74 452.2 355.5 486.45 357.78 488.16 395.08 516.08 397.36 517.79 401.03 520.53 398.17 520.53 394.5 517.79 392.21 516.08 354.92 488.16 352.63 486.45 306.89 452.2 304.59 450.49 247.34 407.63 245.06 405.92 171.59 350.92 169.32 349.21 71.99 276.35 69.7 274.64 -64.86 173.9 -65.08 173.74"/>
          <polygon class="cls-11" points="-209.86 173.78 -208.93 172.33 -206.48 173.9 -49.49 274.64 -46.83 276.35 66.73 349.21 69.39 350.92 155.1 405.92 157.77 407.63 224.56 450.49 227.22 452.2 280.61 486.45 283.27 488.16 326.77 516.08 329.45 517.79 333.73 520.53 330.54 520.53 326.26 517.79 323.6 516.08 280.09 488.16 277.42 486.45 224.05 452.2 221.38 450.49 154.58 407.63 151.92 405.92 66.22 350.92 63.54 349.21 -50 276.35 -52.66 274.64 -209.66 173.9 -209.86 173.78"/>
        </g>
      </g>
      <rect class="cls-6" x="-23.4" y="26.33" width="1805.15" height="1471.96"/>
    </g>
  </g>
  <g>
    <path class="cls-5" d="M107.41,49.58c7.22-9.76,14.5-19.2,22.27-28.55,9.68-11.64,19.34-16.97,34.52-17.1,1.82.41,2.38.39,4.18.39l.5,17.52c-8.54.25-18.01,1.52-23.67,8.58-12.71,15.82-25.99,32.36-37.73,48.88-2.25-3.24-14.74-19.04-15.49-21.17,2.84-2.42,4.31-12.68,4.61-16.64.14-1.87-.24-3.27.38-5.09,2.4,2.18,8.53,10.37,10.42,13.18Z"/>
    <path class="cls-5" d="M111.62,111.38l.27.29c2.58,2.8,6.78,8.76,9.19,11.98l13.71,18.05c8.2,10.91,11.95,18.3,27.03,19.18l5.33.41c1.13.59,1.8.63,2.16,1.67,1.34,3.8-2.32,13.13-.73,16.02-.84.29-1.68.59-2.52.86-1.88.04-3.16-.08-5.02-.25-1.81.16-3.61-.13-5.39-.29-17.35-1.51-26.41-16.24-36.19-28.6-3.53-4.46-8.52-10.19-11.34-15.05-2.89,3.1-5.37,7.63-8.47,11.01-1.1-3.44.22-9.01,1.72-12.22,5.92-4.96,7.43-6.25,9.66-13.66.32-3.54.49-5.85.57-9.42Z"/>
    <path class="cls-5" d="M164.45,160.93c2.2.42,4.57.16,6.78.15-.15,4.68-.11,13.54-.1,18.47-2.24.27-4.63.41-6.87.17.14-.28.29-.58.43-.87-.27-2.93.36-12.37.13-16.22-.06-1.05-.18-1.1-.37-1.69Z"/>
    <path class="cls-5" d="M74.43,91.85c2.21,2.84,10.02,12.74,11.54,15.78-2.24.91-24.65,35.08-29.71,38.23-7.19,4.48-15.34-3.65-12.49-11.75,2.68-7.61,30.04-38.63,30.66-42.26Z"/>
    <path class="cls-5" d="M31.85,92.28c-.83-.94-1.75-2.01-2.49-3.01-10.76-14.47-22.27-27.47-19.74-47C12.69,18.4,34.25,1.46,58.22,4.45c20.15,2.51,27.77,17.36,38.76,31.96-.62,1.82-.25,3.21-.38,5.09-.29,3.96-1.77,14.22-4.61,16.64-6.96-9.35-17.85-25.84-26.47-32.72-13.9-11.09-37.33,1.86-38.47,19-2.03,18.47,18.69,32.87,26.16,48.25-6.36,8.91-12.96,17.53-19.67,26.18-2.36,3.28-4.67,6.62-6.05,10.45-8.28,22.9,19.71,44.32,39.16,28.81,1.68-1.34,3.87-3.42,5.18-5.1,8.03-10.33,16.93-20.88,24.49-31.5-3.09-4.57-6.83-9.61-10.35-13.88-1.52-3.04-9.32-12.94-11.54-15.78-7.53-10.44-28.02-34.39-31.72-44.47,1.45-5.65,4.12-11.37,11.35-9.85,2.18.46,5.13,4.46,6.68,6.09,9.7,12.07,18.66,24.9,27.91,37.33l14.58,19.4c2.5,3.27,6.15,7.72,8.39,11.03-.08,3.56-.25,5.87-.57,9.42-2.23,7.41-3.74,8.71-9.66,13.66-1.5,3.21-2.82,8.78-1.72,12.22-12.87,15.4-20.6,31.64-43.33,33.58-23.97,2.31-45.49-15.4-47.59-39.46-1.5-17.22,6.47-28.13,16.78-40.7,2.1-2.57,4.17-5.26,6.32-7.82Z"/>
    <path class="cls-5" d="M161.14,38.99c10.43.02,11.12,8.57,7.53,16.34-3.08,6.67-9.63,13.9-14.08,19.92-3.98,5.39-8.84,12.1-13.39,16.92,5.82,6.57,24.45,30.56,27.05,38.2,1.12,3.27,1.91,8.05.23,11.24-.87,1.64-2.4,2.88-4.22,3.3-2.35.55-4.3-.85-6.2-2.01-5.32-4.11-9.13-10.25-13.27-15.42-8.87-11.09-17.28-24.44-26.88-34.74l20.9-27.09c4.89-6.33,16.38-22.89,22.32-26.65Z"/>
  </g>
</svg>