<?xml version="1.0" encoding="UTF-8"?>
<svg id="Layer_1" data-name="Layer 1" xmlns="http://www.w3.org/2000/svg" xmlns:xlink="http://www.w3.org/1999/xlink" viewBox="0 0 230.8 206.73">
  <defs>
    <style>
      .cls-1 {
        clip-path: url(#clippath-2);
      }

      .cls-2 {
        fill: none;
      }

      .cls-2, .cls-3 {
        stroke-width: 0px;
      }

      .cls-4 {
        clip-path: url(#clippath-1);
      }

      .cls-5 {
        clip-path: url(#clippath);
      }

      .cls-3 {
        fill: #001506;
      }
    </style>
    <clipPath id="clippath">
      <rect class="cls-2" x="489.95" y="696.5" width="885.8" height="885.8"/>
    </clipPath>
    <clipPath id="clippath-1">
      <rect class="cls-2" x="489.95" y="699.62" width="1562.92" height="880.52"/>
    </clipPath>
    <clipPath id="clippath-2">
      <rect class="cls-2" x="533.4" y="697.58" width="1572.61" height="884.59"/>
    </clipPath>
  </defs>
  <g class="cls-5">
    <g class="cls-4">
      <g class="cls-1">
        <image width="1920" height="1080" transform="translate(-5.11 201.75) scale(1.49)" xlink:href="../../../Pictures/Screenshots/Screenshot (2346).png"/>
      </g>
    </g>
  </g>
  <g>
    <path class="cls-3" d="M34.2,16.62h28.47c7.54,0,12.12.96,17.62,6.34l1.75,1.79,1.83,1.83c1.59,1.63,3.19,3.23,4.7,4.98,1.52,1.75,2.87,3.11,4.39,4.62l.84.84,2.59,2.55,3.43,3.39.76.76c1.2,1.2,2.35,2.39,3.43,3.67,1.99,2.31,4.19,4.43,6.34,6.58l2.43,2.39,5.14,5.14,5.98,5.94,2.35,2.35c2.15,2.15,4.23,4.23,6.18,6.54,1.28,1.44,2.67,2.79,4.03,4.15l.96.96,3.03,2.99,3.99,3.95.88.92c1.63,1.59,3.19,3.23,4.66,4.98.88,1,1.79,1.91,2.71,2.83l.56.56,1.75,1.71q4.27,4.19,5.7,5.9c2.19,2.55,4.66,4.9,7.06,7.26q5.5,5.46,6.94,7.14c2.31,2.71,4.9,5.14,7.42,7.61q6.18,6.14,8.25,8.57c1.07,1.3,2.32,2.44,3.71,3.39q1.36.12,2.39-.4c1.04-.52.44-1.59.44-2.71v-14.99c.04-2.63.48-4.15,2.43-6.02,1.95-1.87,4.19-1.52,6.74-1.52h10.88c2.39,0,4.23.4,6.22,1.79,1.83,1.99,2.03,3.31,2.03,5.94.03.33.05.66.04,1v12.12c0,1.36,0,2.67.04,4.03v12.6c0,4.86,0,9.69.04,14.55v11.24c0,2.23,0,4.47.04,6.7v12.72c0,2.07-.52,3.23-1.79,4.82-2.07,1.67-4.43,1.83-6.98,1.83h-6.74c-8.09.04-11.96-2.79-17.54-8.33l-2.87-2.87-1.55-1.55-3.23-3.19c-1.36-1.4-2.71-2.75-4.11-4.11l-3.15-3.19-1.52-1.52c-2.27-2.27-4.51-4.51-6.62-6.94-1.52-1.75-3.19-3.35-4.82-4.98-.72-.68-1.4-1.36-2.07-2.07l-4.39-4.35-5.06-5.06-2.03-1.99q-3.39-3.39-4.82-5.06c-1.44-1.67-3.95-4.19-6.02-6.22l-2.27-2.31-4.9-4.86c-1.87-1.87-3.79-3.75-5.66-5.66l-2.27-2.23c-2.03-2.03-4.03-4.07-5.9-6.26-1.87-2.19-2.99-3.11-4.55-4.66l-1.91-1.87-4.03-4.03-4.7-4.66-1.83-1.83c-1.87-1.83-3.67-3.71-5.34-5.7-1.67-1.99-4.62-4.82-6.94-7.18l-1.99-2.03-2.95-2.95-.88-.92c-4.27-4.23-8.73-5.7-14.67-5.74h-31.42c-1.28.04-2.59,0-3.91,0h-1.16c-2.23,0-3.55-.28-5.34-1.79s-2.03-2.63-2.03-4.86v-9.61c0-.56,0-1.16-.04-1.71v-8.21c0-3.19,0-6.34-.04-9.49v-7.34c0-1.48,0-2.91-.04-4.39v-6.34q.04-4.23,1.79-6.02c1.75-1.79,4.23-2.27,7.14-2.23Z"/>
    <path class="cls-3" d="M32.84,113.7h49.88c6.78.04,10.61,2.99,15.23,7.61l.88.88,2.87,2.87,1.99,1.99,4.19,4.19,5.34,5.34c1.4,1.36,2.79,2.75,4.15,4.15l1.99,1.95,2.75,2.75.8.8c2.47,2.51,5.46,5.7,5.5,9.41v23.48c.04,2.59.04,5.18.04,7.73v8.33c0,2.39-.24,3.91-1.95,5.66-1.71,1.75-3.15,1.83-5.62,1.83h-58.33c-6.66.04-10.37-1.79-15.07-6.34l-2.59-2.59-1.4-1.36-2.87-2.91-3.71-3.67-2.87-2.87c-.44-.48-.92-.92-1.36-1.36q-6.98-6.94-7.38-10.88v-12.44c-.04-3.11-.04-6.22-.04-9.33v-8.73c0-2.47-.04-4.98-.04-7.46v-10.92c0-2.55.04-4.19,1.79-6.1,1.75-1.91,3.39-2.03,5.82-2.03Z"/>
    <path class="cls-3" d="M126.65,16.82h60.44c4.7-.04,8.49.36,12.08,3.71l.88.72,1.12,1.08,3.07,3.03,1.87,1.91q3.39,3.39,4.9,5.14c1.52,1.75,2.47,2.67,3.75,3.95l.68.64,2.67,2.59q6.94,6.74,7.1,11.08c.04.64.04,1.28.04,1.91v12c0,2.15,0,4.35.04,6.5v4.98c0,.8,0,1.59.04,2.39v4.35c0,2.27-.48,3.55-1.79,5.42-2.95,2.43-5.98,2.51-9.69,2.51h-38.27c-6.66-.04-10.61-3.63-15.03-8.09-.84-.88-1.63-1.75-2.39-2.67-2.19-2.55-4.62-4.82-6.98-7.18l-2.87-2.83-.64-.64c-1.12-1.12-2.19-2.27-3.23-3.47-1.48-1.71-3.07-3.31-4.66-4.9l-.92-.88-2.83-2.83-3.75-3.71-.88-.88c-1.57-1.54-3.08-3.18-4.55-4.9-.8-.92-1.71-1.75-2.63-2.63-4.31-4.31-5.7-8.85-5.7-14.87v-3.19q0-5.9,2.03-8.33l.72-.52.72-.6c1.52-.88,2.91-.8,4.66-.8Z"/>
    <path class="cls-3" d="M74.07,77.46c.68.22,1.35.49,1.99.8v.8l-5.58-.8c1.52-.76,1.99-.96,3.59-.8Z"/>
    <path class="cls-3" d="M88.82,114.54c1.73.5,3.35,1.31,4.78,2.39q-1.2.4-2.39,0v-.8l-.76-.16c-.57-.14-1.12-.35-1.63-.64v-.8Z"/>
    <path class="cls-3" d="M117.92,31.61h.4l.4,3.19h.4l.4,2.39-1.2.4c-.56-1.16-.44-2.15-.44-3.43v-2.55h.04Z"/>
    <path class="cls-3" d="M103.17,46.36c1.14.54,2.21,1.21,3.19,1.99l-.4,1.2-1.4-1.16-.8-.64-.6-.6v-.8Z"/>
    <path class="cls-3" d="M95.6,96.6c1.52.6,2.23,1.52,3.19,2.79q-1.2,0-2.27-.96c-1.08-.96-.92-1.04-.92-1.83Z"/>
    <path class="cls-3" d="M99.18,99.39l1.2.4v.8l1.59.8-.4,1.2-1.2-1.16-.68-.64q-.52-.6-.52-1.4Z"/>
    <path class="cls-3" d="M168.56,170.75c1.36.56,1.99,1.2,2.79,2.39q-1.2,0-2.07-.76c-.88-.76-.72-.84-.72-1.63Z"/>
    <path class="cls-3" d="M132.28,75.87c1.36.56,1.99,1.2,2.79,2.39q-1.2,0-2.07-.76c-.88-.76-.72-.84-.72-1.63Z"/>
    <path class="cls-3" d="M126.3,47.56c1.36.56,1.99,1.2,2.79,2.39q-1.2,0-2.07-.76c-.88-.76-.72-.84-.72-1.63Z"/>
  </g>
</svg>