<?xml version="1.0" encoding="UTF-8"?>
<svg id="Layer_1" data-name="Layer 1" xmlns="http://www.w3.org/2000/svg" xmlns:xlink="http://www.w3.org/1999/xlink" viewBox="0 0 217.39 222.8">
  <defs>
    <style>
      .cls-1 {
        fill: url(#linear-gradient);
      }

      .cls-1, .cls-2, .cls-3, .cls-4, .cls-5, .cls-6, .cls-7, .cls-8, .cls-9, .cls-10, .cls-11, .cls-12, .cls-13, .cls-14, .cls-15, .cls-16, .cls-17 {
        stroke-width: 0px;
      }

      .cls-18 {
        opacity: .5;
      }

      .cls-2 {
        fill: url(#linear-gradient-6);
      }

      .cls-3, .cls-15 {
        fill: #1e90ff;
      }

      .cls-19 {
        mask: url(#mask-2);
      }

      .cls-20 {
        clip-path: url(#clippath-2);
      }

      .cls-21 {
        opacity: .2;
      }

      .cls-22 {
        clip-path: url(#clippath-6);
      }

      .cls-4 {
        fill: url(#linear-gradient-11);
      }

      .cls-5 {
        fill: url(#linear-gradient-5);
      }

      .cls-6 {
        fill: none;
      }

      .cls-23 {
        clip-path: url(#clippath-7);
      }

      .cls-24 {
        clip-path: url(#clippath-1);
      }

      .cls-25 {
        clip-path: url(#clippath-4);
      }

      .cls-7, .cls-26 {
        fill: #fff;
      }

      .cls-8 {
        fill: url(#linear-gradient-2);
      }

      .cls-9 {
        fill: url(#linear-gradient-7);
      }

      .cls-10 {
        fill: url(#radial-gradient-2);
      }

      .cls-11 {
        fill: url(#linear-gradient-3);
      }

      .cls-27 {
        clip-path: url(#clippath);
      }

      .cls-12 {
        fill: url(#linear-gradient-9);
      }

      .cls-13 {
        fill: url(#radial-gradient);
      }

      .cls-28 {
        clip-path: url(#clippath-3);
      }

      .cls-14 {
        fill: url(#linear-gradient-8);
      }

      .cls-29 {
        mask: url(#mask-1);
      }

      .cls-30 {
        mask: url(#mask);
      }

      .cls-31 {
        clip-path: url(#clippath-5);
      }

      .cls-15 {
        fill-rule: evenodd;
      }

      .cls-16 {
        fill: url(#linear-gradient-10);
      }

      .cls-17 {
        fill: url(#linear-gradient-4);
      }

      .cls-26 {
        stroke: #2f8066;
        stroke-linecap: round;
        stroke-linejoin: round;
        stroke-width: .5px;
      }
    </style>
    <clipPath id="clippath">
      <rect class="cls-6" x="-658.39" y="410.77" width="885.8" height="885.8"/>
    </clipPath>
    <clipPath id="clippath-1">
      <rect class="cls-6" x="-658.39" y="413.89" width="1562.92" height="880.52"/>
    </clipPath>
    <clipPath id="clippath-2">
      <rect class="cls-6" x="-614.94" y="411.85" width="1572.61" height="884.59"/>
    </clipPath>
    <clipPath id="clippath-3">
      <rect class="cls-6" x="-668.04" y="370.7" width="1657.12" height="934.59"/>
    </clipPath>
    <radialGradient id="radial-gradient" cx="-1666.76" cy="1473.13" fx="-1666.76" fy="1473.13" r="904.08" gradientTransform="translate(2133.29 -45.61) scale(1.21 .6)" gradientUnits="userSpaceOnUse">
      <stop offset=".73" stop-color="#fff"/>
      <stop offset="1" stop-color="#000" stop-opacity="0"/>
    </radialGradient>
    <mask id="mask" x="-1161.82" y="117.68" width="2630.12" height="1490.44" maskUnits="userSpaceOnUse">
      <rect class="cls-13" x="-1149.23" y="155.27" width="2526.27" height="1360.97"/>
    </mask>
    <linearGradient id="linear-gradient" x1="-12926.83" y1="12186.14" x2="-12926.83" y2="11553.65" gradientTransform="translate(-12773.59 12320.5) rotate(-180)" gradientUnits="userSpaceOnUse">
      <stop offset=".14" stop-color="#666"/>
      <stop offset=".17" stop-color="#747474"/>
      <stop offset=".25" stop-color="#999"/>
      <stop offset=".33" stop-color="#b9b9b9"/>
      <stop offset=".41" stop-color="#d2d2d2"/>
      <stop offset=".51" stop-color="#e6e6e6"/>
      <stop offset=".62" stop-color="#f4f4f4"/>
      <stop offset=".76" stop-color="#fcfcfc"/>
      <stop offset="1" stop-color="#fff"/>
    </linearGradient>
    <linearGradient id="linear-gradient-2" x1="-14629.47" y1="26805.27" x2="-14629.47" y2="26176.79" gradientTransform="translate(-14476.23 26939.72) rotate(-180)" xlink:href="#linear-gradient"/>
    <linearGradient id="linear-gradient-3" x1="-14509.36" y1="26805.31" x2="-14509.36" y2="26177.04" gradientTransform="translate(-14476.23 26939.72) rotate(-180)" xlink:href="#linear-gradient"/>
    <linearGradient id="linear-gradient-4" x1="-14389.29" y1="26805.36" x2="-14389.29" y2="26177.26" gradientTransform="translate(-14476.23 26939.72) rotate(-180)" xlink:href="#linear-gradient"/>
    <mask id="mask-1" x="-1095.94" y="206.47" width="2323.57" height="1314.64" maskUnits="userSpaceOnUse"/>
    <linearGradient id="linear-gradient-5" x1="-14756.54" y1="24178.23" x2="-14756.54" y2="23620.35" gradientTransform="translate(-14690.69 24399.42) rotate(-180)" xlink:href="#linear-gradient"/>
    <linearGradient id="linear-gradient-6" x1="-14968.74" y1="24178.23" x2="-14968.74" y2="23624.22" gradientTransform="translate(-14690.69 24399.42) rotate(-180)" xlink:href="#linear-gradient"/>
    <linearGradient id="linear-gradient-7" x1="-14862.66" y1="24178.19" x2="-14862.66" y2="23624.03" gradientTransform="translate(-14690.69 24399.42) rotate(-180)" xlink:href="#linear-gradient"/>
    <linearGradient id="linear-gradient-8" x1="-14756.54" y1="24178.15" x2="-14756.54" y2="23623.8" gradientTransform="translate(-14690.69 24399.42) rotate(-180)" xlink:href="#linear-gradient"/>
    <clipPath id="clippath-4">
      <rect class="cls-6" x="385.03" y="427.28" width="885.8" height="885.8"/>
    </clipPath>
    <clipPath id="clippath-5">
      <rect class="cls-6" x="385.03" y="430.4" width="1562.92" height="880.52"/>
    </clipPath>
    <clipPath id="clippath-6">
      <rect class="cls-6" x="428.48" y="428.37" width="1572.61" height="884.59"/>
    </clipPath>
    <clipPath id="clippath-7">
      <rect class="cls-6" x="375.37" y="387.22" width="1657.12" height="934.59"/>
    </clipPath>
    <radialGradient id="radial-gradient-2" cx="-805.54" cy="1487.01" fx="-805.54" fy="1487.01" r="904.08" gradientTransform="translate(2133.29 -37.39) scale(1.21 .6)" xlink:href="#radial-gradient"/>
    <mask id="mask-2" x="-118.4" y="134.2" width="2630.12" height="1490.44" maskUnits="userSpaceOnUse">
      <rect class="cls-10" x="-105.81" y="171.78" width="2526.27" height="1360.97"/>
    </mask>
    <linearGradient id="linear-gradient-9" x1="-13970.25" y1="12169.63" x2="-13970.25" y2="11537.14" xlink:href="#linear-gradient"/>
    <linearGradient id="linear-gradient-10" x1="-14952.61" y1="26788.94" x2="-14952.61" y2="26161.18" gradientTransform="translate(-14476.23 26939.72) rotate(-180)" xlink:href="#linear-gradient"/>
    <linearGradient id="linear-gradient-11" x1="-14832.58" y1="26788.94" x2="-14832.58" y2="26161.23" gradientTransform="translate(-14476.23 26939.72) rotate(-180)" xlink:href="#linear-gradient"/>
    <image id="image" width="1920" height="1080" xlink:href="../../../Pictures/Screenshots/Screenshot (2346).png"/>
  </defs>
  <g class="cls-27">
    <g class="cls-24">
      <g class="cls-20">
        <g class="cls-28">
          <rect class="cls-26" x="-787.62" y="180.67" width="1837.93" height="1380.42"/>
          <g class="cls-30">
            <g class="cls-18">
              <path class="cls-1" d="M-1134.86,132.84l1.95,1.09,138.94,78.13,1.95,1.11,111.37,62.63,1.94,1.08,91.18,51.29,1.94,1.08,75.93,42.7,1.95,1.11,64.14,36.06,1.95,1.1,54.84,30.84,1.95,1.11,47.39,26.64,1.94,1.1,41.3,23.22,1.95,1.1,32.71,18.4,3.58,2.02,1.94,1.08v-1.74s-1.94,0-1.94,0v.58s-3.44-1.94-3.44-1.94h3.83s-5.55-3.11-5.55-3.11l-3.44-1.94-56.28-31.65-3.45-1.94-69.06-38.83-3.45-1.94-86.41-48.59-3.44-1.94-110.87-62.35-3.45-1.94-146.89-82.61-3.44-1.94-183.57-103.23-19.53-10.98H1460.86s-19.53,10.98-19.53,10.98l-183.57,103.23-3.44,1.94-146.89,82.61-3.45,1.94-110.87,62.35-3.44,1.94-86.41,48.59-3.45,1.94-69.06,38.83-3.45,1.94-56.28,31.65-3.44,1.94-7.09,3.99v2.22s1.94-1.08,1.94-1.08l36.29-20.42,1.94-1.08,41.32-23.23,1.94-1.1,47.39-26.64,1.95-1.11,54.84-30.84,1.94-1.08,64.15-36.08,1.95-1.11,75.93-42.7,1.94-1.08,91.18-51.28,1.94-1.08,111.37-62.64,1.95-1.09,138.94-78.13,1.95-1.09,23.73-13.34,3.23-1.82H-1161.82s26.96,15.16,26.96,15.16Z"/>
              <rect class="cls-8" x="152.26" y="118.65" width="1.95" height="393.96"/>
              <polygon class="cls-11" points="-11.63 118.87 -9.74 118.44 -9.47 119.62 15.91 233.83 16.35 235.77 34.7 318.37 35.14 320.31 49 382.66 49.43 384.6 60.23 433.19 60.66 435.13 69.29 473.96 69.72 475.9 76.75 507.55 77.19 509.49 77.88 512.61 75.89 512.61 75.19 509.49 74.77 507.55 67.72 475.9 67.3 473.96 58.66 435.13 58.24 433.19 47.43 384.6 47.01 382.66 33.14 320.31 32.72 318.37 14.35 235.77 13.93 233.83 -11.45 119.62 -11.63 118.87"/>
              <polygon class="cls-17" points="-175.48 119.05 -173.72 118.26 -173.11 119.62 -122.34 233.83 -121.47 235.77 -84.74 318.37 -83.89 320.31 -56.18 382.66 -55.3 384.6 -33.7 433.19 -32.84 435.13 -15.58 473.96 -14.72 475.9 -.65 507.55 .21 509.49 1.6 512.61 -.52 512.61 -1.91 509.49 -2.77 507.55 -16.84 475.9 -17.7 473.96 -34.96 435.13 -35.84 433.19 -57.44 384.6 -58.3 382.66 -86.01 320.31 -86.87 318.37 -123.59 235.77 -124.47 233.83 -175.23 119.62 -175.48 119.05"/>
            </g>
          </g>
        </g>
        <rect class="cls-7" x="-425.29" y="166.4" width="600.95" height="1293.79"/>
        <use transform="translate(-1153.45 -83.98) scale(1.49)" xlink:href="#image"/>
      </g>
      <g class="cls-29">
        <g class="cls-21">
          <path class="cls-5" d="M-1072.12,219.85l1.72.97,122.75,68.92,1.72.98,98.39,55.24,1.71.95,80.55,45.24,1.71.95,67.08,37.66,1.72.98,56.66,31.81,1.72.97,48.45,27.2,1.72.98,41.87,23.5,1.71.97,36.49,20.48,1.72.97,28.9,16.23,3.16,1.78,1.71.95v-1.53h-1.71v.51l-3.04-1.71h3.38l-4.9-2.75-3.04-1.71-49.72-27.92-3.05-1.71-61.01-34.25-3.05-1.71-76.34-42.86-3.04-1.71-97.95-54.99-3.05-1.71-129.77-72.86-3.04-1.71-162.17-91.05-17.25-9.69H1221.07l-17.25,9.69-162.17,91.05-3.04,1.71-129.77,72.86-3.05,1.71-97.95,54.99-3.04,1.71-76.34,42.86-3.05,1.71-61.01,34.25-3.05,1.71-49.72,27.92-3.04,1.71-6.27,3.52v1.96l1.71-.95,32.06-18.01,1.71-.95,36.5-20.49,1.71-.97,41.87-23.5,1.72-.98,48.45-27.2,1.71-.95,56.67-31.82,1.72-.98,67.08-37.66,1.71-.95,80.55-45.24,1.71-.95,98.39-55.25,1.72-.97,122.75-68.92,1.72-.97,20.96-11.77,2.86-1.6H-1095.94l23.82,13.37Z"/>
          <polygon class="cls-2" points="199.83 554.82 201.04 552.07 201.81 550.36 214.23 522.44 215.01 520.73 230.25 486.48 231.01 484.77 250.1 441.91 250.86 440.2 275.34 385.21 276.11 383.5 308.55 310.63 309.31 308.92 354.16 208.18 354.7 206.98 356.26 207.69 356.04 208.18 311.19 308.92 310.42 310.63 277.97 383.5 277.21 385.21 252.73 440.2 251.97 441.91 232.89 484.77 232.12 486.48 216.87 520.73 216.11 522.44 203.68 550.36 202.92 552.07 201.69 554.82 199.83 554.82"/>
          <polygon class="cls-9" points="132.43 554.82 133.04 552.07 133.42 550.36 139.63 522.44 140.02 520.73 147.64 486.48 148.02 484.77 157.56 441.91 157.94 440.2 170.18 385.21 170.57 383.5 186.78 310.63 187.17 308.92 209.6 208.18 209.83 207.15 211.5 207.52 211.35 208.18 188.92 308.92 188.55 310.63 172.32 383.5 171.95 385.21 159.7 440.2 159.32 441.91 149.77 484.77 149.4 486.48 141.77 520.73 141.4 522.44 135.17 550.36 134.8 552.07 134.18 554.82 132.43 554.82"/>
          <rect class="cls-14" x="64.99" y="207.33" width="1.72" height="347.49"/>
        </g>
      </g>
      <rect class="cls-7" x="-761.85" y="60.62" width="1805.15" height="1471.96"/>
    </g>
  </g>
  <g class="cls-25">
    <g class="cls-31">
      <g class="cls-22">
        <g class="cls-23">
          <g class="cls-19">
            <g class="cls-18">
              <path class="cls-12" d="M-91.44,149.36l1.95,1.09L49.45,228.58l1.95,1.11,111.37,62.63,1.94,1.08,91.18,51.29,1.94,1.08,75.93,42.7,1.95,1.11,64.14,36.06,1.95,1.1,54.84,30.84,1.95,1.11,47.39,26.64,1.94,1.1,41.3,23.22,1.95,1.1,32.71,18.4,3.58,2.02,1.94,1.08v-1.74s-1.94,0-1.94,0v.58s-3.44-1.94-3.44-1.94h3.83s-5.55-3.11-5.55-3.11l-3.44-1.94-56.28-31.65-3.45-1.94-69.06-38.83-3.45-1.94-86.41-48.59-3.44-1.94-110.87-62.35-3.45-1.94-146.89-82.61-3.44-1.94-183.57-103.23-19.53-10.98h2615.25s-19.53,10.98-19.53,10.98l-183.57,103.23-3.44,1.94-146.89,82.61-3.45,1.94-110.87,62.35-3.44,1.94-86.41,48.59-3.45,1.94-69.06,38.83-3.45,1.94-56.28,31.65-3.44,1.94-7.09,3.99v2.22s1.94-1.08,1.94-1.08l36.29-20.42,1.94-1.08,41.32-23.23,1.94-1.1,47.39-26.64,1.95-1.11,54.84-30.84,1.94-1.08,64.15-36.08,1.95-1.11,75.93-42.7,1.94-1.08,91.18-51.28,1.94-1.08,111.37-62.64,1.95-1.09,138.94-78.13,1.95-1.09,23.73-13.34,3.23-1.82H-118.4s26.96,15.16,26.96,15.16Z"/>
              <polygon class="cls-16" points="212.57 135.95 213.73 134.38 216.07 136.13 368.39 250.34 370.96 252.28 481.13 334.89 483.73 336.83 566.87 399.18 569.47 401.12 634.27 449.71 636.85 451.65 688.65 490.48 691.22 492.42 733.45 524.07 736.02 526.01 740.18 529.12 736.95 529.12 732.79 526.01 730.2 524.07 687.99 492.42 685.4 490.48 633.62 451.65 631.02 449.71 566.22 401.12 563.64 399.18 480.48 336.83 477.9 334.89 367.73 252.28 365.14 250.34 212.82 136.13 212.57 135.95"/>
              <polygon class="cls-4" points="48.7 135.99 49.75 134.35 52.53 136.13 230.23 250.34 233.24 252.28 361.78 334.89 364.79 336.83 461.81 399.18 464.83 401.12 540.43 449.71 543.44 451.65 603.88 490.48 606.89 492.42 656.13 524.07 659.16 526.01 664 529.12 660.39 529.12 655.55 526.01 652.53 524.07 603.28 492.42 600.27 490.48 539.85 451.65 536.83 449.71 461.22 401.12 458.2 399.18 361.2 336.83 358.17 334.89 229.65 252.28 226.63 250.34 48.92 136.13 48.7 135.99"/>
            </g>
          </g>
        </g>
        <use transform="translate(-110.03 -67.46) scale(1.49)" xlink:href="#image"/>
      </g>
    </g>
  </g>
  <g>
    <path class="cls-3" d="M37.98,23.36H3.85c2.16,190.77,172.07,188.58,180.87,175.14v-21.32C77.18,195.3,29.84,82.08,37.98,23.36Z"/>
    <path class="cls-15" d="M186.84,152.99c23.07-21.56,24.3-57.74,2.74-80.82-21.56-23.07-57.74-24.3-80.82-2.74-23.07,21.56-24.3,57.74-2.74,80.82,21.56,23.07,57.74,24.3,80.82,2.74ZM175.92,82.08c-17.23,8.45-37.54,7.77-54.16-1.83,8.45,17.23,7.77,37.54-1.83,54.16,17.23-8.45,37.54-7.77,54.16,1.83-8.45-17.23-7.77-37.54,1.83-54.16Z"/>
  </g>
</svg>