<svg width="105" height="31" viewBox="0 0 105 31" fill="none" xmlns="http://www.w3.org/2000/svg">
<rect width="104" height="30.0005" transform="translate(0.296875 0.796875)" fill="#FCF6F1"/>
<path d="M30.5604 13.9446H28.7876C28.7195 13.5658 28.5926 13.2325 28.407 12.9446C28.2214 12.6567 27.9941 12.4124 27.7251 12.2116C27.4562 12.0109 27.1551 11.8594 26.8217 11.7571C26.4922 11.6548 26.1418 11.6037 25.7706 11.6037C25.1001 11.6037 24.4998 11.7723 23.9695 12.1094C23.4429 12.4465 23.0263 12.9408 22.7195 13.5923C22.4164 14.2438 22.2649 15.0393 22.2649 15.9787C22.2649 16.9257 22.4164 17.7249 22.7195 18.3764C23.0263 19.0279 23.4448 19.5204 23.9751 19.8537C24.5054 20.187 25.102 20.3537 25.7649 20.3537C26.1323 20.3537 26.4808 20.3045 26.8104 20.206C27.1437 20.1037 27.4448 19.9541 27.7138 19.7571C27.9827 19.5601 28.21 19.3196 28.3956 19.0355C28.585 18.7476 28.7157 18.4181 28.7876 18.0469L30.5604 18.0526C30.4657 18.6245 30.282 19.151 30.0092 19.6321C29.7403 20.1094 29.3937 20.5223 28.9695 20.8707C28.549 21.2154 28.0679 21.4825 27.5263 21.6719C26.9846 21.8613 26.3937 21.956 25.7536 21.956C24.746 21.956 23.8482 21.7173 23.0604 21.2401C22.2725 20.759 21.6513 20.0715 21.1967 19.1776C20.746 18.2836 20.5206 17.2173 20.5206 15.9787C20.5206 14.7363 20.7479 13.67 21.2024 12.7798C21.657 11.8859 22.2782 11.2003 23.0661 10.723C23.8539 10.242 24.7498 10.0014 25.7536 10.0014C26.371 10.0014 26.9467 10.0904 27.4808 10.2685C28.0187 10.4427 28.5017 10.7003 28.9297 11.0412C29.3577 11.3783 29.7119 11.7912 29.9922 12.2798C30.2725 12.7647 30.4619 13.3196 30.5604 13.9446ZM34.2237 10.1605V21.7969H32.5249V10.1605H34.2237ZM40.1854 21.973C39.3672 21.973 38.6532 21.7855 38.0433 21.4105C37.4335 21.0355 36.96 20.5109 36.6229 19.8366C36.2857 19.1624 36.1172 18.3745 36.1172 17.473C36.1172 16.5677 36.2857 15.776 36.6229 15.098C36.96 14.42 37.4335 13.8935 38.0433 13.5185C38.6532 13.1435 39.3672 12.956 40.1854 12.956C41.0036 12.956 41.7176 13.1435 42.3274 13.5185C42.9373 13.8935 43.4107 14.42 43.7479 15.098C44.085 15.776 44.2536 16.5677 44.2536 17.473C44.2536 18.3745 44.085 19.1624 43.7479 19.8366C43.4107 20.5109 42.9373 21.0355 42.3274 21.4105C41.7176 21.7855 41.0036 21.973 40.1854 21.973ZM40.1911 20.5469C40.7214 20.5469 41.1607 20.4067 41.5092 20.1264C41.8577 19.8461 42.1153 19.473 42.282 19.0071C42.4524 18.5412 42.5376 18.0279 42.5376 17.4673C42.5376 16.9105 42.4524 16.3991 42.282 15.9332C42.1153 15.4635 41.8577 15.0866 41.5092 14.8026C41.1607 14.5185 40.7214 14.3764 40.1911 14.3764C39.657 14.3764 39.2138 14.5185 38.8615 14.8026C38.513 15.0866 38.2536 15.4635 38.0831 15.9332C37.9164 16.3991 37.8331 16.9105 37.8331 17.4673C37.8331 18.0279 37.9164 18.5412 38.0831 19.0071C38.2536 19.473 38.513 19.8461 38.8615 20.1264C39.2138 20.4067 39.657 20.5469 40.1911 20.5469ZM52.6896 15.2003L51.1499 15.473C51.0855 15.276 50.9832 15.0885 50.843 14.9105C50.7067 14.7325 50.5211 14.5866 50.2862 14.473C50.0514 14.3594 49.7578 14.3026 49.4055 14.3026C48.9245 14.3026 48.523 14.4105 48.201 14.6264C47.879 14.8385 47.718 15.1132 47.718 15.4503C47.718 15.742 47.826 15.9768 48.0419 16.1548C48.2578 16.3329 48.6063 16.4787 49.0874 16.5923L50.4737 16.9105C51.2768 17.0961 51.8752 17.3821 52.2692 17.7685C52.6631 18.1548 52.8601 18.6567 52.8601 19.2741C52.8601 19.7969 52.7086 20.2628 52.4055 20.6719C52.1063 21.0772 51.6877 21.3954 51.1499 21.6264C50.6158 21.8575 49.9964 21.973 49.2919 21.973C48.3146 21.973 47.5173 21.7647 46.8999 21.348C46.2824 20.9276 45.9036 20.331 45.7635 19.5582L47.4055 19.3082C47.5078 19.7363 47.718 20.0601 48.0362 20.2798C48.3544 20.4957 48.7692 20.6037 49.2805 20.6037C49.8374 20.6037 50.2824 20.4882 50.6158 20.2571C50.9491 20.0223 51.1158 19.7363 51.1158 19.3991C51.1158 19.1264 51.0135 18.8973 50.8089 18.7116C50.6082 18.526 50.2995 18.3859 49.8828 18.2912L48.4055 17.9673C47.5911 17.7817 46.9889 17.4863 46.5987 17.081C46.2124 16.6757 46.0192 16.1624 46.0192 15.5412C46.0192 15.026 46.1631 14.5753 46.451 14.1889C46.7389 13.8026 47.1366 13.5014 47.6442 13.2855C48.1518 13.0658 48.7332 12.956 49.3885 12.956C50.3317 12.956 51.0741 13.1605 51.6158 13.5696C52.1574 13.9749 52.5154 14.5185 52.6896 15.2003ZM58.4893 21.973C57.6295 21.973 56.889 21.7893 56.2678 21.4219C55.6503 21.0507 55.1731 20.5298 54.8359 19.8594C54.5026 19.1851 54.3359 18.3954 54.3359 17.4901C54.3359 16.5961 54.5026 15.8082 54.8359 15.1264C55.1731 14.4446 55.6428 13.9124 56.245 13.5298C56.8511 13.1473 57.5594 12.956 58.37 12.956C58.8625 12.956 59.3397 13.0374 59.8018 13.2003C60.264 13.3632 60.6787 13.6188 61.0462 13.9673C61.4136 14.3158 61.7034 14.7685 61.9155 15.3253C62.1276 15.8783 62.2337 16.5507 62.2337 17.3423V17.9446H55.2962V16.6719H60.5689C60.5689 16.2249 60.478 15.8291 60.2962 15.4844C60.1143 15.1359 59.8587 14.8613 59.5291 14.6605C59.2034 14.4598 58.8208 14.3594 58.3814 14.3594C57.9041 14.3594 57.4875 14.4768 57.1314 14.7116C56.7791 14.9427 56.5064 15.2457 56.3132 15.6207C56.1238 15.992 56.0291 16.3954 56.0291 16.831V17.8253C56.0291 18.4086 56.1314 18.9048 56.3359 19.3139C56.5443 19.723 56.834 20.0355 57.2053 20.2514C57.5765 20.4635 58.0102 20.5696 58.5064 20.5696C58.8284 20.5696 59.1219 20.5241 59.3871 20.4332C59.6522 20.3385 59.8814 20.1984 60.0746 20.0128C60.2678 19.8272 60.4155 19.598 60.5178 19.3253L62.1257 19.6151C61.9969 20.0885 61.7659 20.5033 61.4325 20.8594C61.103 21.2116 60.6882 21.4863 60.1882 21.6832C59.692 21.8764 59.1257 21.973 58.4893 21.973Z" fill="black"/>
<rect x="104.297" y="30.7969" width="9.99951" height="9.99951" transform="rotate(180 104.297 30.7969)" fill="black"/>
<rect x="94.2949" y="20.7949" width="9.99951" height="9.99951" transform="rotate(180 94.2949 20.7949)" fill="black"/>
<rect x="104.297" y="10.7969" width="9.99951" height="9.99951" transform="rotate(180 104.297 10.7969)" fill="black"/>
<rect x="84.2969" y="30.7969" width="9.99951" height="9.99951" transform="rotate(180 84.2969 30.7969)" fill="black"/>
<rect x="84.2949" y="10.7969" width="9.99951" height="9.99951" transform="rotate(180 84.2949 10.7969)" fill="black"/>
</svg>
