<svg xmlns="http://www.w3.org/2000/svg" width="140" height="30" fill="none"><g clip-path="url(#a)"><path fill="#07b966" fill-rule="evenodd" d="M66.69.116v13.103c1.307-1.949 3.422-2.924 6.348-2.924 1.644 0 3.125.388 4.443 1.163 1.318.775 2.358 1.879 3.12 3.31.761 1.433 1.141 3.089 1.141 4.967 0 1.69-.374 3.253-1.123 4.684a9.06 9.06 0 0 1-3.174 3.47c-1.366.88-2.896 1.321-4.588 1.321-1.355 0-2.582-.259-3.682-.775s-1.964-1.256-2.594-2.219l-.036 2.43h-4.026V.116h4.171Zm-41.466 5.46 6.917 6.897a9.22 9.22 0 0 1 2.034 2.348c.882 1.445 1.324 3.083 1.324 4.914 0 1.714-.412 3.288-1.234 4.72-.822 1.432-1.983 2.584-3.481 3.452-1.5.868-3.18 1.303-5.042 1.303-1.79 0-3.422-.394-4.897-1.18a9.053 9.053 0 0 1-3.536-3.364c-.883-1.456-1.324-3.1-1.324-4.931 0-1.69.411-3.252 1.233-4.684.822-1.433 1.983-2.583 3.482-3.452a9.641 9.641 0 0 1 4.006-1.257l-4.783-4.767h5.301Zm24.71 4.72c2.2 0 3.887.65 5.06 1.954 1.172 1.304 1.759 3.176 1.759 5.618v10.778h-4.171V18.608c0-1.596-.309-2.783-.925-3.557-.617-.775-1.566-1.163-2.847-1.163-1.403 0-2.491.446-3.265 1.339-.774.892-1.16 2.136-1.16 3.733v9.686h-4.171V10.86h3.99l.036 2.29c.507-.916 1.257-1.62 2.248-2.114.992-.493 2.14-.74 3.446-.74Zm46.244 0c2.2 0 3.887.65 5.06 1.954 1.172 1.304 1.759 3.176 1.759 5.618v10.778h-4.171V18.608c0-1.596-.308-2.783-.925-3.557-.617-.775-1.566-1.163-2.847-1.163-1.403 0-2.491.446-3.265 1.339-.774.892-1.16 2.136-1.16 3.733v9.686h-4.172V10.86h3.99l.037 2.29c.507-.916 1.256-1.62 2.248-2.114.992-.493 2.14-.74 3.446-.74ZM112.935.115v17.576l7.399-6.833h5.223l-8.777 7.855 10.155 9.932h-5.513l-8.487-8.453v8.453h-4.171V.116h4.171Zm-102.056.3c.69 0 1.397.064 2.123.19.725.127 1.338.306 1.837.537l-.428 3.325a9.086 9.086 0 0 0-3.103-.554c-1.308 0-2.26.416-2.854 1.247-.595.832-.892 2.148-.892 3.95v2.043h5.208v3.36H7.562v14.133H3.46V14.513H0v-3.36h3.46v-2.46c0-2.655.636-4.699 1.908-6.13C6.64 1.13 8.478.414 10.88.414Zm14.863 13.508c-1.62 0-2.95.54-3.99 1.62s-1.56 2.478-1.56 4.192.514 3.117 1.542 4.21c1.027 1.091 2.363 1.637 4.008 1.637 1.644 0 2.98-.546 4.008-1.638 1.027-1.092 1.541-2.495 1.541-4.21 0-1.713-.52-3.11-1.56-4.19-1.04-1.08-2.37-1.62-3.99-1.62Zm46.244 0c-1.645 0-2.98.546-4.008 1.638-1.028 1.092-1.541 2.495-1.541 4.21 0 1.713.52 3.111 1.56 4.19 1.038 1.081 2.368 1.621 3.99 1.621 1.618 0 2.949-.54 3.99-1.62 1.038-1.08 1.559-2.477 1.559-4.192 0-1.714-.514-3.117-1.542-4.209-1.028-1.092-2.364-1.638-4.008-1.638Z" clip-rule="evenodd"/></g><defs><clipPath id="a"><path fill="#fff" d="M0 0h127v29.21H0z"/></clipPath></defs></svg>