<svg width="21" height="21" viewBox="0 0 21 21" fill="none" xmlns="http://www.w3.org/2000/svg">
<path d="M10.2969 0.46875C4.77396 0.46875 0.296875 4.94583 0.296875 10.4688C0.296875 15.9917 4.77396 20.4688 10.2969 20.4688C15.8198 20.4688 20.2969 15.9917 20.2969 10.4688C20.2969 4.94583 15.8198 0.46875 10.2969 0.46875ZM7.84896 14.6135H5.82396V8.09687H7.84896V14.6135ZM6.82396 7.29687C6.18437 7.29687 5.77083 6.84375 5.77083 6.28333C5.77083 5.71146 6.19687 5.27187 6.85 5.27187C7.50312 5.27187 7.90312 5.71146 7.91562 6.28333C7.91562 6.84375 7.50312 7.29687 6.82396 7.29687ZM15.2448 14.6135H13.2198V11.0021C13.2198 10.1615 12.926 9.59062 12.1938 9.59062C11.6344 9.59062 11.3021 9.97708 11.1552 10.349C11.101 10.4812 11.0875 10.6688 11.0875 10.8552V14.6125H9.06146V10.175C9.06146 9.36146 9.03542 8.68125 9.00833 8.09583H10.7677L10.8604 9.00104H10.901C11.1677 8.57604 11.8208 7.94896 12.9135 7.94896C14.2458 7.94896 15.2448 8.84167 15.2448 10.7604V14.6135Z" fill="#201F1B" fill-opacity="0.5"/>
</svg>
