<svg xmlns="http://www.w3.org/2000/svg" width="200" height="98" fill="none"><path fill="#02010A" d="M0 97.15V52.98h9.9v44.17H0Z"/><path fill="#02010A" d="M124.7 86.96c0-5.64-2.96-9.4-10.04-11.21l-6.36-1.74c-2.17-.5-4.13-1.3-4.13-3.32 0-1.74 1.74-2.75 4.27-2.75 2.17 0 4.27.94 4.77 3.69h9.98c-.58-7.23-6.65-11.42-14.6-11.42-9.04 0-14.54 4.48-14.54 10.7 0 5.27 2.9 9.61 9.18 11.2l6.8 1.74c3.18.8 4.55 1.73 4.55 3.61 0 1.74-1.59 2.9-4.7 2.9-3.18 0-5.92-1.52-6.28-4.7H93.25c.36 7.08 7.01 12.28 16.34 12.28 8.74 0 15.1-4.19 15.1-10.98Z"/><path fill="#02010A" fill-rule="evenodd" d="M23.24 69.78h-9.57v13.75c0 7.1 5.62 14.41 16.8 14.41 4.94 0 8.93-2.47 10.55-4.77v3.98h9.59v-9.6h-.01V73.76A13.54 13.54 0 0 0 37.04 60.2h-13.8v9.58Zm17.78 5.43a5.4 5.4 0 0 0-5.42-5.42H23.25v12.34c0 3 2.42 5.42 5.42 5.42h12.35V75.21Z" clip-rule="evenodd"/><path fill="#02010A" fill-rule="evenodd" d="M54.64 52.98v44.17h9.9V93.1c1.66 2.31 5.5 4.84 10.48 4.84 9.62 0 17-8.6 17-18.86 0-10.27-7.38-18.87-17-18.87-4.98 0-8.82 2.53-10.48 4.84V52.98h-9.9ZM72.86 88.9c5.42 0 9.1-4.2 9.1-9.83 0-5.64-3.68-9.84-9.1-9.84-5.43 0-9.11 4.2-9.11 9.84 0 5.63 3.68 9.83 9.1 9.83Z" clip-rule="evenodd"/><path fill="#02010A" d="M162.89 16.82V7.29h-12.67V0h-9.53v7.29h-6.73v9.53h6.72v13.9c0 7.85 5.95 13.46 13.8 13.46h6.16v-9.53h-3.92c-3.93 0-6.5-2.25-6.5-6.17V16.82h12.67Zm27.58 17.83v9.53h-13.9c-7.85 0-13.68-5.6-13.68-13.46v-13.9h9.53v11.66c0 3.92 2.46 6.17 6.39 6.17h11.66Zm-18.05-17.83V7.29h13.9c7.85 0 13.68 5.6 13.68 13.45v13.9h-9.53V23c0-3.93-2.47-6.17-6.4-6.17h-11.65Z"/><path fill="#02010A" d="M108.3 43.38h-9.88V7.3h9.89v4.12c1.88-2.9 5.63-4.91 10.32-4.91 8.73 0 13.93 6.35 13.93 15.73v21.14h-9.89V23.9c0-5.2-2.24-8.37-6.35-8.37-4.55 0-8.01 3.32-8.01 10.25v17.6Z"/><path fill="#02010A" fill-rule="evenodd" d="M84.93 31.62h10.32c-2.17 7.29-9.31 12.56-18.48 12.56-11.04 0-18.9-7.94-18.9-18.9 0-10.76 8-18.77 18.98-18.77 10.6 0 19.34 7.58 18.83 21.14H67.54c.43 4.26 3.6 7.94 9.74 7.94 3.46 0 6.5-1.51 7.65-3.97Zm-8.37-17.1c3.39 0 7.07 1.8 8.3 6.64H67.9c.94-3.97 4.11-6.64 8.66-6.64Z" clip-rule="evenodd"/><path fill="#02010A" d="M0 43.38h9.89v-17.6c0-6.93 2.96-10.25 7.21-10.25 3.9 0 5.63 3.25 5.63 8.59v19.26h9.89v-17.6c0-6.93 2.96-10.25 7.21-10.25 3.9 0 5.63 3.25 5.63 8.59v19.26h9.89V22.46c0-9.75-4.9-15.95-13.5-15.95-4.1 0-8.94 2.16-11.18 6.64C28.5 8.96 24.75 6.5 19.48 6.5c-4.4 0-7.65 2.1-9.6 4.9v-4.1H0v36.07Z"/></svg>