<svg width="86" height="31" viewBox="0 0 86 31" fill="none" xmlns="http://www.w3.org/2000/svg">
<path d="M1.66122 10.1605H3.7919L7.49645 19.206H7.63281L11.3374 10.1605H13.468V21.7969H11.7976V13.3764H11.6896L8.25781 21.7798H6.87145L3.43963 13.3707H3.33168V21.7969H1.66122V10.1605ZM19.6456 21.973C18.7857 21.973 18.0452 21.7893 17.424 21.4219C16.8066 21.0507 16.3293 20.5298 15.9922 19.8594C15.6589 19.1851 15.4922 18.3954 15.4922 17.4901C15.4922 16.5961 15.6589 15.8082 15.9922 15.1264C16.3293 14.4446 16.799 13.9124 17.4013 13.5298C18.0073 13.1473 18.7157 12.956 19.5263 12.956C20.0187 12.956 20.496 13.0374 20.9581 13.2003C21.4202 13.3632 21.835 13.6188 22.2024 13.9673C22.5698 14.3158 22.8596 14.7685 23.0717 15.3253C23.2839 15.8783 23.3899 16.5507 23.3899 17.3423V17.9446H16.4524V16.6719H21.7251C21.7251 16.2249 21.6342 15.8291 21.4524 15.4844C21.2706 15.1359 21.0149 14.8613 20.6854 14.6605C20.3596 14.4598 19.977 14.3594 19.5376 14.3594C19.0604 14.3594 18.6437 14.4768 18.2876 14.7116C17.9354 14.9427 17.6626 15.2457 17.4695 15.6207C17.2801 15.992 17.1854 16.3954 17.1854 16.831V17.8253C17.1854 18.4086 17.2876 18.9048 17.4922 19.3139C17.7005 19.723 17.9903 20.0355 18.3615 20.2514C18.7327 20.4635 19.1664 20.5696 19.6626 20.5696C19.9846 20.5696 20.2782 20.5241 20.5433 20.4332C20.8085 20.3385 21.0376 20.1984 21.2308 20.0128C21.424 19.8272 21.5717 19.598 21.674 19.3253L23.282 19.6151C23.1532 20.0885 22.9221 20.5033 22.5888 20.8594C22.2592 21.2116 21.8445 21.4863 21.3445 21.6832C20.8482 21.8764 20.282 21.973 19.6456 21.973ZM26.9737 16.6151V21.7969H25.2749V13.0696H26.9055V14.4901H27.0135C27.2143 14.0279 27.5286 13.6567 27.9567 13.3764C28.3885 13.0961 28.9321 12.956 29.5874 12.956C30.1821 12.956 30.7029 13.081 31.1499 13.331C31.5968 13.5772 31.9434 13.9446 32.1896 14.4332C32.4358 14.9219 32.5589 15.526 32.5589 16.2457V21.7969H30.8601V16.4503C30.8601 15.8177 30.6953 15.3234 30.3658 14.9673C30.0362 14.6075 29.5836 14.4276 29.0078 14.4276C28.6139 14.4276 28.2635 14.5128 27.9567 14.6832C27.6536 14.8537 27.4131 15.1037 27.2351 15.4332C27.0608 15.759 26.9737 16.1529 26.9737 16.6151ZM40.3658 18.1776V13.0696H42.0703V21.7969H40.3999V20.2855H40.3089C40.1082 20.7514 39.7862 21.1397 39.343 21.4503C38.9036 21.7571 38.3563 21.9105 37.701 21.9105C37.1404 21.9105 36.6442 21.7874 36.2124 21.5412C35.7843 21.2912 35.4472 20.9219 35.201 20.4332C34.9586 19.9446 34.8374 19.3404 34.8374 18.6207V13.0696H36.5362V18.4162C36.5362 19.0109 36.701 19.4844 37.0305 19.8366C37.3601 20.1889 37.7881 20.3651 38.3146 20.3651C38.6328 20.3651 38.9491 20.2855 39.2635 20.1264C39.5817 19.9673 39.8449 19.7268 40.0533 19.4048C40.2654 19.0829 40.3696 18.6738 40.3658 18.1776Z" fill="black"/>
<rect x="55.2969" y="0.796875" width="9.99951" height="9.99951" fill="black"/>
<rect x="55.2969" y="20.7969" width="9.99951" height="9.99951" fill="black"/>
<rect x="75.2969" y="0.796875" width="9.99951" height="9.99951" fill="black"/>
<rect x="75.2969" y="20.7969" width="9.99951" height="9.99951" fill="black"/>
</svg>
