<?xml version="1.0" standalone="no"?>
<!DOCTYPE svg PUBLIC "-//W3C//DTD SVG 20010904//EN"
 "http://www.w3.org/TR/2001/REC-SVG-20010904/DTD/svg10.dtd">
<svg version="1.0" xmlns="http://www.w3.org/2000/svg"
 width="480.000000pt" height="480.000000pt" viewBox="0 0 480.000000 480.000000"
 preserveAspectRatio="xMidYMid meet">

<g transform="translate(0.000000,480.000000) scale(0.100000,-0.100000)"
fill="#000000" stroke="none">
<path d="M266 4791 c5 -5 43 -34 84 -66 207 -158 390 -368 517 -595 66 -117
171 -380 188 -472 l7 -34 -89 -23 c-176 -44 -239 -92 -229 -174 2 -21 11 -48
19 -61 9 -14 84 -58 182 -107 l167 -84 -7 -105 c-9 -140 -40 -326 -71 -427
-23 -78 -26 -83 -52 -83 -44 0 -52 -16 -52 -106 0 -61 -5 -95 -21 -131 -29
-69 -141 -244 -220 -343 -69 -87 -228 -248 -309 -312 -80 -63 -253 -174 -318
-203 l-62 -29 0 -718 0 -718 815 0 815 0 0 33 c0 105 70 411 140 612 65 187
195 426 349 642 14 19 22 21 66 16 61 -6 143 10 206 40 46 23 46 23 55 2 8
-18 18 -20 123 -20 93 0 115 3 118 15 4 11 2 12 -5 2 -6 -9 -38 -12 -118 -10
-109 3 -109 3 -112 29 l-3 25 -64 -32 c-84 -42 -168 -52 -256 -30 -188 48
-298 170 -321 355 -29 242 86 439 294 502 114 35 187 24 331 -49 4 -2 7 5 7
15 0 35 21 43 116 43 51 0 99 -3 108 -6 14 -5 16 -31 16 -180 0 -96 2 -174 6
-174 3 0 32 18 65 40 56 39 79 44 79 18 0 -7 38 -97 84 -202 46 -105 92 -213
103 -240 l21 -49 -30 -81 c-69 -192 -88 -228 -158 -302 -167 -177 -296 -377
-383 -599 -35 -88 -97 -337 -97 -389 l0 -26 1215 0 1215 0 -2 698 -3 697 -90
34 c-213 79 -514 121 -736 101 -228 -20 -410 -65 -594 -150 l-84 -39 10 27
c11 31 111 284 229 580 50 126 78 211 75 223 -4 10 -18 22 -33 25 -15 3 -31 7
-37 8 -16 4 159 36 282 51 146 19 412 19 563 1 110 -13 326 -57 377 -77 13 -5
29 -9 34 -9 5 0 9 333 9 860 l0 860 -89 -68 c-89 -67 -179 -111 -306 -149 -46
-14 -94 -18 -210 -18 -147 1 -152 1 -260 38 -127 44 -162 63 -266 145 -83 66
-188 195 -224 277 -94 211 -110 440 -45 631 l19 54 -1582 0 c-906 0 -1577 -4
-1571 -9z m1514 -986 c40 -21 60 -53 60 -98 0 -41 -10 -76 -124 -447 -40 -129
-85 -277 -100 -329 -39 -135 -61 -176 -103 -196 -29 -14 -43 -15 -73 -6 -20 6
-44 19 -52 28 -9 10 -58 102 -111 205 l-94 188 -198 99 c-108 55 -203 108
-211 118 -16 21 -18 106 -4 134 16 28 71 53 200 88 63 18 198 58 300 91 337
106 440 137 468 139 7 1 26 -6 42 -14z m403 -580 c43 -75 133 -239 189 -342
27 -51 53 -95 57 -97 7 -5 46 62 199 339 90 164 81 155 170 155 42 0 83 -4 90
-8 10 -7 12 -107 10 -468 l-3 -459 -95 0 -95 0 -5 260 c-3 143 -9 250 -13 239
-4 -12 -37 -70 -73 -129 -36 -60 -76 -130 -90 -157 l-25 -49 -66 3 -65 3 -48
80 c-26 44 -69 119 -96 167 l-49 88 -5 -253 -5 -252 -88 -3 c-57 -2 -94 1
-103 9 -12 9 -14 86 -14 451 0 289 4 446 11 459 9 18 19 19 97 17 l87 -3 28
-50z m975 11 c16 -15 26 -39 29 -70 5 -39 2 -51 -21 -81 -58 -76 -154 -66
-196 21 -18 37 -20 49 -11 77 30 91 134 118 199 53z m945 7 c32 -29 48 -76 37
-113 -29 -101 -154 -129 -211 -49 -18 25 -21 40 -17 86 4 47 10 60 34 79 45
37 113 35 157 -3z m-339 -280 c84 -58 105 -146 106 -424 0 -140 -3 -179 -14
-188 -9 -8 -45 -11 -98 -9 l-83 3 -5 210 c-5 217 -10 244 -50 265 -29 15 -89
12 -121 -7 -52 -31 -59 -62 -59 -265 0 -130 -4 -188 -12 -196 -16 -16 -160
-16 -176 0 -18 18 -17 607 1 632 10 14 26 16 92 14 72 -3 81 -5 91 -26 8 -16
14 -20 19 -12 18 29 130 49 214 38 35 -4 70 -17 95 -35z m-606 25 c19 -19 17
-621 -2 -637 -9 -8 -43 -11 -93 -9 l-78 3 -3 319 c-2 249 1 321 10 328 20 12
152 10 166 -4z m951 -2 c8 -9 11 -104 9 -327 l-3 -314 -90 0 -90 0 -5 318 c-3
195 -1 322 5 328 15 15 161 11 174 -5z m-2584 -447 c123 -23 225 -102 266
-207 16 -41 24 -86 27 -159 9 -200 -57 -317 -216 -385 -74 -31 -83 -32 -239
-36 l-163 -4 -2 -207 -3 -206 -119 -3 c-89 -2 -122 1 -128 10 -9 15 -11 1192
-1 1202 11 11 516 7 578 -5z m1442 -361 c6 -7 17 -33 26 -58 8 -25 42 -107 75
-182 33 -76 68 -161 77 -189 10 -28 21 -47 25 -42 11 11 101 235 140 348 49
141 42 135 165 135 150 0 148 13 36 -257 -39 -94 -71 -176 -71 -182 0 -6 -27
-77 -61 -158 -34 -82 -76 -188 -94 -238 -18 -49 -57 -148 -87 -220 l-54 -130
-112 -3 c-95 -2 -113 0 -118 13 -4 9 8 50 25 93 18 42 49 125 70 184 l38 106
-19 49 c-11 26 -43 100 -71 163 -28 63 -74 171 -102 240 -29 69 -71 167 -95
218 -54 121 -53 122 90 122 74 0 111 -4 117 -12z m337 -109 c-41 -117 -126
-333 -135 -343 -6 -6 -9 -3 -9 6 0 9 -27 81 -60 159 -33 78 -59 143 -58 144
26 19 278 116 285 110 2 -1 -9 -35 -23 -76z"/>
<path d="M1655 3674 c-22 -9 -94 -31 -160 -50 -66 -19 -210 -64 -320 -99 -110
-35 -220 -69 -244 -75 -23 -6 -41 -13 -40 -14 2 -2 75 -40 163 -86 l158 -82
133 131 c72 72 139 131 147 131 28 0 61 -35 61 -64 0 -23 -25 -53 -127 -155
l-126 -126 82 -163 c55 -110 84 -159 89 -149 5 7 18 49 29 93 12 43 44 149 71
234 28 85 70 223 94 305 24 83 47 158 50 168 9 21 -5 21 -60 1z m-560 -259 c4
-36 6 -68 3 -70 -2 -2 -46 17 -96 44 l-93 48 58 12 c32 7 65 17 73 22 38 22
48 11 55 -56z"/>
<path d="M1200 2150 l0 -172 128 4 c142 4 170 13 212 75 31 45 33 134 4 184
-35 60 -73 74 -216 78 l-128 3 0 -172z"/>
<path d="M2187 1966 c-79 -21 -125 -82 -142 -183 -8 -54 16 -141 51 -183 98
-116 291 -75 340 72 39 118 -24 273 -118 292 -67 14 -86 14 -131 2z"/>
</g>
</svg>
