<svg width="21" height="21" viewBox="0 0 21 21" fill="none" xmlns="http://www.w3.org/2000/svg">
<path d="M10.2969 0.46875C15.8254 0.46875 20.2969 4.94018 20.2969 10.4688C20.2969 15.9973 15.8254 20.4688 10.2969 20.4688C4.7683 20.4688 0.296875 15.9973 0.296875 10.4688C0.296875 4.94018 4.7683 0.46875 10.2969 0.46875ZM8.4683 15.7402C12.8969 15.7402 15.3254 12.0688 15.3254 8.88304V8.56875C15.7969 8.22589 16.2112 7.79732 16.5254 7.31161C16.0969 7.49732 15.6254 7.62589 15.1397 7.69732C15.6397 7.39732 16.0254 6.92589 16.1969 6.36875C15.7254 6.64018 15.2112 6.84018 14.6683 6.95446C14.2254 6.48304 13.5969 6.19732 12.9112 6.19732C11.5826 6.19732 10.4969 7.28304 10.4969 8.61161C10.4969 8.79732 10.5112 8.98304 10.5683 9.15446C8.5683 9.05446 6.78259 8.09732 5.59688 6.64018C5.39688 6.99732 5.2683 7.41161 5.2683 7.85446C5.2683 8.68304 5.69688 9.42589 6.33973 9.85446C5.93973 9.85446 5.5683 9.74018 5.25402 9.55446V9.58304C5.25402 10.7545 6.08259 11.7259 7.18259 11.9545C6.98259 12.0116 6.7683 12.0402 6.55402 12.0402C6.39688 12.0402 6.25402 12.0259 6.09688 11.9973C6.39687 12.9545 7.29688 13.6545 8.33973 13.6687C7.51116 14.3116 6.4683 14.6973 5.33973 14.6973C5.13973 14.6973 4.95402 14.6973 4.7683 14.6687C5.82545 15.3545 7.09688 15.7545 8.45402 15.7545" fill="#838078"/>
</svg>
