<svg width="121" height="85" viewBox="0 0 121 85" fill="none" xmlns="http://www.w3.org/2000/svg">
<g clip-path="url(#clip0_133_1071)">
<path d="M118.147 13.3985C117.458 10.8662 116.116 8.55755 114.252 6.70247C112.389 4.8474 110.07 3.51063 107.527 2.82528C98.2145 0.296875 60.736 0.296875 60.736 0.296875C60.736 0.296875 23.2557 0.373408 13.9435 2.90181C11.3999 3.5872 9.08092 4.92404 7.21764 6.7792C5.35436 8.63437 4.01176 10.9431 3.32353 13.4755C0.506809 29.9479 -0.585848 55.0481 3.40087 70.8615C4.08917 73.3939 5.43181 75.7025 7.29508 77.5576C9.15836 79.4127 11.4773 80.7495 14.0209 81.4348C23.3331 83.9632 60.8124 83.9632 60.8124 83.9632C60.8124 83.9632 98.2913 83.9632 107.603 81.4348C110.147 80.7495 112.466 79.4128 114.329 77.5577C116.192 75.7026 117.535 73.3939 118.224 70.8615C121.194 54.3658 122.11 29.2811 118.147 13.3985Z" fill="#FF0000"/>
<path d="M48.8066 60.058L79.8979 42.1296L48.8066 24.2012V60.058Z" fill="white"/>
</g>
<defs>
<clipPath id="clip0_133_1071">
<rect width="120" height="84" fill="white" transform="translate(0.796875 0.296875)"/>
</clipPath>
</defs>
</svg>
